<mxfile host="Electron" modified="2023-06-21T03:24:50.166Z" agent="Mozilla/5.0 (Windows NT 10.0; Win64; x64) AppleWebKit/537.36 (KHTML, like Gecko) draw.io/21.2.8 Chrome/112.0.5615.165 Electron/24.2.0 Safari/537.36" etag="SKyu90v9rC9uLGIcreVG" version="21.2.8" type="device" pages="5">
  <diagram name="domain_models" id="f1EFh1hx9JwJ01cUP3-C">
    <mxGraphModel dx="1008" dy="690" grid="1" gridSize="10" guides="1" tooltips="1" connect="1" arrows="1" fold="1" page="1" pageScale="1" pageWidth="850" pageHeight="1100" math="0" shadow="0">
      <root>
        <mxCell id="0" />
        <mxCell id="1" parent="0" />
        <mxCell id="AmdDYNb3q1W9D1PbskiA-66" value="Game" style="swimlane;fontStyle=0;childLayout=stackLayout;horizontal=1;startSize=30;horizontalStack=0;resizeParent=1;resizeParentMax=0;resizeLast=0;collapsible=1;marginBottom=0;whiteSpace=wrap;html=1;" parent="1" vertex="1">
          <mxGeometry x="10" y="150" width="140" height="180" as="geometry" />
        </mxCell>
        <mxCell id="AmdDYNb3q1W9D1PbskiA-67" value="roundNumber" style="text;strokeColor=none;fillColor=none;align=left;verticalAlign=middle;spacingLeft=4;spacingRight=4;overflow=hidden;points=[[0,0.5],[1,0.5]];portConstraint=eastwest;rotatable=0;whiteSpace=wrap;html=1;" parent="AmdDYNb3q1W9D1PbskiA-66" vertex="1">
          <mxGeometry y="30" width="140" height="30" as="geometry" />
        </mxCell>
        <mxCell id="AmdDYNb3q1W9D1PbskiA-68" value="player" style="text;strokeColor=none;fillColor=none;align=left;verticalAlign=middle;spacingLeft=4;spacingRight=4;overflow=hidden;points=[[0,0.5],[1,0.5]];portConstraint=eastwest;rotatable=0;whiteSpace=wrap;html=1;" parent="AmdDYNb3q1W9D1PbskiA-66" vertex="1">
          <mxGeometry y="60" width="140" height="30" as="geometry" />
        </mxCell>
        <mxCell id="AmdDYNb3q1W9D1PbskiA-69" value="dealer" style="text;strokeColor=none;fillColor=none;align=left;verticalAlign=middle;spacingLeft=4;spacingRight=4;overflow=hidden;points=[[0,0.5],[1,0.5]];portConstraint=eastwest;rotatable=0;whiteSpace=wrap;html=1;" parent="AmdDYNb3q1W9D1PbskiA-66" vertex="1">
          <mxGeometry y="90" width="140" height="30" as="geometry" />
        </mxCell>
        <mxCell id="AmdDYNb3q1W9D1PbskiA-70" value="deck" style="text;strokeColor=none;fillColor=none;align=left;verticalAlign=middle;spacingLeft=4;spacingRight=4;overflow=hidden;points=[[0,0.5],[1,0.5]];portConstraint=eastwest;rotatable=0;whiteSpace=wrap;html=1;" parent="AmdDYNb3q1W9D1PbskiA-66" vertex="1">
          <mxGeometry y="120" width="140" height="30" as="geometry" />
        </mxCell>
        <mxCell id="AmdDYNb3q1W9D1PbskiA-71" value="betAmount" style="text;strokeColor=none;fillColor=none;align=left;verticalAlign=middle;spacingLeft=4;spacingRight=4;overflow=hidden;points=[[0,0.5],[1,0.5]];portConstraint=eastwest;rotatable=0;whiteSpace=wrap;html=1;" parent="AmdDYNb3q1W9D1PbskiA-66" vertex="1">
          <mxGeometry y="150" width="140" height="30" as="geometry" />
        </mxCell>
        <mxCell id="AmdDYNb3q1W9D1PbskiA-72" value="Bet" style="swimlane;fontStyle=0;childLayout=stackLayout;horizontal=1;startSize=30;horizontalStack=0;resizeParent=1;resizeParentMax=0;resizeLast=0;collapsible=1;marginBottom=0;whiteSpace=wrap;html=1;" parent="1" vertex="1">
          <mxGeometry x="450" y="170" width="140" height="60" as="geometry" />
        </mxCell>
        <mxCell id="AmdDYNb3q1W9D1PbskiA-73" value="amount" style="text;strokeColor=none;fillColor=none;align=left;verticalAlign=middle;spacingLeft=4;spacingRight=4;overflow=hidden;points=[[0,0.5],[1,0.5]];portConstraint=eastwest;rotatable=0;whiteSpace=wrap;html=1;" parent="AmdDYNb3q1W9D1PbskiA-72" vertex="1">
          <mxGeometry y="30" width="140" height="30" as="geometry" />
        </mxCell>
        <mxCell id="AmdDYNb3q1W9D1PbskiA-74" value="Player" style="swimlane;fontStyle=0;childLayout=stackLayout;horizontal=1;startSize=30;horizontalStack=0;resizeParent=1;resizeParentMax=0;resizeLast=0;collapsible=1;marginBottom=0;whiteSpace=wrap;html=1;" parent="1" vertex="1">
          <mxGeometry x="270" y="255" width="140" height="210" as="geometry" />
        </mxCell>
        <mxCell id="AmdDYNb3q1W9D1PbskiA-75" value="name" style="text;strokeColor=none;fillColor=none;align=left;verticalAlign=middle;spacingLeft=4;spacingRight=4;overflow=hidden;points=[[0,0.5],[1,0.5]];portConstraint=eastwest;rotatable=0;whiteSpace=wrap;html=1;" parent="AmdDYNb3q1W9D1PbskiA-74" vertex="1">
          <mxGeometry y="30" width="140" height="30" as="geometry" />
        </mxCell>
        <mxCell id="AmdDYNb3q1W9D1PbskiA-77" value="chips" style="text;strokeColor=none;fillColor=none;align=left;verticalAlign=middle;spacingLeft=4;spacingRight=4;overflow=hidden;points=[[0,0.5],[1,0.5]];portConstraint=eastwest;rotatable=0;whiteSpace=wrap;html=1;" parent="AmdDYNb3q1W9D1PbskiA-74" vertex="1">
          <mxGeometry y="60" width="140" height="30" as="geometry" />
        </mxCell>
        <mxCell id="AmdDYNb3q1W9D1PbskiA-78" value="totalBetAmount" style="text;strokeColor=none;fillColor=none;align=left;verticalAlign=middle;spacingLeft=4;spacingRight=4;overflow=hidden;points=[[0,0.5],[1,0.5]];portConstraint=eastwest;rotatable=0;whiteSpace=wrap;html=1;" parent="AmdDYNb3q1W9D1PbskiA-74" vertex="1">
          <mxGeometry y="90" width="140" height="30" as="geometry" />
        </mxCell>
        <mxCell id="AmdDYNb3q1W9D1PbskiA-76" value="hand" style="text;strokeColor=none;fillColor=none;align=left;verticalAlign=middle;spacingLeft=4;spacingRight=4;overflow=hidden;points=[[0,0.5],[1,0.5]];portConstraint=eastwest;rotatable=0;whiteSpace=wrap;html=1;" parent="AmdDYNb3q1W9D1PbskiA-74" vertex="1">
          <mxGeometry y="120" width="140" height="30" as="geometry" />
        </mxCell>
        <mxCell id="AmdDYNb3q1W9D1PbskiA-79" value="gameState" style="text;strokeColor=none;fillColor=none;align=left;verticalAlign=middle;spacingLeft=4;spacingRight=4;overflow=hidden;points=[[0,0.5],[1,0.5]];portConstraint=eastwest;rotatable=0;whiteSpace=wrap;html=1;" parent="AmdDYNb3q1W9D1PbskiA-74" vertex="1">
          <mxGeometry y="150" width="140" height="30" as="geometry" />
        </mxCell>
        <mxCell id="NX3lpK6z03712E9rUARi-1" value="addtionalState" style="text;strokeColor=none;fillColor=none;align=left;verticalAlign=middle;spacingLeft=4;spacingRight=4;overflow=hidden;points=[[0,0.5],[1,0.5]];portConstraint=eastwest;rotatable=0;whiteSpace=wrap;html=1;" parent="AmdDYNb3q1W9D1PbskiA-74" vertex="1">
          <mxGeometry y="180" width="140" height="30" as="geometry" />
        </mxCell>
        <mxCell id="AmdDYNb3q1W9D1PbskiA-80" value="Dealer" style="swimlane;fontStyle=0;childLayout=stackLayout;horizontal=1;startSize=30;horizontalStack=0;resizeParent=1;resizeParentMax=0;resizeLast=0;collapsible=1;marginBottom=0;whiteSpace=wrap;html=1;" parent="1" vertex="1">
          <mxGeometry x="270" y="60" width="140" height="120" as="geometry" />
        </mxCell>
        <mxCell id="AmdDYNb3q1W9D1PbskiA-81" value="hand" style="text;strokeColor=none;fillColor=none;align=left;verticalAlign=middle;spacingLeft=4;spacingRight=4;overflow=hidden;points=[[0,0.5],[1,0.5]];portConstraint=eastwest;rotatable=0;whiteSpace=wrap;html=1;" parent="AmdDYNb3q1W9D1PbskiA-80" vertex="1">
          <mxGeometry y="30" width="140" height="30" as="geometry" />
        </mxCell>
        <mxCell id="8IczIBtJuRgxzT8IRAjE-1" value="gameState" style="text;strokeColor=none;fillColor=none;align=left;verticalAlign=middle;spacingLeft=4;spacingRight=4;overflow=hidden;points=[[0,0.5],[1,0.5]];portConstraint=eastwest;rotatable=0;whiteSpace=wrap;html=1;" parent="AmdDYNb3q1W9D1PbskiA-80" vertex="1">
          <mxGeometry y="60" width="140" height="30" as="geometry" />
        </mxCell>
        <mxCell id="NX3lpK6z03712E9rUARi-2" value="addtionalState" style="text;strokeColor=none;fillColor=none;align=left;verticalAlign=middle;spacingLeft=4;spacingRight=4;overflow=hidden;points=[[0,0.5],[1,0.5]];portConstraint=eastwest;rotatable=0;whiteSpace=wrap;html=1;" parent="AmdDYNb3q1W9D1PbskiA-80" vertex="1">
          <mxGeometry y="90" width="140" height="30" as="geometry" />
        </mxCell>
        <mxCell id="AmdDYNb3q1W9D1PbskiA-83" value="Safe" style="swimlane;fontStyle=0;childLayout=stackLayout;horizontal=1;startSize=30;horizontalStack=0;resizeParent=1;resizeParentMax=0;resizeLast=0;collapsible=1;marginBottom=0;whiteSpace=wrap;html=1;" parent="1" vertex="1">
          <mxGeometry x="430" y="465" width="140" height="90" as="geometry" />
        </mxCell>
        <mxCell id="AmdDYNb3q1W9D1PbskiA-84" value="balance" style="text;strokeColor=none;fillColor=none;align=left;verticalAlign=middle;spacingLeft=4;spacingRight=4;overflow=hidden;points=[[0,0.5],[1,0.5]];portConstraint=eastwest;rotatable=0;whiteSpace=wrap;html=1;" parent="AmdDYNb3q1W9D1PbskiA-83" vertex="1">
          <mxGeometry y="30" width="140" height="30" as="geometry" />
        </mxCell>
        <mxCell id="AmdDYNb3q1W9D1PbskiA-85" value="chips" style="text;strokeColor=none;fillColor=none;align=left;verticalAlign=middle;spacingLeft=4;spacingRight=4;overflow=hidden;points=[[0,0.5],[1,0.5]];portConstraint=eastwest;rotatable=0;whiteSpace=wrap;html=1;" parent="AmdDYNb3q1W9D1PbskiA-83" vertex="1">
          <mxGeometry y="60" width="140" height="30" as="geometry" />
        </mxCell>
        <mxCell id="AmdDYNb3q1W9D1PbskiA-86" value="Chip" style="swimlane;fontStyle=0;childLayout=stackLayout;horizontal=1;startSize=30;horizontalStack=0;resizeParent=1;resizeParentMax=0;resizeLast=0;collapsible=1;marginBottom=0;whiteSpace=wrap;html=1;" parent="1" vertex="1">
          <mxGeometry x="680" y="465" width="140" height="60" as="geometry" />
        </mxCell>
        <mxCell id="AmdDYNb3q1W9D1PbskiA-87" value="value" style="text;strokeColor=none;fillColor=none;align=left;verticalAlign=middle;spacingLeft=4;spacingRight=4;overflow=hidden;points=[[0,0.5],[1,0.5]];portConstraint=eastwest;rotatable=0;whiteSpace=wrap;html=1;" parent="AmdDYNb3q1W9D1PbskiA-86" vertex="1">
          <mxGeometry y="30" width="140" height="30" as="geometry" />
        </mxCell>
        <mxCell id="AmdDYNb3q1W9D1PbskiA-88" value="Card" style="swimlane;fontStyle=0;childLayout=stackLayout;horizontal=1;startSize=30;horizontalStack=0;resizeParent=1;resizeParentMax=0;resizeLast=0;collapsible=1;marginBottom=0;whiteSpace=wrap;html=1;" parent="1" vertex="1">
          <mxGeometry x="660" y="120" width="140" height="120" as="geometry" />
        </mxCell>
        <mxCell id="AmdDYNb3q1W9D1PbskiA-89" value="suit" style="text;strokeColor=none;fillColor=none;align=left;verticalAlign=middle;spacingLeft=4;spacingRight=4;overflow=hidden;points=[[0,0.5],[1,0.5]];portConstraint=eastwest;rotatable=0;whiteSpace=wrap;html=1;" parent="AmdDYNb3q1W9D1PbskiA-88" vertex="1">
          <mxGeometry y="30" width="140" height="30" as="geometry" />
        </mxCell>
        <mxCell id="AmdDYNb3q1W9D1PbskiA-90" value="rank" style="text;strokeColor=none;fillColor=none;align=left;verticalAlign=middle;spacingLeft=4;spacingRight=4;overflow=hidden;points=[[0,0.5],[1,0.5]];portConstraint=eastwest;rotatable=0;whiteSpace=wrap;html=1;" parent="AmdDYNb3q1W9D1PbskiA-88" vertex="1">
          <mxGeometry y="60" width="140" height="30" as="geometry" />
        </mxCell>
        <mxCell id="AmdDYNb3q1W9D1PbskiA-91" value="value" style="text;strokeColor=none;fillColor=none;align=left;verticalAlign=middle;spacingLeft=4;spacingRight=4;overflow=hidden;points=[[0,0.5],[1,0.5]];portConstraint=eastwest;rotatable=0;whiteSpace=wrap;html=1;" parent="AmdDYNb3q1W9D1PbskiA-88" vertex="1">
          <mxGeometry y="90" width="140" height="30" as="geometry" />
        </mxCell>
        <mxCell id="AmdDYNb3q1W9D1PbskiA-92" value="Deck" style="swimlane;fontStyle=0;childLayout=stackLayout;horizontal=1;startSize=30;horizontalStack=0;resizeParent=1;resizeParentMax=0;resizeLast=0;collapsible=1;marginBottom=0;whiteSpace=wrap;html=1;" parent="1" vertex="1">
          <mxGeometry x="470" y="10" width="140" height="60" as="geometry" />
        </mxCell>
        <mxCell id="AmdDYNb3q1W9D1PbskiA-93" value="cards" style="text;strokeColor=none;fillColor=none;align=left;verticalAlign=middle;spacingLeft=4;spacingRight=4;overflow=hidden;points=[[0,0.5],[1,0.5]];portConstraint=eastwest;rotatable=0;whiteSpace=wrap;html=1;" parent="AmdDYNb3q1W9D1PbskiA-92" vertex="1">
          <mxGeometry y="30" width="140" height="30" as="geometry" />
        </mxCell>
        <mxCell id="AmdDYNb3q1W9D1PbskiA-94" value="has ▶" style="html=1;verticalAlign=bottom;endArrow=none;edgeStyle=elbowEdgeStyle;elbow=vertical;curved=0;rounded=0;endFill=0;" parent="1" source="AmdDYNb3q1W9D1PbskiA-66" target="AmdDYNb3q1W9D1PbskiA-72" edge="1">
          <mxGeometry width="80" relative="1" as="geometry">
            <mxPoint x="180" y="148" as="sourcePoint" />
            <mxPoint x="240" y="270" as="targetPoint" />
          </mxGeometry>
        </mxCell>
        <mxCell id="AmdDYNb3q1W9D1PbskiA-95" value="1" style="edgeLabel;html=1;align=center;verticalAlign=middle;resizable=0;points=[];" parent="AmdDYNb3q1W9D1PbskiA-94" vertex="1" connectable="0">
          <mxGeometry x="-0.9321" y="2" relative="1" as="geometry">
            <mxPoint x="8" y="-8" as="offset" />
          </mxGeometry>
        </mxCell>
        <mxCell id="AmdDYNb3q1W9D1PbskiA-96" value="1...*" style="edgeLabel;html=1;align=center;verticalAlign=middle;resizable=0;points=[];" parent="AmdDYNb3q1W9D1PbskiA-94" vertex="1" connectable="0">
          <mxGeometry x="0.9059" relative="1" as="geometry">
            <mxPoint y="-9" as="offset" />
          </mxGeometry>
        </mxCell>
        <mxCell id="AmdDYNb3q1W9D1PbskiA-97" value="stores ▶" style="html=1;verticalAlign=bottom;endArrow=none;edgeStyle=elbowEdgeStyle;elbow=vertical;curved=0;rounded=0;endFill=0;" parent="1" source="AmdDYNb3q1W9D1PbskiA-83" target="AmdDYNb3q1W9D1PbskiA-86" edge="1">
          <mxGeometry width="80" relative="1" as="geometry">
            <mxPoint x="625" y="372.5" as="sourcePoint" />
            <mxPoint x="800" y="544.5" as="targetPoint" />
          </mxGeometry>
        </mxCell>
        <mxCell id="AmdDYNb3q1W9D1PbskiA-98" value="1" style="edgeLabel;html=1;align=center;verticalAlign=middle;resizable=0;points=[];" parent="AmdDYNb3q1W9D1PbskiA-97" vertex="1" connectable="0">
          <mxGeometry x="-0.9321" y="2" relative="1" as="geometry">
            <mxPoint x="8" y="-8" as="offset" />
          </mxGeometry>
        </mxCell>
        <mxCell id="AmdDYNb3q1W9D1PbskiA-99" value="0...n" style="edgeLabel;html=1;align=center;verticalAlign=middle;resizable=0;points=[];" parent="AmdDYNb3q1W9D1PbskiA-97" vertex="1" connectable="0">
          <mxGeometry x="0.9059" relative="1" as="geometry">
            <mxPoint x="-11" y="-10" as="offset" />
          </mxGeometry>
        </mxCell>
        <mxCell id="AmdDYNb3q1W9D1PbskiA-100" value="contains ▶" style="html=1;verticalAlign=bottom;endArrow=none;edgeStyle=elbowEdgeStyle;elbow=vertical;curved=0;rounded=0;endFill=0;" parent="1" source="AmdDYNb3q1W9D1PbskiA-92" target="AmdDYNb3q1W9D1PbskiA-88" edge="1">
          <mxGeometry x="-0.1579" y="-20" width="80" relative="1" as="geometry">
            <mxPoint x="650" y="195" as="sourcePoint" />
            <mxPoint x="825" y="367" as="targetPoint" />
            <Array as="points">
              <mxPoint x="650" y="50" />
            </Array>
            <mxPoint as="offset" />
          </mxGeometry>
        </mxCell>
        <mxCell id="AmdDYNb3q1W9D1PbskiA-101" value="1" style="edgeLabel;html=1;align=center;verticalAlign=middle;resizable=0;points=[];" parent="AmdDYNb3q1W9D1PbskiA-100" vertex="1" connectable="0">
          <mxGeometry x="-0.9321" y="2" relative="1" as="geometry">
            <mxPoint x="1" y="11" as="offset" />
          </mxGeometry>
        </mxCell>
        <mxCell id="AmdDYNb3q1W9D1PbskiA-102" value="0...52" style="edgeLabel;html=1;align=center;verticalAlign=middle;resizable=0;points=[];" parent="AmdDYNb3q1W9D1PbskiA-100" vertex="1" connectable="0">
          <mxGeometry x="0.9059" relative="1" as="geometry">
            <mxPoint x="-18" y="-1" as="offset" />
          </mxGeometry>
        </mxCell>
        <mxCell id="AmdDYNb3q1W9D1PbskiA-103" value="&lt;div&gt;• rank: Ace, 2, 3, ... , King, Queen&lt;/div&gt;&lt;div&gt;•&lt;span style=&quot;&quot;&gt; &lt;/span&gt;suit: Spade / Heart / Diamond / Club&lt;/div&gt;&lt;div&gt;•&lt;span style=&quot;&quot;&gt; &lt;/span&gt;value: The numerical value of the card&lt;/div&gt;" style="shape=note;size=20;whiteSpace=wrap;html=1;labelBackgroundColor=none;fillColor=#182E3E;strokeColor=#FFFFFF;fontColor=#FFFFFF;" parent="1" vertex="1">
          <mxGeometry x="600" y="305" width="220" height="110" as="geometry" />
        </mxCell>
        <mxCell id="AmdDYNb3q1W9D1PbskiA-104" value="has ▶" style="html=1;verticalAlign=bottom;endArrow=none;edgeStyle=elbowEdgeStyle;elbow=vertical;curved=0;rounded=0;endFill=0;" parent="1" source="AmdDYNb3q1W9D1PbskiA-66" target="AmdDYNb3q1W9D1PbskiA-74" edge="1">
          <mxGeometry width="80" relative="1" as="geometry">
            <mxPoint x="160" y="285.31" as="sourcePoint" />
            <mxPoint x="280" y="285.31" as="targetPoint" />
          </mxGeometry>
        </mxCell>
        <mxCell id="AmdDYNb3q1W9D1PbskiA-105" value="1" style="edgeLabel;html=1;align=center;verticalAlign=middle;resizable=0;points=[];" parent="AmdDYNb3q1W9D1PbskiA-104" vertex="1" connectable="0">
          <mxGeometry x="-0.9321" y="2" relative="1" as="geometry">
            <mxPoint x="8" y="-8" as="offset" />
          </mxGeometry>
        </mxCell>
        <mxCell id="AmdDYNb3q1W9D1PbskiA-106" value="1" style="edgeLabel;html=1;align=center;verticalAlign=middle;resizable=0;points=[];" parent="AmdDYNb3q1W9D1PbskiA-104" vertex="1" connectable="0">
          <mxGeometry x="0.9059" relative="1" as="geometry">
            <mxPoint x="-15" y="-10" as="offset" />
          </mxGeometry>
        </mxCell>
        <mxCell id="AmdDYNb3q1W9D1PbskiA-107" value="has ▶" style="html=1;verticalAlign=bottom;endArrow=none;edgeStyle=elbowEdgeStyle;elbow=vertical;curved=0;rounded=0;endFill=0;" parent="1" source="AmdDYNb3q1W9D1PbskiA-66" target="AmdDYNb3q1W9D1PbskiA-80" edge="1">
          <mxGeometry width="80" relative="1" as="geometry">
            <mxPoint x="130" y="389.66999999999996" as="sourcePoint" />
            <mxPoint x="250" y="389.66999999999996" as="targetPoint" />
            <Array as="points">
              <mxPoint x="220" y="120" />
              <mxPoint x="130" y="440" />
            </Array>
          </mxGeometry>
        </mxCell>
        <mxCell id="AmdDYNb3q1W9D1PbskiA-108" value="1" style="edgeLabel;html=1;align=center;verticalAlign=middle;resizable=0;points=[];" parent="AmdDYNb3q1W9D1PbskiA-107" vertex="1" connectable="0">
          <mxGeometry x="-0.9321" y="2" relative="1" as="geometry">
            <mxPoint x="8" y="-1" as="offset" />
          </mxGeometry>
        </mxCell>
        <mxCell id="AmdDYNb3q1W9D1PbskiA-109" value="1" style="edgeLabel;html=1;align=center;verticalAlign=middle;resizable=0;points=[];" parent="AmdDYNb3q1W9D1PbskiA-107" vertex="1" connectable="0">
          <mxGeometry x="0.9059" relative="1" as="geometry">
            <mxPoint x="-10" y="-10" as="offset" />
          </mxGeometry>
        </mxCell>
        <mxCell id="AmdDYNb3q1W9D1PbskiA-110" value="bets ▶" style="html=1;verticalAlign=bottom;endArrow=none;edgeStyle=elbowEdgeStyle;elbow=vertical;curved=0;rounded=0;endFill=0;" parent="1" source="AmdDYNb3q1W9D1PbskiA-74" target="AmdDYNb3q1W9D1PbskiA-72" edge="1">
          <mxGeometry width="80" relative="1" as="geometry">
            <mxPoint x="350" y="140" as="sourcePoint" />
            <mxPoint x="525" y="312" as="targetPoint" />
          </mxGeometry>
        </mxCell>
        <mxCell id="AmdDYNb3q1W9D1PbskiA-111" value="1" style="edgeLabel;html=1;align=center;verticalAlign=middle;resizable=0;points=[];" parent="AmdDYNb3q1W9D1PbskiA-110" vertex="1" connectable="0">
          <mxGeometry x="-0.9321" y="2" relative="1" as="geometry">
            <mxPoint x="-6" y="-3" as="offset" />
          </mxGeometry>
        </mxCell>
        <mxCell id="AmdDYNb3q1W9D1PbskiA-112" value="1" style="edgeLabel;html=1;align=center;verticalAlign=middle;resizable=0;points=[];" parent="AmdDYNb3q1W9D1PbskiA-110" vertex="1" connectable="0">
          <mxGeometry x="0.9059" relative="1" as="geometry">
            <mxPoint x="6" as="offset" />
          </mxGeometry>
        </mxCell>
        <mxCell id="AmdDYNb3q1W9D1PbskiA-113" value="has ▶" style="html=1;verticalAlign=bottom;endArrow=none;edgeStyle=elbowEdgeStyle;elbow=vertical;curved=0;rounded=0;endFill=0;" parent="1" source="AmdDYNb3q1W9D1PbskiA-74" target="AmdDYNb3q1W9D1PbskiA-83" edge="1">
          <mxGeometry x="0.3333" y="-20" width="80" relative="1" as="geometry">
            <mxPoint x="420" y="380" as="sourcePoint" />
            <mxPoint x="720" y="380" as="targetPoint" />
            <Array as="points">
              <mxPoint x="520" y="380" />
              <mxPoint x="500" y="400" />
              <mxPoint x="510" y="380" />
            </Array>
            <mxPoint as="offset" />
          </mxGeometry>
        </mxCell>
        <mxCell id="AmdDYNb3q1W9D1PbskiA-114" value="1" style="edgeLabel;html=1;align=center;verticalAlign=middle;resizable=0;points=[];" parent="AmdDYNb3q1W9D1PbskiA-113" vertex="1" connectable="0">
          <mxGeometry x="-0.9321" y="2" relative="1" as="geometry">
            <mxPoint x="8" y="-8" as="offset" />
          </mxGeometry>
        </mxCell>
        <mxCell id="AmdDYNb3q1W9D1PbskiA-115" value="1" style="edgeLabel;html=1;align=center;verticalAlign=middle;resizable=0;points=[];" parent="AmdDYNb3q1W9D1PbskiA-113" vertex="1" connectable="0">
          <mxGeometry x="0.9059" relative="1" as="geometry">
            <mxPoint x="-9" y="-5" as="offset" />
          </mxGeometry>
        </mxCell>
        <mxCell id="AmdDYNb3q1W9D1PbskiA-116" value="deals ▶" style="html=1;verticalAlign=bottom;endArrow=none;edgeStyle=elbowEdgeStyle;elbow=vertical;curved=0;rounded=0;endFill=0;" parent="1" source="AmdDYNb3q1W9D1PbskiA-80" target="AmdDYNb3q1W9D1PbskiA-88" edge="1">
          <mxGeometry width="80" relative="1" as="geometry">
            <mxPoint x="420" y="110" as="sourcePoint" />
            <mxPoint x="590" y="110" as="targetPoint" />
            <Array as="points">
              <mxPoint x="670" y="100" />
              <mxPoint x="580" y="100" />
              <mxPoint x="530" y="130" />
            </Array>
          </mxGeometry>
        </mxCell>
        <mxCell id="AmdDYNb3q1W9D1PbskiA-117" value="1" style="edgeLabel;html=1;align=center;verticalAlign=middle;resizable=0;points=[];" parent="AmdDYNb3q1W9D1PbskiA-116" vertex="1" connectable="0">
          <mxGeometry x="-0.9321" y="2" relative="1" as="geometry">
            <mxPoint x="-4" y="-7" as="offset" />
          </mxGeometry>
        </mxCell>
        <mxCell id="AmdDYNb3q1W9D1PbskiA-118" value="1" style="edgeLabel;html=1;align=center;verticalAlign=middle;resizable=0;points=[];" parent="AmdDYNb3q1W9D1PbskiA-116" vertex="1" connectable="0">
          <mxGeometry x="0.9059" relative="1" as="geometry">
            <mxPoint x="-7" y="3" as="offset" />
          </mxGeometry>
        </mxCell>
        <mxCell id="AmdDYNb3q1W9D1PbskiA-119" value="has ▶" style="html=1;verticalAlign=bottom;endArrow=none;edgeStyle=elbowEdgeStyle;elbow=vertical;curved=0;rounded=0;endFill=0;" parent="1" source="AmdDYNb3q1W9D1PbskiA-80" target="AmdDYNb3q1W9D1PbskiA-92" edge="1">
          <mxGeometry width="80" relative="1" as="geometry">
            <mxPoint x="380" y="-10" as="sourcePoint" />
            <mxPoint x="570" y="-40" as="targetPoint" />
            <Array as="points">
              <mxPoint x="440" y="50" />
              <mxPoint x="520" y="-40" />
              <mxPoint x="430" y="280" />
            </Array>
          </mxGeometry>
        </mxCell>
        <mxCell id="AmdDYNb3q1W9D1PbskiA-120" value="1" style="edgeLabel;html=1;align=center;verticalAlign=middle;resizable=0;points=[];" parent="AmdDYNb3q1W9D1PbskiA-119" vertex="1" connectable="0">
          <mxGeometry x="-0.9321" y="2" relative="1" as="geometry">
            <mxPoint x="-4" y="-5" as="offset" />
          </mxGeometry>
        </mxCell>
        <mxCell id="AmdDYNb3q1W9D1PbskiA-121" value="1" style="edgeLabel;html=1;align=center;verticalAlign=middle;resizable=0;points=[];" parent="AmdDYNb3q1W9D1PbskiA-119" vertex="1" connectable="0">
          <mxGeometry x="0.9059" relative="1" as="geometry">
            <mxPoint x="-4" y="-10" as="offset" />
          </mxGeometry>
        </mxCell>
        <mxCell id="AmdDYNb3q1W9D1PbskiA-122" value="holds ▶" style="html=1;verticalAlign=bottom;endArrow=none;edgeStyle=elbowEdgeStyle;elbow=vertical;curved=0;rounded=0;endFill=0;" parent="1" source="AmdDYNb3q1W9D1PbskiA-74" target="AmdDYNb3q1W9D1PbskiA-88" edge="1">
          <mxGeometry width="80" relative="1" as="geometry">
            <mxPoint x="415" y="280" as="sourcePoint" />
            <mxPoint x="665" y="280" as="targetPoint" />
            <Array as="points">
              <mxPoint x="680" y="300" />
              <mxPoint x="510" y="290" />
              <mxPoint x="690" y="260" />
              <mxPoint x="620" y="270" />
              <mxPoint x="670" y="280" />
            </Array>
          </mxGeometry>
        </mxCell>
        <mxCell id="AmdDYNb3q1W9D1PbskiA-123" value="1" style="edgeLabel;html=1;align=center;verticalAlign=middle;resizable=0;points=[];" parent="AmdDYNb3q1W9D1PbskiA-122" vertex="1" connectable="0">
          <mxGeometry x="-0.9321" y="2" relative="1" as="geometry">
            <mxPoint x="1" y="11" as="offset" />
          </mxGeometry>
        </mxCell>
        <mxCell id="AmdDYNb3q1W9D1PbskiA-124" value="2...*" style="edgeLabel;html=1;align=center;verticalAlign=middle;resizable=0;points=[];" parent="AmdDYNb3q1W9D1PbskiA-122" vertex="1" connectable="0">
          <mxGeometry x="0.9059" relative="1" as="geometry">
            <mxPoint x="-14" y="-7" as="offset" />
          </mxGeometry>
        </mxCell>
        <mxCell id="AmdDYNb3q1W9D1PbskiA-125" value="holds ▶" style="html=1;verticalAlign=bottom;endArrow=none;edgeStyle=elbowEdgeStyle;elbow=vertical;curved=0;rounded=0;endFill=0;" parent="1" source="AmdDYNb3q1W9D1PbskiA-80" target="AmdDYNb3q1W9D1PbskiA-88" edge="1">
          <mxGeometry width="80" relative="1" as="geometry">
            <mxPoint x="420" y="310" as="sourcePoint" />
            <mxPoint x="690" y="250" as="targetPoint" />
            <Array as="points">
              <mxPoint x="570" y="150" />
              <mxPoint x="550" y="130" />
              <mxPoint x="690" y="310" />
              <mxPoint x="520" y="300" />
              <mxPoint x="700" y="270" />
              <mxPoint x="630" y="280" />
              <mxPoint x="680" y="290" />
            </Array>
          </mxGeometry>
        </mxCell>
        <mxCell id="AmdDYNb3q1W9D1PbskiA-126" value="1" style="edgeLabel;html=1;align=center;verticalAlign=middle;resizable=0;points=[];" parent="AmdDYNb3q1W9D1PbskiA-125" vertex="1" connectable="0">
          <mxGeometry x="-0.9321" y="2" relative="1" as="geometry">
            <mxPoint x="-1" y="-7" as="offset" />
          </mxGeometry>
        </mxCell>
        <mxCell id="AmdDYNb3q1W9D1PbskiA-127" value="2...*" style="edgeLabel;html=1;align=center;verticalAlign=middle;resizable=0;points=[];" parent="AmdDYNb3q1W9D1PbskiA-125" vertex="1" connectable="0">
          <mxGeometry x="0.9059" relative="1" as="geometry">
            <mxPoint x="-1" y="-9" as="offset" />
          </mxGeometry>
        </mxCell>
        <mxCell id="AmdDYNb3q1W9D1PbskiA-128" value="&lt;div&gt;additional state description&lt;/div&gt;&lt;div&gt;(1) nothing&lt;/div&gt;&lt;div&gt;(2) split&lt;/div&gt;&lt;div&gt;(3) double down&lt;/div&gt;&lt;div&gt;(4) surrender&lt;/div&gt;" style="shape=note;size=20;whiteSpace=wrap;html=1;labelBackgroundColor=none;fillColor=#182E3E;strokeColor=#FFFFFF;fontColor=#FFFFFF;align=center;" parent="1" vertex="1">
          <mxGeometry x="90" y="460" width="170" height="120" as="geometry" />
        </mxCell>
        <mxCell id="Cjm5gJZoXy9l-Yii9wx_-1" value="&lt;div&gt;&lt;b&gt;Contributers&lt;/b&gt;:&amp;nbsp;&lt;/div&gt;Jaehoon" style="whiteSpace=wrap;html=1;shape=mxgraph.basic.document" parent="1" vertex="1">
          <mxGeometry x="9" y="8" width="141" height="62" as="geometry" />
        </mxCell>
        <mxCell id="gXRJCxMvT3dNU6f-Fl0L-1" value="&lt;div&gt;game state description&lt;/div&gt;&lt;div&gt;(1) nothing&lt;/div&gt;&lt;div&gt;(2) win&lt;/div&gt;&lt;div&gt;(3) bust (lose)&lt;/div&gt;&lt;div&gt;(4) tie (draw)&lt;/div&gt;" style="shape=note;size=20;whiteSpace=wrap;html=1;labelBackgroundColor=none;fillColor=#182E3E;strokeColor=#FFFFFF;fontColor=#FFFFFF;align=center;" parent="1" vertex="1">
          <mxGeometry x="90" y="365" width="170" height="90" as="geometry" />
        </mxCell>
        <mxCell id="NX3lpK6z03712E9rUARi-3" value="&lt;div&gt; ($1) x 100 (=$100)&lt;/div&gt;&lt;div&gt;&lt;span style=&quot;&quot;&gt; &lt;/span&gt;($5) x 20 (=$100)&lt;/div&gt;&lt;div&gt;&lt;span style=&quot;&quot;&gt; &lt;/span&gt;($25) x 8 (=$200)&lt;/div&gt;&lt;div&gt;&lt;span style=&quot;&quot;&gt; &lt;/span&gt;($50) x 10 (=$500)&lt;/div&gt;&lt;div&gt;&lt;span style=&quot;&quot;&gt; &lt;/span&gt;($100) x 5 (=$500)&lt;/div&gt;&lt;div&gt;&lt;span style=&quot;&quot;&gt; &lt;/span&gt;($500) x 1 (=$500)&lt;/div&gt;&lt;div&gt;&lt;span style=&quot;&quot;&gt; &lt;/span&gt;-----------------------------&lt;/div&gt;&lt;div&gt;&lt;span style=&quot;&quot;&gt; &lt;/span&gt;total: $2000&lt;/div&gt;" style="shape=note;size=20;whiteSpace=wrap;html=1;labelBackgroundColor=none;fillColor=#182E3E;strokeColor=#FFFFFF;fontColor=#FFFFFF;align=center;" parent="1" vertex="1">
          <mxGeometry x="580" y="530" width="220" height="130" as="geometry" />
        </mxCell>
      </root>
    </mxGraphModel>
  </diagram>
  <diagram id="xglu8EIW5K_HBOuuVaQY" name="use_case_diagram">
    <mxGraphModel dx="1008" dy="690" grid="1" gridSize="10" guides="1" tooltips="1" connect="1" arrows="1" fold="1" page="1" pageScale="1" pageWidth="850" pageHeight="1100" math="0" shadow="0">
      <root>
        <mxCell id="0" />
        <mxCell id="1" parent="0" />
        <mxCell id="PuCBYhLptUQ0iqxH_bsb-1" value="&lt;div&gt;&lt;b&gt;Contributers&lt;/b&gt;:&amp;nbsp;&lt;/div&gt;Jaehoon" style="whiteSpace=wrap;html=1;shape=mxgraph.basic.document" parent="1" vertex="1">
          <mxGeometry x="9" y="8" width="141" height="62" as="geometry" />
        </mxCell>
        <mxCell id="K_ukeBp5QNFt7-gUXxgp-40" value="&lt;b&gt;&lt;br&gt;&lt;/b&gt;" style="rounded=0;whiteSpace=wrap;html=1;strokeWidth=2;" parent="1" vertex="1">
          <mxGeometry x="130" y="80" width="560" height="845" as="geometry" />
        </mxCell>
        <mxCell id="K_ukeBp5QNFt7-gUXxgp-41" style="edgeStyle=orthogonalEdgeStyle;rounded=0;orthogonalLoop=1;jettySize=auto;html=1;entryX=0;entryY=0.5;entryDx=0;entryDy=0;endArrow=none;endFill=0;fillColor=#d5e8d4;strokeColor=#82b366;" parent="1" source="K_ukeBp5QNFt7-gUXxgp-48" target="K_ukeBp5QNFt7-gUXxgp-53" edge="1">
          <mxGeometry relative="1" as="geometry">
            <Array as="points">
              <mxPoint x="160" y="170" />
              <mxPoint x="160" y="315" />
            </Array>
          </mxGeometry>
        </mxCell>
        <mxCell id="K_ukeBp5QNFt7-gUXxgp-42" style="edgeStyle=orthogonalEdgeStyle;rounded=0;orthogonalLoop=1;jettySize=auto;html=1;entryX=0;entryY=0.5;entryDx=0;entryDy=0;endArrow=none;endFill=0;fillColor=#d5e8d4;strokeColor=#82b366;" parent="1" source="K_ukeBp5QNFt7-gUXxgp-48" target="K_ukeBp5QNFt7-gUXxgp-67" edge="1">
          <mxGeometry relative="1" as="geometry">
            <Array as="points">
              <mxPoint x="260" y="170" />
              <mxPoint x="260" y="465" />
            </Array>
          </mxGeometry>
        </mxCell>
        <mxCell id="K_ukeBp5QNFt7-gUXxgp-43" style="edgeStyle=orthogonalEdgeStyle;rounded=0;orthogonalLoop=1;jettySize=auto;html=1;entryX=0;entryY=0.5;entryDx=0;entryDy=0;endArrow=none;endFill=0;" parent="1" source="K_ukeBp5QNFt7-gUXxgp-48" target="K_ukeBp5QNFt7-gUXxgp-66" edge="1">
          <mxGeometry relative="1" as="geometry">
            <Array as="points">
              <mxPoint x="140" y="170" />
              <mxPoint x="140" y="585" />
            </Array>
          </mxGeometry>
        </mxCell>
        <mxCell id="K_ukeBp5QNFt7-gUXxgp-44" style="edgeStyle=orthogonalEdgeStyle;rounded=0;orthogonalLoop=1;jettySize=auto;html=1;entryX=0;entryY=0.5;entryDx=0;entryDy=0;endArrow=none;endFill=0;" parent="1" source="K_ukeBp5QNFt7-gUXxgp-48" target="K_ukeBp5QNFt7-gUXxgp-65" edge="1">
          <mxGeometry relative="1" as="geometry">
            <Array as="points">
              <mxPoint x="140" y="170" />
              <mxPoint x="140" y="715" />
            </Array>
          </mxGeometry>
        </mxCell>
        <mxCell id="K_ukeBp5QNFt7-gUXxgp-45" style="edgeStyle=orthogonalEdgeStyle;rounded=0;orthogonalLoop=1;jettySize=auto;html=1;entryX=0;entryY=0.5;entryDx=0;entryDy=0;endArrow=none;endFill=0;fillColor=#d5e8d4;strokeColor=#82b366;" parent="1" source="K_ukeBp5QNFt7-gUXxgp-48" target="K_ukeBp5QNFt7-gUXxgp-64" edge="1">
          <mxGeometry relative="1" as="geometry">
            <Array as="points">
              <mxPoint x="300" y="170" />
              <mxPoint x="300" y="405" />
              <mxPoint x="440" y="405" />
            </Array>
          </mxGeometry>
        </mxCell>
        <mxCell id="K_ukeBp5QNFt7-gUXxgp-46" style="edgeStyle=orthogonalEdgeStyle;rounded=0;orthogonalLoop=1;jettySize=auto;html=1;entryX=0;entryY=0.5;entryDx=0;entryDy=0;endArrow=none;endFill=0;fillColor=#d5e8d4;strokeColor=#82b366;" parent="1" source="K_ukeBp5QNFt7-gUXxgp-48" target="K_ukeBp5QNFt7-gUXxgp-63" edge="1">
          <mxGeometry relative="1" as="geometry">
            <Array as="points">
              <mxPoint x="320" y="170" />
              <mxPoint x="320" y="415" />
              <mxPoint x="410" y="415" />
              <mxPoint x="410" y="645" />
            </Array>
          </mxGeometry>
        </mxCell>
        <mxCell id="K_ukeBp5QNFt7-gUXxgp-47" style="edgeStyle=orthogonalEdgeStyle;rounded=0;orthogonalLoop=1;jettySize=auto;html=1;entryX=0;entryY=0.5;entryDx=0;entryDy=0;endArrow=none;endFill=0;fillColor=#d5e8d4;strokeColor=#82b366;" parent="1" source="K_ukeBp5QNFt7-gUXxgp-48" target="K_ukeBp5QNFt7-gUXxgp-62" edge="1">
          <mxGeometry relative="1" as="geometry">
            <Array as="points">
              <mxPoint x="140" y="170" />
              <mxPoint x="140" y="795" />
            </Array>
          </mxGeometry>
        </mxCell>
        <mxCell id="K_ukeBp5QNFt7-gUXxgp-48" value="Player" style="shape=umlActor;verticalLabelPosition=bottom;verticalAlign=top;html=1;" parent="1" vertex="1">
          <mxGeometry x="47.5" y="140" width="30" height="60" as="geometry" />
        </mxCell>
        <mxCell id="K_ukeBp5QNFt7-gUXxgp-49" style="edgeStyle=orthogonalEdgeStyle;rounded=0;orthogonalLoop=1;jettySize=auto;html=1;entryX=1;entryY=0.5;entryDx=0;entryDy=0;endArrow=none;endFill=0;fillColor=#dae8fc;strokeColor=#6c8ebf;" parent="1" source="K_ukeBp5QNFt7-gUXxgp-52" target="K_ukeBp5QNFt7-gUXxgp-53" edge="1">
          <mxGeometry relative="1" as="geometry" />
        </mxCell>
        <mxCell id="K_ukeBp5QNFt7-gUXxgp-50" style="edgeStyle=orthogonalEdgeStyle;rounded=0;orthogonalLoop=1;jettySize=auto;html=1;entryX=1;entryY=0;entryDx=0;entryDy=0;endArrow=none;endFill=0;fillColor=#dae8fc;strokeColor=#6c8ebf;" parent="1" source="K_ukeBp5QNFt7-gUXxgp-52" target="K_ukeBp5QNFt7-gUXxgp-64" edge="1">
          <mxGeometry relative="1" as="geometry" />
        </mxCell>
        <mxCell id="K_ukeBp5QNFt7-gUXxgp-51" style="edgeStyle=orthogonalEdgeStyle;rounded=0;orthogonalLoop=1;jettySize=auto;html=1;entryX=1;entryY=0.5;entryDx=0;entryDy=0;endArrow=none;endFill=0;fillColor=#dae8fc;strokeColor=#6c8ebf;" parent="1" source="K_ukeBp5QNFt7-gUXxgp-52" target="K_ukeBp5QNFt7-gUXxgp-62" edge="1">
          <mxGeometry relative="1" as="geometry">
            <Array as="points">
              <mxPoint x="680" y="170" />
              <mxPoint x="680" y="795" />
            </Array>
          </mxGeometry>
        </mxCell>
        <mxCell id="K_ukeBp5QNFt7-gUXxgp-52" value="dealer" style="shape=umlActor;verticalLabelPosition=bottom;verticalAlign=top;html=1;" parent="1" vertex="1">
          <mxGeometry x="757.5" y="140" width="30" height="60" as="geometry" />
        </mxCell>
        <mxCell id="K_ukeBp5QNFt7-gUXxgp-53" value="Start Round" style="ellipse;whiteSpace=wrap;html=1;" parent="1" vertex="1">
          <mxGeometry x="345" y="285" width="120" height="60" as="geometry" />
        </mxCell>
        <mxCell id="K_ukeBp5QNFt7-gUXxgp-54" value="International Game Developers Association" style="shape=umlActor;verticalLabelPosition=bottom;verticalAlign=top;html=1;" parent="1" vertex="1">
          <mxGeometry x="310" y="995" width="30" height="60" as="geometry" />
        </mxCell>
        <mxCell id="K_ukeBp5QNFt7-gUXxgp-55" value="player 1st round&lt;br&gt;&amp;amp;&amp;amp;&lt;br&gt;has enough chips" style="whiteSpace=wrap;html=1;shape=mxgraph.basic.rectCallout;dx=30;dy=15;boundedLbl=1;dashed=1;flipH=1;flipV=1;" parent="1" vertex="1">
          <mxGeometry x="210" y="605" width="100" height="75" as="geometry" />
        </mxCell>
        <mxCell id="K_ukeBp5QNFt7-gUXxgp-56" value="&lt;b&gt;Primary Actors&lt;/b&gt;" style="text;html=1;strokeColor=none;fillColor=none;align=center;verticalAlign=middle;whiteSpace=wrap;rounded=0;fontSize=16;" parent="1" vertex="1">
          <mxGeometry y="80" width="125" height="40" as="geometry" />
        </mxCell>
        <mxCell id="K_ukeBp5QNFt7-gUXxgp-57" value="&lt;b&gt;Supporting Actors&lt;/b&gt;" style="text;html=1;strokeColor=none;fillColor=none;align=center;verticalAlign=middle;whiteSpace=wrap;rounded=0;fontSize=16;" parent="1" vertex="1">
          <mxGeometry x="700" y="80" width="145" height="40" as="geometry" />
        </mxCell>
        <mxCell id="K_ukeBp5QNFt7-gUXxgp-58" value="&lt;b&gt;Off-Stage Actors&lt;/b&gt;" style="text;html=1;strokeColor=none;fillColor=none;align=center;verticalAlign=middle;whiteSpace=wrap;rounded=0;fontSize=16;" parent="1" vertex="1">
          <mxGeometry x="331.5" y="945" width="147" height="40" as="geometry" />
        </mxCell>
        <mxCell id="K_ukeBp5QNFt7-gUXxgp-59" style="edgeStyle=orthogonalEdgeStyle;rounded=0;orthogonalLoop=1;jettySize=auto;html=1;entryX=0.5;entryY=0.5;entryDx=0;entryDy=0;entryPerimeter=0;endArrow=none;endFill=0;fillColor=#d5e8d4;strokeColor=#82b366;" parent="1" source="K_ukeBp5QNFt7-gUXxgp-60" target="K_ukeBp5QNFt7-gUXxgp-48" edge="1">
          <mxGeometry relative="1" as="geometry">
            <Array as="points">
              <mxPoint x="190" y="185" />
              <mxPoint x="190" y="170" />
            </Array>
          </mxGeometry>
        </mxCell>
        <mxCell id="K_ukeBp5QNFt7-gUXxgp-60" value="Place Bet" style="ellipse;whiteSpace=wrap;html=1;" parent="1" vertex="1">
          <mxGeometry x="345" y="155" width="120" height="60" as="geometry" />
        </mxCell>
        <mxCell id="K_ukeBp5QNFt7-gUXxgp-61" value="Casino Employee" style="shape=umlActor;verticalLabelPosition=bottom;verticalAlign=top;html=1;" parent="1" vertex="1">
          <mxGeometry x="500" y="995" width="30" height="60" as="geometry" />
        </mxCell>
        <mxCell id="K_ukeBp5QNFt7-gUXxgp-62" value="End&lt;br/&gt;Round" style="ellipse;whiteSpace=wrap;html=1;" parent="1" vertex="1">
          <mxGeometry x="345" y="765" width="120" height="60" as="geometry" />
        </mxCell>
        <mxCell id="K_ukeBp5QNFt7-gUXxgp-63" value="Surrender" style="ellipse;whiteSpace=wrap;html=1;" parent="1" vertex="1">
          <mxGeometry x="530" y="615" width="120" height="60" as="geometry" />
        </mxCell>
        <mxCell id="K_ukeBp5QNFt7-gUXxgp-64" value="Stand" style="ellipse;whiteSpace=wrap;html=1;" parent="1" vertex="1">
          <mxGeometry x="440" y="435" width="120" height="60" as="geometry" />
        </mxCell>
        <mxCell id="K_ukeBp5QNFt7-gUXxgp-65" value="Double Down" style="ellipse;whiteSpace=wrap;html=1;" parent="1" vertex="1">
          <mxGeometry x="255" y="685" width="120" height="60" as="geometry" />
        </mxCell>
        <mxCell id="K_ukeBp5QNFt7-gUXxgp-66" value="Split" style="ellipse;whiteSpace=wrap;html=1;" parent="1" vertex="1">
          <mxGeometry x="150" y="555" width="120" height="60" as="geometry" />
        </mxCell>
        <mxCell id="K_ukeBp5QNFt7-gUXxgp-67" value="Hit" style="ellipse;whiteSpace=wrap;html=1;" parent="1" vertex="1">
          <mxGeometry x="280" y="435" width="120" height="60" as="geometry" />
        </mxCell>
        <mxCell id="K_ukeBp5QNFt7-gUXxgp-68" value="&amp;lt;&amp;lt; extend &amp;gt;&amp;gt;" style="endArrow=open;endSize=12;dashed=1;html=1;rounded=0;" parent="1" source="K_ukeBp5QNFt7-gUXxgp-66" target="K_ukeBp5QNFt7-gUXxgp-67" edge="1">
          <mxGeometry y="8" width="160" relative="1" as="geometry">
            <mxPoint x="425" y="776" as="sourcePoint" />
            <mxPoint x="376" y="645" as="targetPoint" />
            <mxPoint as="offset" />
          </mxGeometry>
        </mxCell>
        <mxCell id="K_ukeBp5QNFt7-gUXxgp-69" value="&amp;lt;&amp;lt; extend &amp;gt;&amp;gt;" style="endArrow=open;endSize=12;dashed=1;html=1;rounded=0;" parent="1" source="K_ukeBp5QNFt7-gUXxgp-65" target="K_ukeBp5QNFt7-gUXxgp-67" edge="1">
          <mxGeometry y="8" width="160" relative="1" as="geometry">
            <mxPoint x="344" y="806" as="sourcePoint" />
            <mxPoint x="396" y="694" as="targetPoint" />
            <mxPoint as="offset" />
          </mxGeometry>
        </mxCell>
        <mxCell id="K_ukeBp5QNFt7-gUXxgp-70" value="player 1st round&lt;br&gt;&amp;amp;&amp;amp; &lt;br&gt;the same rank&lt;br&gt;&amp;amp;&amp;amp;&lt;br&gt;has enough chips" style="whiteSpace=wrap;html=1;shape=mxgraph.basic.rectCallout;dx=30;dy=15;boundedLbl=1;dashed=1;flipH=1;" parent="1" vertex="1">
          <mxGeometry x="155" y="400" width="100" height="105" as="geometry" />
        </mxCell>
        <mxCell id="K_ukeBp5QNFt7-gUXxgp-71" value="&amp;lt;&amp;lt; extend &amp;gt;&amp;gt;" style="endArrow=open;endSize=12;dashed=1;html=1;rounded=0;" parent="1" source="K_ukeBp5QNFt7-gUXxgp-63" target="K_ukeBp5QNFt7-gUXxgp-64" edge="1">
          <mxGeometry y="8" width="160" relative="1" as="geometry">
            <mxPoint x="395" y="605" as="sourcePoint" />
            <mxPoint x="355" y="495" as="targetPoint" />
            <mxPoint as="offset" />
          </mxGeometry>
        </mxCell>
        <mxCell id="K_ukeBp5QNFt7-gUXxgp-72" value="&amp;lt;&amp;lt; include &amp;gt;&amp;gt;" style="endArrow=open;endSize=12;dashed=1;html=1;rounded=0;" parent="1" source="K_ukeBp5QNFt7-gUXxgp-64" target="K_ukeBp5QNFt7-gUXxgp-62" edge="1">
          <mxGeometry x="0.5364" y="9" width="160" relative="1" as="geometry">
            <mxPoint x="353" y="534" as="sourcePoint" />
            <mxPoint x="430" y="655" as="targetPoint" />
            <mxPoint as="offset" />
          </mxGeometry>
        </mxCell>
        <mxCell id="K_ukeBp5QNFt7-gUXxgp-73" value="(player can freely decide)" style="whiteSpace=wrap;html=1;shape=mxgraph.basic.rectCallout;dx=30;dy=15;boundedLbl=1;dashed=1;flipH=0;flipV=0;" parent="1" vertex="1">
          <mxGeometry x="560" y="495" width="100" height="60" as="geometry" />
        </mxCell>
        <mxCell id="K_ukeBp5QNFt7-gUXxgp-74" value="&amp;lt;&amp;lt; include &amp;gt;&amp;gt;" style="endArrow=open;endSize=12;dashed=1;html=1;rounded=0;" parent="1" source="K_ukeBp5QNFt7-gUXxgp-60" target="K_ukeBp5QNFt7-gUXxgp-53" edge="1">
          <mxGeometry y="8" width="160" relative="1" as="geometry">
            <mxPoint x="230" y="305" as="sourcePoint" />
            <mxPoint x="345" y="340" as="targetPoint" />
            <mxPoint as="offset" />
          </mxGeometry>
        </mxCell>
        <mxCell id="K_ukeBp5QNFt7-gUXxgp-75" value="&amp;lt;&amp;lt; include &amp;gt;&amp;gt;" style="endArrow=open;endSize=12;dashed=1;html=1;rounded=0;" parent="1" source="K_ukeBp5QNFt7-gUXxgp-53" target="K_ukeBp5QNFt7-gUXxgp-67" edge="1">
          <mxGeometry x="-0.441" y="-12" width="160" relative="1" as="geometry">
            <mxPoint x="415" y="225" as="sourcePoint" />
            <mxPoint x="415" y="295" as="targetPoint" />
            <mxPoint as="offset" />
          </mxGeometry>
        </mxCell>
        <mxCell id="K_ukeBp5QNFt7-gUXxgp-76" value="&amp;lt;&amp;lt; include &amp;gt;&amp;gt;" style="endArrow=open;endSize=12;dashed=1;html=1;rounded=0;" parent="1" source="K_ukeBp5QNFt7-gUXxgp-53" target="K_ukeBp5QNFt7-gUXxgp-64" edge="1">
          <mxGeometry y="8" width="160" relative="1" as="geometry">
            <mxPoint x="402" y="354" as="sourcePoint" />
            <mxPoint x="363" y="446" as="targetPoint" />
            <mxPoint as="offset" />
          </mxGeometry>
        </mxCell>
        <mxCell id="K_ukeBp5QNFt7-gUXxgp-77" style="edgeStyle=orthogonalEdgeStyle;rounded=0;orthogonalLoop=1;jettySize=auto;html=1;entryX=0;entryY=0.5;entryDx=0;entryDy=0;endArrow=none;endFill=0;fillColor=#d5e8d4;strokeColor=#82b366;" parent="1" edge="1">
          <mxGeometry relative="1" as="geometry">
            <mxPoint x="78" y="170" as="sourcePoint" />
            <mxPoint x="150" y="585" as="targetPoint" />
            <Array as="points">
              <mxPoint x="140" y="170" />
              <mxPoint x="140" y="585" />
            </Array>
          </mxGeometry>
        </mxCell>
        <mxCell id="K_ukeBp5QNFt7-gUXxgp-78" style="edgeStyle=orthogonalEdgeStyle;rounded=0;orthogonalLoop=1;jettySize=auto;html=1;entryX=0;entryY=0.5;entryDx=0;entryDy=0;endArrow=none;endFill=0;fillColor=#d5e8d4;strokeColor=#82b366;" parent="1" edge="1">
          <mxGeometry relative="1" as="geometry">
            <mxPoint x="78" y="170" as="sourcePoint" />
            <mxPoint x="255" y="715" as="targetPoint" />
            <Array as="points">
              <mxPoint x="140" y="170" />
              <mxPoint x="140" y="715" />
            </Array>
          </mxGeometry>
        </mxCell>
        <mxCell id="BNMiUqAtDX-krv0BUjJT-1" value="&lt;b&gt;System&lt;/b&gt;" style="text;html=1;strokeColor=none;fillColor=none;align=center;verticalAlign=middle;whiteSpace=wrap;rounded=0;fontSize=16;" parent="1" vertex="1">
          <mxGeometry x="337.5" y="80" width="145" height="40" as="geometry" />
        </mxCell>
      </root>
    </mxGraphModel>
  </diagram>
  <diagram id="wdQ01RTTtPxrJhiSHaEo" name="sequence_diagram">
    <mxGraphModel dx="960" dy="657" grid="1" gridSize="10" guides="1" tooltips="1" connect="0" arrows="1" fold="1" page="1" pageScale="1" pageWidth="850" pageHeight="1100" math="0" shadow="0">
      <root>
        <mxCell id="0" />
        <mxCell id="1" parent="0" />
        <mxCell id="OI8XTInNt0Rht5a6-ZcJ-1" value="&lt;div&gt;&lt;b&gt;Contributers&lt;/b&gt;:&amp;nbsp;&lt;/div&gt;Jaehoon" style="whiteSpace=wrap;html=1;shape=mxgraph.basic.document" parent="1" vertex="1">
          <mxGeometry x="9" y="8" width="141" height="62" as="geometry" />
        </mxCell>
        <mxCell id="xD3pXHhlgfZhU9Cqcj9g-7" value="&lt;div&gt;&lt;b&gt;Contributers&lt;/b&gt;:&amp;nbsp;&lt;/div&gt;Jaehoon &amp;amp; Ryan" style="whiteSpace=wrap;html=1;shape=mxgraph.basic.document" parent="1" vertex="1">
          <mxGeometry x="9" y="2210" width="141" height="62" as="geometry" />
        </mxCell>
        <mxCell id="xD3pXHhlgfZhU9Cqcj9g-11" value="&lt;div&gt;&lt;b&gt;Contributers&lt;/b&gt;:&amp;nbsp;&lt;/div&gt;Jaehoon" style="whiteSpace=wrap;html=1;shape=mxgraph.basic.document" parent="1" vertex="1">
          <mxGeometry x="9" y="3310" width="141" height="62" as="geometry" />
        </mxCell>
        <mxCell id="xD3pXHhlgfZhU9Cqcj9g-13" value="&lt;div&gt;&lt;b&gt;Contributers&lt;/b&gt;:&amp;nbsp;&lt;/div&gt;Jaehoon" style="whiteSpace=wrap;html=1;shape=mxgraph.basic.document" parent="1" vertex="1">
          <mxGeometry x="9" y="4410" width="141" height="62" as="geometry" />
        </mxCell>
        <mxCell id="io6AJ3inkhHG0oqsFMTY-27" value="&lt;b&gt;Use Case&lt;/b&gt;:&amp;nbsp;Hit" style="rounded=1;whiteSpace=wrap;html=1;fontSize=20;" parent="1" vertex="1">
          <mxGeometry x="323" y="20" width="225" height="60" as="geometry" />
        </mxCell>
        <mxCell id="io6AJ3inkhHG0oqsFMTY-28" value="&lt;b&gt;Use Case&lt;/b&gt;: DoubleDown" style="rounded=1;whiteSpace=wrap;html=1;fontSize=20;" parent="1" vertex="1">
          <mxGeometry x="323" y="2222" width="225" height="60" as="geometry" />
        </mxCell>
        <mxCell id="io6AJ3inkhHG0oqsFMTY-29" value="&lt;b&gt;Use Case&lt;/b&gt;:Split" style="rounded=1;whiteSpace=wrap;html=1;fontSize=20;" parent="1" vertex="1">
          <mxGeometry x="323" y="1122" width="225" height="60" as="geometry" />
        </mxCell>
        <mxCell id="io6AJ3inkhHG0oqsFMTY-30" value="&lt;b&gt;Use Case&lt;/b&gt;:Stand" style="rounded=1;whiteSpace=wrap;html=1;fontSize=20;" parent="1" vertex="1">
          <mxGeometry x="323" y="3322" width="225" height="60" as="geometry" />
        </mxCell>
        <mxCell id="io6AJ3inkhHG0oqsFMTY-31" value="&lt;b&gt;Use Case&lt;/b&gt;: Surrender" style="rounded=1;whiteSpace=wrap;html=1;fontSize=20;" parent="1" vertex="1">
          <mxGeometry x="323" y="4422" width="225" height="60" as="geometry" />
        </mxCell>
        <mxCell id="io6AJ3inkhHG0oqsFMTY-37" value=":Player&lt;br&gt;&lt;br&gt;&lt;br&gt;&lt;br&gt;&lt;br&gt;&lt;br&gt;" style="shape=umlLifeline;perimeter=lifelinePerimeter;whiteSpace=wrap;html=1;container=1;dropTarget=0;collapsible=0;recursiveResize=0;outlineConnect=0;portConstraint=eastwest;newEdgeStyle={&quot;edgeStyle&quot;:&quot;elbowEdgeStyle&quot;,&quot;elbow&quot;:&quot;vertical&quot;,&quot;curved&quot;:0,&quot;rounded&quot;:0};participant=umlActor;" parent="1" vertex="1">
          <mxGeometry x="143.88" y="300" width="20" height="580" as="geometry" />
        </mxCell>
        <mxCell id="ea7vZ4sFW7_QIjVYNMty-1" value="" style="html=1;points=[];perimeter=orthogonalPerimeter;outlineConnect=0;targetShapes=umlLifeline;portConstraint=eastwest;newEdgeStyle={&quot;edgeStyle&quot;:&quot;elbowEdgeStyle&quot;,&quot;elbow&quot;:&quot;vertical&quot;,&quot;curved&quot;:0,&quot;rounded&quot;:0};" vertex="1" parent="io6AJ3inkhHG0oqsFMTY-37">
          <mxGeometry x="4.349999999999994" y="430.15999999999997" width="11.3" height="24.01" as="geometry" />
        </mxCell>
        <mxCell id="nxEybNQ23JghIIL4d0KX-1" value="" style="html=1;points=[];perimeter=orthogonalPerimeter;outlineConnect=0;targetShapes=umlLifeline;portConstraint=eastwest;newEdgeStyle={&quot;edgeStyle&quot;:&quot;elbowEdgeStyle&quot;,&quot;elbow&quot;:&quot;vertical&quot;,&quot;curved&quot;:0,&quot;rounded&quot;:0};" vertex="1" parent="io6AJ3inkhHG0oqsFMTY-37">
          <mxGeometry x="4.350000000000023" y="510" width="11.3" height="29.85" as="geometry" />
        </mxCell>
        <mxCell id="ea7vZ4sFW7_QIjVYNMty-3" value="" style="html=1;points=[];perimeter=orthogonalPerimeter;outlineConnect=0;targetShapes=umlLifeline;portConstraint=eastwest;newEdgeStyle={&quot;edgeStyle&quot;:&quot;elbowEdgeStyle&quot;,&quot;elbow&quot;:&quot;vertical&quot;,&quot;curved&quot;:0,&quot;rounded&quot;:0};" vertex="1" parent="io6AJ3inkhHG0oqsFMTY-37">
          <mxGeometry x="4.349999999999994" y="350.11" width="11.3" height="22.46" as="geometry" />
        </mxCell>
        <mxCell id="AQPu5HcKGOem1pKs6l_m-4" value="" style="html=1;points=[];perimeter=orthogonalPerimeter;outlineConnect=0;targetShapes=umlLifeline;portConstraint=eastwest;newEdgeStyle={&quot;edgeStyle&quot;:&quot;elbowEdgeStyle&quot;,&quot;elbow&quot;:&quot;vertical&quot;,&quot;curved&quot;:0,&quot;rounded&quot;:0};" vertex="1" parent="io6AJ3inkhHG0oqsFMTY-37">
          <mxGeometry x="5.650000000000006" y="230" width="10" height="20" as="geometry" />
        </mxCell>
        <mxCell id="io6AJ3inkhHG0oqsFMTY-38" value=":Game&lt;span style=&quot;font-size:11.0pt;line-height:107%;font-family:&amp;quot;Calibri&amp;quot;,sans-serif;&lt;br/&gt;mso-ascii-theme-font:minor-latin;mso-fareast-font-family:&amp;quot;Yu Mincho&amp;quot;;&lt;br/&gt;mso-fareast-theme-font:minor-fareast;mso-hansi-theme-font:minor-latin;&lt;br/&gt;mso-bidi-font-family:&amp;quot;Times New Roman&amp;quot;;mso-bidi-theme-font:minor-bidi;&lt;br/&gt;mso-font-kerning:0pt;mso-ligatures:none;mso-ansi-language:EN-US;mso-fareast-language:&lt;br/&gt;JA;mso-bidi-language:AR-SA&quot;&gt;&lt;/span&gt;" style="shape=umlLifeline;perimeter=lifelinePerimeter;whiteSpace=wrap;html=1;container=1;dropTarget=0;collapsible=0;recursiveResize=0;outlineConnect=0;portConstraint=eastwest;newEdgeStyle={&quot;edgeStyle&quot;:&quot;elbowEdgeStyle&quot;,&quot;elbow&quot;:&quot;vertical&quot;,&quot;curved&quot;:0,&quot;rounded&quot;:0};" parent="1" vertex="1">
          <mxGeometry x="260.88" y="280" width="100" height="600" as="geometry" />
        </mxCell>
        <mxCell id="20wduGAG27phjWjpJIrC-1" value="" style="html=1;points=[];perimeter=orthogonalPerimeter;outlineConnect=0;targetShapes=umlLifeline;portConstraint=eastwest;newEdgeStyle={&quot;edgeStyle&quot;:&quot;elbowEdgeStyle&quot;,&quot;elbow&quot;:&quot;vertical&quot;,&quot;curved&quot;:0,&quot;rounded&quot;:0};" vertex="1" parent="io6AJ3inkhHG0oqsFMTY-38">
          <mxGeometry x="45.00999999999999" y="70" width="10" height="10" as="geometry" />
        </mxCell>
        <mxCell id="io6AJ3inkhHG0oqsFMTY-40" value=":Dealer" style="shape=umlLifeline;perimeter=lifelinePerimeter;whiteSpace=wrap;html=1;container=1;dropTarget=0;collapsible=0;recursiveResize=0;outlineConnect=0;portConstraint=eastwest;newEdgeStyle={&quot;edgeStyle&quot;:&quot;elbowEdgeStyle&quot;,&quot;elbow&quot;:&quot;vertical&quot;,&quot;curved&quot;:0,&quot;rounded&quot;:0};" parent="1" vertex="1">
          <mxGeometry x="513.88" y="280" width="100" height="600" as="geometry" />
        </mxCell>
        <mxCell id="AQPu5HcKGOem1pKs6l_m-1" value="" style="html=1;points=[];perimeter=orthogonalPerimeter;outlineConnect=0;targetShapes=umlLifeline;portConstraint=eastwest;newEdgeStyle={&quot;edgeStyle&quot;:&quot;elbowEdgeStyle&quot;,&quot;elbow&quot;:&quot;vertical&quot;,&quot;curved&quot;:0,&quot;rounded&quot;:0};" vertex="1" parent="io6AJ3inkhHG0oqsFMTY-40">
          <mxGeometry x="45" y="70" width="10" height="180" as="geometry" />
        </mxCell>
        <mxCell id="zBhzL_NfLA6_7Fps8G_Y-1" value=":Deck" style="shape=umlLifeline;perimeter=lifelinePerimeter;whiteSpace=wrap;html=1;container=1;dropTarget=0;collapsible=0;recursiveResize=0;outlineConnect=0;portConstraint=eastwest;newEdgeStyle={&quot;edgeStyle&quot;:&quot;elbowEdgeStyle&quot;,&quot;elbow&quot;:&quot;vertical&quot;,&quot;curved&quot;:0,&quot;rounded&quot;:0};" parent="1" vertex="1">
          <mxGeometry x="639.38" y="280" width="100" height="600" as="geometry" />
        </mxCell>
        <mxCell id="YcIA81xpqAxRIVdiRe4--5" value="&lt;div&gt;&lt;b&gt;Contributers&lt;/b&gt;:&amp;nbsp;&lt;/div&gt;Jaehoon" style="whiteSpace=wrap;html=1;shape=mxgraph.basic.document" parent="1" vertex="1">
          <mxGeometry x="9" y="1110" width="141" height="62" as="geometry" />
        </mxCell>
        <mxCell id="xV6E1DVki9B6BM9e45An-1" value="playerHand:Hand" style="shape=umlLifeline;perimeter=lifelinePerimeter;whiteSpace=wrap;html=1;container=1;dropTarget=0;collapsible=0;recursiveResize=0;outlineConnect=0;portConstraint=eastwest;newEdgeStyle={&quot;edgeStyle&quot;:&quot;elbowEdgeStyle&quot;,&quot;elbow&quot;:&quot;vertical&quot;,&quot;curved&quot;:0,&quot;rounded&quot;:0};" vertex="1" parent="1">
          <mxGeometry x="397.88" y="280" width="100" height="600" as="geometry" />
        </mxCell>
        <mxCell id="bBU4iPKKPs8yPAen-k5F-1" value="" style="html=1;points=[];perimeter=orthogonalPerimeter;outlineConnect=0;targetShapes=umlLifeline;portConstraint=eastwest;newEdgeStyle={&quot;edgeStyle&quot;:&quot;elbowEdgeStyle&quot;,&quot;elbow&quot;:&quot;vertical&quot;,&quot;curved&quot;:0,&quot;rounded&quot;:0};" vertex="1" parent="xV6E1DVki9B6BM9e45An-1">
          <mxGeometry x="46" y="280" width="10" height="20" as="geometry" />
        </mxCell>
        <mxCell id="sahnQdc4N0tzb_4Ph3Nd-1" value="" style="group" vertex="1" connectable="0" parent="1">
          <mxGeometry x="75.5" y="600" width="720" height="280" as="geometry" />
        </mxCell>
        <mxCell id="8dXNY81btiB4z_aBLE0X-1" value="&lt;b&gt;alt&lt;/b&gt;" style="shape=umlFrame;whiteSpace=wrap;html=1;pointerEvents=0;width=70;height=30;" vertex="1" parent="sahnQdc4N0tzb_4Ph3Nd-1">
          <mxGeometry width="720" height="84.16666666666667" as="geometry" />
        </mxCell>
        <mxCell id="8dXNY81btiB4z_aBLE0X-2" value="" style="shape=umlFrame;whiteSpace=wrap;html=1;pointerEvents=0;width=10;height=15;" vertex="1" parent="sahnQdc4N0tzb_4Ph3Nd-1">
          <mxGeometry y="84.16666666666667" width="720" height="84.16666666666667" as="geometry" />
        </mxCell>
        <mxCell id="8dXNY81btiB4z_aBLE0X-5" value="" style="shape=umlFrame;whiteSpace=wrap;html=1;pointerEvents=0;width=10;height=15;" vertex="1" parent="sahnQdc4N0tzb_4Ph3Nd-1">
          <mxGeometry y="168.33333333333334" width="720" height="84.16666666666667" as="geometry" />
        </mxCell>
        <mxCell id="8dXNY81btiB4z_aBLE0X-3" value="[player&#39;s total exceeds 21]" style="text;html=1;align=center;verticalAlign=middle;resizable=0;points=[];autosize=1;strokeColor=none;fillColor=none;" vertex="1" parent="sahnQdc4N0tzb_4Ph3Nd-1">
          <mxGeometry x="68.77762120232708" width="160" height="30" as="geometry" />
        </mxCell>
        <mxCell id="sahnQdc4N0tzb_4Ph3Nd-3" value="[player&#39;s total is 21]" style="text;html=1;align=center;verticalAlign=middle;resizable=0;points=[];autosize=1;strokeColor=none;fillColor=none;" vertex="1" parent="sahnQdc4N0tzb_4Ph3Nd-1">
          <mxGeometry x="68.78209529965832" y="84.16666666666667" width="130" height="30" as="geometry" />
        </mxCell>
        <mxCell id="sahnQdc4N0tzb_4Ph3Nd-4" value="[player&#39;s total is less than 21]" style="text;html=1;align=center;verticalAlign=middle;resizable=0;points=[];autosize=1;strokeColor=none;fillColor=none;" vertex="1" parent="sahnQdc4N0tzb_4Ph3Nd-1">
          <mxGeometry x="38.38016437344169" y="168.33333333333334" width="180" height="30" as="geometry" />
        </mxCell>
        <mxCell id="ea7vZ4sFW7_QIjVYNMty-4" value="setGameState(3)" style="html=1;verticalAlign=bottom;startArrow=none;endArrow=open;startSize=8;edgeStyle=elbowEdgeStyle;elbow=vertical;curved=0;rounded=0;startFill=0;endFill=0;" edge="1" parent="sahnQdc4N0tzb_4Ph3Nd-1" target="ea7vZ4sFW7_QIjVYNMty-3">
          <mxGeometry relative="1" as="geometry">
            <mxPoint x="232.21455259026686" y="50.150493827160496" as="sourcePoint" />
          </mxGeometry>
        </mxCell>
        <mxCell id="ea7vZ4sFW7_QIjVYNMty-2" value="setGameState(2)" style="html=1;verticalAlign=bottom;startArrow=none;endArrow=open;startSize=8;edgeStyle=elbowEdgeStyle;elbow=vertical;curved=0;rounded=0;startFill=0;endFill=0;" edge="1" parent="sahnQdc4N0tzb_4Ph3Nd-1" target="ea7vZ4sFW7_QIjVYNMty-1">
          <mxGeometry relative="1" as="geometry">
            <mxPoint x="237.50455259026688" y="130.15765432098766" as="sourcePoint" />
          </mxGeometry>
        </mxCell>
        <mxCell id="nxEybNQ23JghIIL4d0KX-2" value="setGameState(1)" style="html=1;verticalAlign=bottom;startArrow=none;endArrow=open;startSize=8;edgeStyle=elbowEdgeStyle;elbow=vertical;curved=0;rounded=0;startFill=0;endFill=0;" edge="1" parent="sahnQdc4N0tzb_4Ph3Nd-1" target="nxEybNQ23JghIIL4d0KX-1">
          <mxGeometry relative="1" as="geometry">
            <mxPoint x="236.09262166405028" y="210.0043209876544" as="sourcePoint" />
          </mxGeometry>
        </mxCell>
        <mxCell id="bmDj-WJkDchAQwannBa1-1" value="" style="html=1;points=[];perimeter=orthogonalPerimeter;outlineConnect=0;targetShapes=umlLifeline;portConstraint=eastwest;newEdgeStyle={&quot;edgeStyle&quot;:&quot;elbowEdgeStyle&quot;,&quot;elbow&quot;:&quot;vertical&quot;,&quot;curved&quot;:0,&quot;rounded&quot;:0};" vertex="1" parent="1">
          <mxGeometry x="683.38" y="395" width="10" height="80" as="geometry" />
        </mxCell>
        <mxCell id="bmDj-WJkDchAQwannBa1-2" value="drawCard()" style="html=1;verticalAlign=bottom;endArrow=block;edgeStyle=elbowEdgeStyle;elbow=vertical;curved=0;rounded=0;" edge="1" parent="1" target="bmDj-WJkDchAQwannBa1-1">
          <mxGeometry relative="1" as="geometry">
            <mxPoint x="563.6903448275863" y="395" as="sourcePoint" />
            <Array as="points">
              <mxPoint x="633.88" y="395" />
            </Array>
            <mxPoint as="offset" />
          </mxGeometry>
        </mxCell>
        <mxCell id="bmDj-WJkDchAQwannBa1-3" value="card" style="html=1;verticalAlign=bottom;endArrow=open;dashed=1;endSize=8;edgeStyle=elbowEdgeStyle;elbow=vertical;curved=0;rounded=0;" edge="1" parent="1" source="bmDj-WJkDchAQwannBa1-1">
          <mxGeometry x="-0.002" relative="1" as="geometry">
            <mxPoint x="563.6903448275863" y="470" as="targetPoint" />
            <Array as="points">
              <mxPoint x="643.88" y="470" />
            </Array>
            <mxPoint as="offset" />
          </mxGeometry>
        </mxCell>
        <mxCell id="AQPu5HcKGOem1pKs6l_m-3" value="card" style="html=1;verticalAlign=bottom;endArrow=open;dashed=1;endSize=8;edgeStyle=elbowEdgeStyle;elbow=vertical;curved=0;rounded=0;" edge="1" parent="1" source="AQPu5HcKGOem1pKs6l_m-1" target="io6AJ3inkhHG0oqsFMTY-38">
          <mxGeometry relative="1" as="geometry">
            <mxPoint x="488.88" y="425" as="targetPoint" />
            <Array as="points">
              <mxPoint x="513.88" y="530" />
            </Array>
          </mxGeometry>
        </mxCell>
        <mxCell id="bBU4iPKKPs8yPAen-k5F-2" value="addCard(card)" style="html=1;verticalAlign=bottom;startArrow=none;endArrow=open;startSize=8;edgeStyle=elbowEdgeStyle;elbow=vertical;curved=0;rounded=0;startFill=0;endFill=0;" edge="1" parent="1" target="bBU4iPKKPs8yPAen-k5F-1" source="io6AJ3inkhHG0oqsFMTY-37">
          <mxGeometry relative="1" as="geometry">
            <mxPoint x="383.88" y="560" as="sourcePoint" />
          </mxGeometry>
        </mxCell>
        <mxCell id="AQPu5HcKGOem1pKs6l_m-5" value="getHand(card)" style="html=1;verticalAlign=bottom;startArrow=none;endArrow=open;startSize=8;edgeStyle=elbowEdgeStyle;elbow=vertical;curved=0;rounded=0;startFill=0;endFill=0;" edge="1" parent="1" target="AQPu5HcKGOem1pKs6l_m-4" source="io6AJ3inkhHG0oqsFMTY-38">
          <mxGeometry relative="1" as="geometry">
            <mxPoint x="83.88" y="540" as="sourcePoint" />
          </mxGeometry>
        </mxCell>
        <mxCell id="XRCvlEb7QdBW1ou8b3zP-1" value="" style="group" vertex="1" connectable="0" parent="1">
          <mxGeometry x="75" y="1600" width="700" height="400" as="geometry" />
        </mxCell>
        <mxCell id="XRCvlEb7QdBW1ou8b3zP-2" value="&lt;b&gt;opt&lt;/b&gt;" style="shape=umlFrame;whiteSpace=wrap;html=1;pointerEvents=0;" vertex="1" parent="XRCvlEb7QdBW1ou8b3zP-1">
          <mxGeometry width="700" height="250" as="geometry" />
        </mxCell>
        <mxCell id="XRCvlEb7QdBW1ou8b3zP-3" value="[two cards same value &amp;amp;&amp;amp;can double bet]" style="text;html=1;align=center;verticalAlign=middle;resizable=0;points=[];autosize=1;strokeColor=none;fillColor=none;" vertex="1" parent="XRCvlEb7QdBW1ou8b3zP-1">
          <mxGeometry x="79.99705882352939" width="240" height="30" as="geometry" />
        </mxCell>
        <mxCell id="b5veIQXKvb8qaDB1VbYx-1" value="playerHand2:Hand&lt;span style=&quot;font-size:11.0pt;line-height:107%;font-family:&amp;quot;Calibri&amp;quot;,sans-serif;&lt;br/&gt;mso-ascii-theme-font:minor-latin;mso-fareast-font-family:&amp;quot;Yu Mincho&amp;quot;;&lt;br/&gt;mso-fareast-theme-font:minor-fareast;mso-hansi-theme-font:minor-latin;&lt;br/&gt;mso-bidi-font-family:&amp;quot;Times New Roman&amp;quot;;mso-bidi-theme-font:minor-bidi;&lt;br/&gt;mso-font-kerning:0pt;mso-ligatures:none;mso-ansi-language:EN-US;mso-fareast-language:&lt;br/&gt;JA;mso-bidi-language:AR-SA&quot;&gt;&lt;/span&gt;" style="shape=umlLifeline;perimeter=lifelinePerimeter;whiteSpace=wrap;html=1;container=1;dropTarget=0;collapsible=0;recursiveResize=0;outlineConnect=0;portConstraint=eastwest;newEdgeStyle={&quot;edgeStyle&quot;:&quot;elbowEdgeStyle&quot;,&quot;elbow&quot;:&quot;vertical&quot;,&quot;curved&quot;:0,&quot;rounded&quot;:0};" vertex="1" parent="XRCvlEb7QdBW1ou8b3zP-1">
          <mxGeometry x="120" y="130" width="100" height="270" as="geometry" />
        </mxCell>
        <mxCell id="b5veIQXKvb8qaDB1VbYx-2" value="new" style="html=1;verticalAlign=bottom;endArrow=block;edgeStyle=elbowEdgeStyle;elbow=vertical;curved=0;rounded=0;" edge="1" parent="XRCvlEb7QdBW1ou8b3zP-1">
          <mxGeometry relative="1" as="geometry">
            <mxPoint x="80" y="150" as="sourcePoint" />
            <mxPoint x="120" y="150" as="targetPoint" />
          </mxGeometry>
        </mxCell>
        <mxCell id="DDJMyOzurcdNRgvI6IFp-1" value="" style="group" vertex="1" connectable="0" parent="XRCvlEb7QdBW1ou8b3zP-1">
          <mxGeometry x="10" y="50" width="680" height="60" as="geometry" />
        </mxCell>
        <mxCell id="DDJMyOzurcdNRgvI6IFp-2" value="Hit (playerHand)" style="rounded=0;whiteSpace=wrap;html=1;" vertex="1" parent="DDJMyOzurcdNRgvI6IFp-1">
          <mxGeometry width="680" height="60" as="geometry" />
        </mxCell>
        <mxCell id="DDJMyOzurcdNRgvI6IFp-3" value="&lt;b&gt;ref&lt;/b&gt;" style="shape=umlFrame;whiteSpace=wrap;html=1;pointerEvents=0;" vertex="1" parent="DDJMyOzurcdNRgvI6IFp-1">
          <mxGeometry width="680" height="60" as="geometry" />
        </mxCell>
        <mxCell id="DDJMyOzurcdNRgvI6IFp-12" value="" style="group" vertex="1" connectable="0" parent="XRCvlEb7QdBW1ou8b3zP-1">
          <mxGeometry x="10" y="180" width="680" height="60" as="geometry" />
        </mxCell>
        <mxCell id="DDJMyOzurcdNRgvI6IFp-13" value="Hit (playerHand2)" style="rounded=0;whiteSpace=wrap;html=1;" vertex="1" parent="DDJMyOzurcdNRgvI6IFp-12">
          <mxGeometry width="680" height="60" as="geometry" />
        </mxCell>
        <mxCell id="DDJMyOzurcdNRgvI6IFp-14" value="&lt;b&gt;ref&lt;/b&gt;" style="shape=umlFrame;whiteSpace=wrap;html=1;pointerEvents=0;" vertex="1" parent="DDJMyOzurcdNRgvI6IFp-12">
          <mxGeometry width="680" height="60" as="geometry" />
        </mxCell>
        <mxCell id="8iGwPbnOn8LscL3MnUIy-28" value=":Player&lt;br&gt;&lt;br&gt;&lt;br&gt;&lt;br&gt;&lt;br&gt;&lt;br&gt;" style="shape=umlLifeline;perimeter=lifelinePerimeter;whiteSpace=wrap;html=1;container=1;dropTarget=0;collapsible=0;recursiveResize=0;outlineConnect=0;portConstraint=eastwest;newEdgeStyle={&quot;edgeStyle&quot;:&quot;elbowEdgeStyle&quot;,&quot;elbow&quot;:&quot;vertical&quot;,&quot;curved&quot;:0,&quot;rounded&quot;:0};participant=umlActor;" vertex="1" parent="1">
          <mxGeometry x="144.63" y="1420" width="20" height="580" as="geometry" />
        </mxCell>
        <mxCell id="i15VKQGjdMZdgfvhjxVM-1" value="" style="html=1;points=[];perimeter=orthogonalPerimeter;outlineConnect=0;targetShapes=umlLifeline;portConstraint=eastwest;newEdgeStyle={&quot;edgeStyle&quot;:&quot;elbowEdgeStyle&quot;,&quot;elbow&quot;:&quot;vertical&quot;,&quot;curved&quot;:0,&quot;rounded&quot;:0};" vertex="1" parent="8iGwPbnOn8LscL3MnUIy-28">
          <mxGeometry x="4.18" y="80" width="10" height="19.72" as="geometry" />
        </mxCell>
        <mxCell id="f_E0TuJEy-RSWKuYNu4u-1" value="" style="html=1;points=[];perimeter=orthogonalPerimeter;outlineConnect=0;targetShapes=umlLifeline;portConstraint=eastwest;newEdgeStyle={&quot;edgeStyle&quot;:&quot;elbowEdgeStyle&quot;,&quot;elbow&quot;:&quot;vertical&quot;,&quot;curved&quot;:0,&quot;rounded&quot;:0};" vertex="1" parent="8iGwPbnOn8LscL3MnUIy-28">
          <mxGeometry x="5.3700000000000045" y="130" width="10" height="20" as="geometry" />
        </mxCell>
        <mxCell id="f_E0TuJEy-RSWKuYNu4u-2" value="setAdditionalState(2)" style="html=1;align=left;spacingLeft=2;endArrow=block;rounded=0;edgeStyle=orthogonalEdgeStyle;curved=0;rounded=0;" edge="1" parent="8iGwPbnOn8LscL3MnUIy-28" target="f_E0TuJEy-RSWKuYNu4u-1">
          <mxGeometry relative="1" as="geometry">
            <mxPoint x="10.369999999999976" y="110" as="sourcePoint" />
            <Array as="points">
              <mxPoint x="87.86999999999998" y="110" />
              <mxPoint x="87.86999999999998" y="140" />
            </Array>
          </mxGeometry>
        </mxCell>
        <mxCell id="8iGwPbnOn8LscL3MnUIy-33" value=":Game&lt;span style=&quot;font-size:11.0pt;line-height:107%;font-family:&amp;quot;Calibri&amp;quot;,sans-serif;&lt;br/&gt;mso-ascii-theme-font:minor-latin;mso-fareast-font-family:&amp;quot;Yu Mincho&amp;quot;;&lt;br/&gt;mso-fareast-theme-font:minor-fareast;mso-hansi-theme-font:minor-latin;&lt;br/&gt;mso-bidi-font-family:&amp;quot;Times New Roman&amp;quot;;mso-bidi-theme-font:minor-bidi;&lt;br/&gt;mso-font-kerning:0pt;mso-ligatures:none;mso-ansi-language:EN-US;mso-fareast-language:&lt;br/&gt;JA;mso-bidi-language:AR-SA&quot;&gt;&lt;/span&gt;" style="shape=umlLifeline;perimeter=lifelinePerimeter;whiteSpace=wrap;html=1;container=1;dropTarget=0;collapsible=0;recursiveResize=0;outlineConnect=0;portConstraint=eastwest;newEdgeStyle={&quot;edgeStyle&quot;:&quot;elbowEdgeStyle&quot;,&quot;elbow&quot;:&quot;vertical&quot;,&quot;curved&quot;:0,&quot;rounded&quot;:0};" vertex="1" parent="1">
          <mxGeometry x="261.63" y="1400" width="100" height="600" as="geometry" />
        </mxCell>
        <mxCell id="8iGwPbnOn8LscL3MnUIy-34" value=":Dealer" style="shape=umlLifeline;perimeter=lifelinePerimeter;whiteSpace=wrap;html=1;container=1;dropTarget=0;collapsible=0;recursiveResize=0;outlineConnect=0;portConstraint=eastwest;newEdgeStyle={&quot;edgeStyle&quot;:&quot;elbowEdgeStyle&quot;,&quot;elbow&quot;:&quot;vertical&quot;,&quot;curved&quot;:0,&quot;rounded&quot;:0};" vertex="1" parent="1">
          <mxGeometry x="514.63" y="1400" width="100" height="600" as="geometry" />
        </mxCell>
        <mxCell id="8iGwPbnOn8LscL3MnUIy-37" value=":Deck" style="shape=umlLifeline;perimeter=lifelinePerimeter;whiteSpace=wrap;html=1;container=1;dropTarget=0;collapsible=0;recursiveResize=0;outlineConnect=0;portConstraint=eastwest;newEdgeStyle={&quot;edgeStyle&quot;:&quot;elbowEdgeStyle&quot;,&quot;elbow&quot;:&quot;vertical&quot;,&quot;curved&quot;:0,&quot;rounded&quot;:0};" vertex="1" parent="1">
          <mxGeometry x="640.13" y="1400" width="100" height="600" as="geometry" />
        </mxCell>
        <mxCell id="8iGwPbnOn8LscL3MnUIy-38" value="playerHand:Hand" style="shape=umlLifeline;perimeter=lifelinePerimeter;whiteSpace=wrap;html=1;container=1;dropTarget=0;collapsible=0;recursiveResize=0;outlineConnect=0;portConstraint=eastwest;newEdgeStyle={&quot;edgeStyle&quot;:&quot;elbowEdgeStyle&quot;,&quot;elbow&quot;:&quot;vertical&quot;,&quot;curved&quot;:0,&quot;rounded&quot;:0};" vertex="1" parent="1">
          <mxGeometry x="398.63" y="1400" width="100" height="600" as="geometry" />
        </mxCell>
        <mxCell id="DDJMyOzurcdNRgvI6IFp-15" value=":Player&lt;br&gt;&lt;br&gt;&lt;br&gt;&lt;br&gt;&lt;br&gt;&lt;br&gt;" style="shape=umlLifeline;perimeter=lifelinePerimeter;whiteSpace=wrap;html=1;container=1;dropTarget=0;collapsible=0;recursiveResize=0;outlineConnect=0;portConstraint=eastwest;newEdgeStyle={&quot;edgeStyle&quot;:&quot;elbowEdgeStyle&quot;,&quot;elbow&quot;:&quot;vertical&quot;,&quot;curved&quot;:0,&quot;rounded&quot;:0};participant=umlActor;" vertex="1" parent="1">
          <mxGeometry x="145.38" y="2500" width="20" height="580" as="geometry" />
        </mxCell>
        <mxCell id="cq0q6kgCaP8XRuyKElRf-21" value="" style="html=1;points=[];perimeter=orthogonalPerimeter;outlineConnect=0;targetShapes=umlLifeline;portConstraint=eastwest;newEdgeStyle={&quot;edgeStyle&quot;:&quot;elbowEdgeStyle&quot;,&quot;elbow&quot;:&quot;vertical&quot;,&quot;curved&quot;:0,&quot;rounded&quot;:0};" vertex="1" parent="DDJMyOzurcdNRgvI6IFp-15">
          <mxGeometry x="5.939999999999998" y="60" width="10" height="19.72" as="geometry" />
        </mxCell>
        <mxCell id="cq0q6kgCaP8XRuyKElRf-22" value="doubleDown()" style="html=1;verticalAlign=bottom;startArrow=none;endArrow=open;startSize=8;edgeStyle=elbowEdgeStyle;elbow=vertical;curved=0;rounded=0;startFill=0;endFill=0;" edge="1" parent="DDJMyOzurcdNRgvI6IFp-15" target="cq0q6kgCaP8XRuyKElRf-21">
          <mxGeometry relative="1" as="geometry">
            <mxPoint x="168.31" y="60" as="sourcePoint" />
            <Array as="points">
              <mxPoint x="308.31" y="60.720000000000255" />
            </Array>
          </mxGeometry>
        </mxCell>
        <mxCell id="f_E0TuJEy-RSWKuYNu4u-3" value="" style="html=1;points=[];perimeter=orthogonalPerimeter;outlineConnect=0;targetShapes=umlLifeline;portConstraint=eastwest;newEdgeStyle={&quot;edgeStyle&quot;:&quot;elbowEdgeStyle&quot;,&quot;elbow&quot;:&quot;vertical&quot;,&quot;curved&quot;:0,&quot;rounded&quot;:0};" vertex="1" parent="DDJMyOzurcdNRgvI6IFp-15">
          <mxGeometry x="5.939999999999998" y="110" width="10" height="20" as="geometry" />
        </mxCell>
        <mxCell id="f_E0TuJEy-RSWKuYNu4u-4" value="setAdditionalState(3)" style="html=1;align=left;spacingLeft=2;endArrow=block;rounded=0;edgeStyle=orthogonalEdgeStyle;curved=0;rounded=0;" edge="1" parent="DDJMyOzurcdNRgvI6IFp-15" target="f_E0TuJEy-RSWKuYNu4u-3">
          <mxGeometry relative="1" as="geometry">
            <mxPoint x="10.93999999999997" y="90" as="sourcePoint" />
            <Array as="points">
              <mxPoint x="88.43999999999997" y="90" />
              <mxPoint x="88.43999999999997" y="120" />
            </Array>
          </mxGeometry>
        </mxCell>
        <mxCell id="0CEAvyoJreBTmwqNnFpm-11" value="" style="html=1;points=[];perimeter=orthogonalPerimeter;outlineConnect=0;targetShapes=umlLifeline;portConstraint=eastwest;newEdgeStyle={&quot;edgeStyle&quot;:&quot;elbowEdgeStyle&quot;,&quot;elbow&quot;:&quot;vertical&quot;,&quot;curved&quot;:0,&quot;rounded&quot;:0};" vertex="1" parent="DDJMyOzurcdNRgvI6IFp-15">
          <mxGeometry x="5.939999999999998" y="310" width="10" height="20" as="geometry" />
        </mxCell>
        <mxCell id="0CEAvyoJreBTmwqNnFpm-12" value="setAdditionalState(1)" style="html=1;align=left;spacingLeft=2;endArrow=block;rounded=0;edgeStyle=orthogonalEdgeStyle;curved=0;rounded=0;" edge="1" parent="DDJMyOzurcdNRgvI6IFp-15" target="0CEAvyoJreBTmwqNnFpm-11">
          <mxGeometry relative="1" as="geometry">
            <mxPoint x="10.93999999999997" y="290" as="sourcePoint" />
            <Array as="points">
              <mxPoint x="88.43999999999997" y="290" />
              <mxPoint x="88.43999999999997" y="320" />
            </Array>
          </mxGeometry>
        </mxCell>
        <mxCell id="DDJMyOzurcdNRgvI6IFp-16" value=":Game&lt;span style=&quot;font-size:11.0pt;line-height:107%;font-family:&amp;quot;Calibri&amp;quot;,sans-serif;&lt;br/&gt;mso-ascii-theme-font:minor-latin;mso-fareast-font-family:&amp;quot;Yu Mincho&amp;quot;;&lt;br/&gt;mso-fareast-theme-font:minor-fareast;mso-hansi-theme-font:minor-latin;&lt;br/&gt;mso-bidi-font-family:&amp;quot;Times New Roman&amp;quot;;mso-bidi-theme-font:minor-bidi;&lt;br/&gt;mso-font-kerning:0pt;mso-ligatures:none;mso-ansi-language:EN-US;mso-fareast-language:&lt;br/&gt;JA;mso-bidi-language:AR-SA&quot;&gt;&lt;/span&gt;" style="shape=umlLifeline;perimeter=lifelinePerimeter;whiteSpace=wrap;html=1;container=1;dropTarget=0;collapsible=0;recursiveResize=0;outlineConnect=0;portConstraint=eastwest;newEdgeStyle={&quot;edgeStyle&quot;:&quot;elbowEdgeStyle&quot;,&quot;elbow&quot;:&quot;vertical&quot;,&quot;curved&quot;:0,&quot;rounded&quot;:0};" vertex="1" parent="1">
          <mxGeometry x="262.38" y="2480" width="100" height="600" as="geometry" />
        </mxCell>
        <mxCell id="DDJMyOzurcdNRgvI6IFp-17" value=":Dealer" style="shape=umlLifeline;perimeter=lifelinePerimeter;whiteSpace=wrap;html=1;container=1;dropTarget=0;collapsible=0;recursiveResize=0;outlineConnect=0;portConstraint=eastwest;newEdgeStyle={&quot;edgeStyle&quot;:&quot;elbowEdgeStyle&quot;,&quot;elbow&quot;:&quot;vertical&quot;,&quot;curved&quot;:0,&quot;rounded&quot;:0};" vertex="1" parent="1">
          <mxGeometry x="515.38" y="2480" width="100" height="600" as="geometry" />
        </mxCell>
        <mxCell id="DDJMyOzurcdNRgvI6IFp-18" value=":Deck" style="shape=umlLifeline;perimeter=lifelinePerimeter;whiteSpace=wrap;html=1;container=1;dropTarget=0;collapsible=0;recursiveResize=0;outlineConnect=0;portConstraint=eastwest;newEdgeStyle={&quot;edgeStyle&quot;:&quot;elbowEdgeStyle&quot;,&quot;elbow&quot;:&quot;vertical&quot;,&quot;curved&quot;:0,&quot;rounded&quot;:0};" vertex="1" parent="1">
          <mxGeometry x="640.88" y="2480" width="100" height="600" as="geometry" />
        </mxCell>
        <mxCell id="DDJMyOzurcdNRgvI6IFp-19" value="playerHand:Hand" style="shape=umlLifeline;perimeter=lifelinePerimeter;whiteSpace=wrap;html=1;container=1;dropTarget=0;collapsible=0;recursiveResize=0;outlineConnect=0;portConstraint=eastwest;newEdgeStyle={&quot;edgeStyle&quot;:&quot;elbowEdgeStyle&quot;,&quot;elbow&quot;:&quot;vertical&quot;,&quot;curved&quot;:0,&quot;rounded&quot;:0};" vertex="1" parent="1">
          <mxGeometry x="399.38" y="2480" width="100" height="600" as="geometry" />
        </mxCell>
        <mxCell id="i15VKQGjdMZdgfvhjxVM-2" value="split()" style="html=1;verticalAlign=bottom;startArrow=none;endArrow=open;startSize=8;edgeStyle=elbowEdgeStyle;elbow=vertical;curved=0;rounded=0;startFill=0;endFill=0;" edge="1" parent="1" target="i15VKQGjdMZdgfvhjxVM-1">
          <mxGeometry relative="1" as="geometry">
            <mxPoint x="311.18" y="1500.0000000000002" as="sourcePoint" />
            <Array as="points">
              <mxPoint x="451.18" y="1500.72" />
            </Array>
          </mxGeometry>
        </mxCell>
        <mxCell id="cq0q6kgCaP8XRuyKElRf-12" value="&lt;b&gt;opt&lt;/b&gt;" style="shape=umlFrame;whiteSpace=wrap;html=1;pointerEvents=0;" vertex="1" parent="1">
          <mxGeometry x="75" y="2640" width="700" height="120" as="geometry" />
        </mxCell>
        <mxCell id="cq0q6kgCaP8XRuyKElRf-13" value="[can double bet]" style="text;html=1;align=center;verticalAlign=middle;resizable=0;points=[];autosize=1;strokeColor=none;fillColor=none;" vertex="1" parent="1">
          <mxGeometry x="178.34705882352938" y="2640" width="110" height="30" as="geometry" />
        </mxCell>
        <mxCell id="cq0q6kgCaP8XRuyKElRf-15" value="" style="group" vertex="1" connectable="0" parent="1">
          <mxGeometry x="85" y="2690" width="680" height="60" as="geometry" />
        </mxCell>
        <mxCell id="cq0q6kgCaP8XRuyKElRf-16" value="Hit" style="rounded=0;whiteSpace=wrap;html=1;" vertex="1" parent="cq0q6kgCaP8XRuyKElRf-15">
          <mxGeometry width="680" height="60" as="geometry" />
        </mxCell>
        <mxCell id="cq0q6kgCaP8XRuyKElRf-17" value="&lt;b&gt;ref&lt;/b&gt;" style="shape=umlFrame;whiteSpace=wrap;html=1;pointerEvents=0;" vertex="1" parent="cq0q6kgCaP8XRuyKElRf-15">
          <mxGeometry width="680" height="60" as="geometry" />
        </mxCell>
        <mxCell id="AQPu5HcKGOem1pKs6l_m-2" value="dealCard()" style="html=1;verticalAlign=bottom;endArrow=block;edgeStyle=elbowEdgeStyle;elbow=vertical;curved=0;rounded=0;" edge="1" parent="1" target="AQPu5HcKGOem1pKs6l_m-1" source="io6AJ3inkhHG0oqsFMTY-38">
          <mxGeometry relative="1" as="geometry">
            <mxPoint x="488.88" y="350" as="sourcePoint" />
            <Array as="points">
              <mxPoint x="510.88" y="370" />
              <mxPoint x="313.88" y="350" />
            </Array>
          </mxGeometry>
        </mxCell>
        <mxCell id="20wduGAG27phjWjpJIrC-2" value="hit()" style="html=1;verticalAlign=bottom;startArrow=none;endArrow=open;startSize=8;edgeStyle=elbowEdgeStyle;elbow=vertical;curved=0;rounded=0;startFill=0;endFill=0;" edge="1" parent="1" target="20wduGAG27phjWjpJIrC-1" source="io6AJ3inkhHG0oqsFMTY-37">
          <mxGeometry relative="1" as="geometry">
            <mxPoint x="245.89" y="350.00000000000006" as="sourcePoint" />
          </mxGeometry>
        </mxCell>
        <mxCell id="JgU_Lv_y6ElgeZlBlLtq-1" value="&lt;b&gt;JUnit Scenario 1&lt;/b&gt;:&amp;nbsp;The player chooses to hit,&lt;br style=&quot;border-color: var(--border-color); font-size: 14px;&quot;&gt;&lt;span style=&quot;font-size: 14px;&quot;&gt;requesting an additional card from the dealer.&lt;/span&gt;&lt;br&gt;&lt;br&gt;&lt;b style=&quot;border-color: var(--border-color);&quot;&gt;JUnit Scenario 2&lt;/b&gt;:&amp;nbsp;If the player&#39;s hand value exceeds 21, they bust, and the round ends. If equals to 21, they win. If less than 21, move on to next step." style="shape=note;whiteSpace=wrap;html=1;size=14;verticalAlign=top;align=left;spacingTop=-6;rounded=0;shadow=0;comic=0;labelBackgroundColor=none;strokeWidth=1;fontFamily=Verdana;fontSize=12" vertex="1" parent="1">
          <mxGeometry x="239" y="110" width="373" height="120" as="geometry" />
        </mxCell>
        <mxCell id="JgU_Lv_y6ElgeZlBlLtq-2" value="&lt;b&gt;JUnit Scenario 1&lt;/b&gt;:&amp;nbsp;If the player&#39;s initial hand&lt;br style=&quot;border-color: var(--border-color); font-size: 14px;&quot;&gt;&lt;span style=&quot;font-size: 14px;&quot;&gt;consists of two cards with the same value and have enough chips, they can choose to split the pair into two separate hands and place an additional bet.&lt;/span&gt;&lt;br&gt;&lt;br&gt;&lt;b style=&quot;border-color: var(--border-color);&quot;&gt;JUnit Scenario 2&lt;/b&gt;:&amp;nbsp;If not, player cannot split." style="shape=note;whiteSpace=wrap;html=1;size=14;verticalAlign=top;align=left;spacingTop=-6;rounded=0;shadow=0;comic=0;labelBackgroundColor=none;strokeWidth=1;fontFamily=Verdana;fontSize=12" vertex="1" parent="1">
          <mxGeometry x="239" y="1200" width="373" height="150" as="geometry" />
        </mxCell>
        <mxCell id="JgU_Lv_y6ElgeZlBlLtq-3" value="&lt;b&gt;JUnit Scenario 1&lt;/b&gt;:&amp;nbsp;The player has the option to&lt;br style=&quot;border-color: var(--border-color); font-size: 14px;&quot;&gt;&lt;span style=&quot;font-size: 14px;&quot;&gt;double their original bet after receiving their initial two cards.&lt;/span&gt;&lt;br&gt;&lt;br&gt;&lt;b style=&quot;border-color: var(--border-color);&quot;&gt;JUnit Scenario 2&lt;/b&gt;:&amp;nbsp;If not, player cannot double down." style="shape=note;whiteSpace=wrap;html=1;size=14;verticalAlign=top;align=left;spacingTop=-6;rounded=0;shadow=0;comic=0;labelBackgroundColor=none;strokeWidth=1;fontFamily=Verdana;fontSize=12" vertex="1" parent="1">
          <mxGeometry x="248.99999999999997" y="2300" width="373" height="150" as="geometry" />
        </mxCell>
        <mxCell id="GtrrQw7bfFzOLFfS9uJ0-10" value="&lt;b&gt;JUnit Scenario 1&lt;/b&gt;:&amp;nbsp;The player can choose to&lt;br style=&quot;border-color: var(--border-color); font-size: 14px;&quot;&gt;&lt;span style=&quot;font-size: 14px;&quot;&gt;surrender and forfeit half of their bet, accepting a loss for the round.&amp;nbsp;&lt;/span&gt;&lt;br&gt;&lt;b style=&quot;border-color: var(--border-color);&quot;&gt;JUnit Scenario 2&lt;/b&gt;: the round should be over correctly, and the player is not surrender state anymore." style="shape=note;whiteSpace=wrap;html=1;size=14;verticalAlign=top;align=left;spacingTop=-6;rounded=0;shadow=0;comic=0;labelBackgroundColor=none;strokeWidth=1;fontFamily=Verdana;fontSize=12" vertex="1" parent="1">
          <mxGeometry x="249" y="4500" width="373" height="110" as="geometry" />
        </mxCell>
        <mxCell id="BHNZWUh2yXDGx6S_lVH5-1" value=":Player&lt;br&gt;&lt;br&gt;&lt;br&gt;&lt;br&gt;&lt;br&gt;&lt;br&gt;" style="shape=umlLifeline;perimeter=lifelinePerimeter;whiteSpace=wrap;html=1;container=1;dropTarget=0;collapsible=0;recursiveResize=0;outlineConnect=0;portConstraint=eastwest;newEdgeStyle={&quot;edgeStyle&quot;:&quot;elbowEdgeStyle&quot;,&quot;elbow&quot;:&quot;vertical&quot;,&quot;curved&quot;:0,&quot;rounded&quot;:0};participant=umlActor;" vertex="1" parent="1">
          <mxGeometry x="138.38" y="4720" width="20" height="580" as="geometry" />
        </mxCell>
        <mxCell id="BHNZWUh2yXDGx6S_lVH5-2" value="" style="html=1;points=[];perimeter=orthogonalPerimeter;outlineConnect=0;targetShapes=umlLifeline;portConstraint=eastwest;newEdgeStyle={&quot;edgeStyle&quot;:&quot;elbowEdgeStyle&quot;,&quot;elbow&quot;:&quot;vertical&quot;,&quot;curved&quot;:0,&quot;rounded&quot;:0};" vertex="1" parent="BHNZWUh2yXDGx6S_lVH5-1">
          <mxGeometry x="4.710000000000008" y="60" width="10" height="19.72" as="geometry" />
        </mxCell>
        <mxCell id="BHNZWUh2yXDGx6S_lVH5-3" value="surrender()" style="html=1;verticalAlign=bottom;startArrow=none;endArrow=open;startSize=8;edgeStyle=elbowEdgeStyle;elbow=vertical;curved=0;rounded=0;startFill=0;endFill=0;" edge="1" parent="BHNZWUh2yXDGx6S_lVH5-1" target="BHNZWUh2yXDGx6S_lVH5-2">
          <mxGeometry relative="1" as="geometry">
            <mxPoint x="167.07999999999998" y="60" as="sourcePoint" />
            <Array as="points">
              <mxPoint x="307.08" y="60.720000000000255" />
            </Array>
          </mxGeometry>
        </mxCell>
        <mxCell id="BHNZWUh2yXDGx6S_lVH5-4" value="" style="html=1;points=[];perimeter=orthogonalPerimeter;outlineConnect=0;targetShapes=umlLifeline;portConstraint=eastwest;newEdgeStyle={&quot;edgeStyle&quot;:&quot;elbowEdgeStyle&quot;,&quot;elbow&quot;:&quot;vertical&quot;,&quot;curved&quot;:0,&quot;rounded&quot;:0};" vertex="1" parent="BHNZWUh2yXDGx6S_lVH5-1">
          <mxGeometry x="4.710000000000008" y="110" width="10" height="20" as="geometry" />
        </mxCell>
        <mxCell id="BHNZWUh2yXDGx6S_lVH5-5" value="setAdditionalState(4)" style="html=1;align=left;spacingLeft=2;endArrow=block;rounded=0;edgeStyle=orthogonalEdgeStyle;curved=0;rounded=0;" edge="1" parent="BHNZWUh2yXDGx6S_lVH5-1" target="BHNZWUh2yXDGx6S_lVH5-4">
          <mxGeometry relative="1" as="geometry">
            <mxPoint x="9.70999999999998" y="90" as="sourcePoint" />
            <Array as="points">
              <mxPoint x="87.20999999999998" y="90" />
              <mxPoint x="87.20999999999998" y="120" />
            </Array>
          </mxGeometry>
        </mxCell>
        <mxCell id="qTUykXPKRj7eP_wUkNXM-3" value="" style="html=1;points=[];perimeter=orthogonalPerimeter;outlineConnect=0;targetShapes=umlLifeline;portConstraint=eastwest;newEdgeStyle={&quot;edgeStyle&quot;:&quot;elbowEdgeStyle&quot;,&quot;elbow&quot;:&quot;vertical&quot;,&quot;curved&quot;:0,&quot;rounded&quot;:0};" vertex="1" parent="BHNZWUh2yXDGx6S_lVH5-1">
          <mxGeometry x="4.710000000000008" y="450" width="10" height="20" as="geometry" />
        </mxCell>
        <mxCell id="qTUykXPKRj7eP_wUkNXM-4" value="setAdditionalState(1)" style="html=1;align=left;spacingLeft=2;endArrow=block;rounded=0;edgeStyle=orthogonalEdgeStyle;curved=0;rounded=0;" edge="1" parent="BHNZWUh2yXDGx6S_lVH5-1" target="qTUykXPKRj7eP_wUkNXM-3">
          <mxGeometry relative="1" as="geometry">
            <mxPoint x="9.70999999999998" y="430" as="sourcePoint" />
            <Array as="points">
              <mxPoint x="87.20999999999998" y="430" />
              <mxPoint x="87.20999999999998" y="460" />
            </Array>
          </mxGeometry>
        </mxCell>
        <mxCell id="BHNZWUh2yXDGx6S_lVH5-6" value=":Game&lt;span style=&quot;font-size:11.0pt;line-height:107%;font-family:&amp;quot;Calibri&amp;quot;,sans-serif;&lt;br/&gt;mso-ascii-theme-font:minor-latin;mso-fareast-font-family:&amp;quot;Yu Mincho&amp;quot;;&lt;br/&gt;mso-fareast-theme-font:minor-fareast;mso-hansi-theme-font:minor-latin;&lt;br/&gt;mso-bidi-font-family:&amp;quot;Times New Roman&amp;quot;;mso-bidi-theme-font:minor-bidi;&lt;br/&gt;mso-font-kerning:0pt;mso-ligatures:none;mso-ansi-language:EN-US;mso-fareast-language:&lt;br/&gt;JA;mso-bidi-language:AR-SA&quot;&gt;&lt;/span&gt;" style="shape=umlLifeline;perimeter=lifelinePerimeter;whiteSpace=wrap;html=1;container=1;dropTarget=0;collapsible=0;recursiveResize=0;outlineConnect=0;portConstraint=eastwest;newEdgeStyle={&quot;edgeStyle&quot;:&quot;elbowEdgeStyle&quot;,&quot;elbow&quot;:&quot;vertical&quot;,&quot;curved&quot;:0,&quot;rounded&quot;:0};" vertex="1" parent="1">
          <mxGeometry x="255.38" y="4700" width="100" height="600" as="geometry" />
        </mxCell>
        <mxCell id="BHNZWUh2yXDGx6S_lVH5-7" value=":Dealer" style="shape=umlLifeline;perimeter=lifelinePerimeter;whiteSpace=wrap;html=1;container=1;dropTarget=0;collapsible=0;recursiveResize=0;outlineConnect=0;portConstraint=eastwest;newEdgeStyle={&quot;edgeStyle&quot;:&quot;elbowEdgeStyle&quot;,&quot;elbow&quot;:&quot;vertical&quot;,&quot;curved&quot;:0,&quot;rounded&quot;:0};" vertex="1" parent="1">
          <mxGeometry x="508.38" y="4700" width="100" height="600" as="geometry" />
        </mxCell>
        <mxCell id="BHNZWUh2yXDGx6S_lVH5-8" value=":Bet" style="shape=umlLifeline;perimeter=lifelinePerimeter;whiteSpace=wrap;html=1;container=1;dropTarget=0;collapsible=0;recursiveResize=0;outlineConnect=0;portConstraint=eastwest;newEdgeStyle={&quot;edgeStyle&quot;:&quot;elbowEdgeStyle&quot;,&quot;elbow&quot;:&quot;vertical&quot;,&quot;curved&quot;:0,&quot;rounded&quot;:0};" vertex="1" parent="1">
          <mxGeometry x="392.38" y="4700" width="100" height="600" as="geometry" />
        </mxCell>
        <mxCell id="BHNZWUh2yXDGx6S_lVH5-9" value="" style="html=1;points=[];perimeter=orthogonalPerimeter;outlineConnect=0;targetShapes=umlLifeline;portConstraint=eastwest;newEdgeStyle={&quot;edgeStyle&quot;:&quot;elbowEdgeStyle&quot;,&quot;elbow&quot;:&quot;vertical&quot;,&quot;curved&quot;:0,&quot;rounded&quot;:0};" vertex="1" parent="BHNZWUh2yXDGx6S_lVH5-8">
          <mxGeometry x="45" y="294" width="10" height="80" as="geometry" />
        </mxCell>
        <mxCell id="BHNZWUh2yXDGx6S_lVH5-13" value=":Safe" style="shape=umlLifeline;perimeter=lifelinePerimeter;whiteSpace=wrap;html=1;container=1;dropTarget=0;collapsible=0;recursiveResize=0;outlineConnect=0;portConstraint=eastwest;newEdgeStyle={&quot;edgeStyle&quot;:&quot;elbowEdgeStyle&quot;,&quot;elbow&quot;:&quot;vertical&quot;,&quot;curved&quot;:0,&quot;rounded&quot;:0};" vertex="1" parent="1">
          <mxGeometry x="620" y="4700" width="100" height="600" as="geometry" />
        </mxCell>
        <mxCell id="BHNZWUh2yXDGx6S_lVH5-14" value="" style="html=1;points=[];perimeter=orthogonalPerimeter;outlineConnect=0;targetShapes=umlLifeline;portConstraint=eastwest;newEdgeStyle={&quot;edgeStyle&quot;:&quot;elbowEdgeStyle&quot;,&quot;elbow&quot;:&quot;vertical&quot;,&quot;curved&quot;:0,&quot;rounded&quot;:0};" vertex="1" parent="BHNZWUh2yXDGx6S_lVH5-13">
          <mxGeometry x="45" y="404" width="10" height="19.93" as="geometry" />
        </mxCell>
        <mxCell id="BHNZWUh2yXDGx6S_lVH5-15" value="getHalf()" style="html=1;verticalAlign=bottom;endArrow=block;edgeStyle=elbowEdgeStyle;elbow=vertical;curved=0;rounded=0;" edge="1" parent="1" target="BHNZWUh2yXDGx6S_lVH5-9">
          <mxGeometry relative="1" as="geometry">
            <mxPoint x="150" y="4994" as="sourcePoint" />
          </mxGeometry>
        </mxCell>
        <mxCell id="BHNZWUh2yXDGx6S_lVH5-16" value="chipBack" style="html=1;verticalAlign=bottom;endArrow=open;dashed=1;endSize=8;edgeStyle=elbowEdgeStyle;elbow=vertical;curved=0;rounded=0;" edge="1" parent="1" source="BHNZWUh2yXDGx6S_lVH5-9">
          <mxGeometry x="0.0054" relative="1" as="geometry">
            <mxPoint x="150" y="5069" as="targetPoint" />
            <mxPoint as="offset" />
          </mxGeometry>
        </mxCell>
        <mxCell id="BHNZWUh2yXDGx6S_lVH5-17" value="setChip(chipBack)" style="html=1;verticalAlign=bottom;startArrow=none;endArrow=open;startSize=8;edgeStyle=elbowEdgeStyle;elbow=vertical;curved=0;rounded=0;startFill=0;endFill=0;" edge="1" parent="1" target="BHNZWUh2yXDGx6S_lVH5-14">
          <mxGeometry relative="1" as="geometry">
            <mxPoint x="150" y="5104.070000000001" as="sourcePoint" />
          </mxGeometry>
        </mxCell>
        <mxCell id="BHNZWUh2yXDGx6S_lVH5-18" value="&lt;b&gt;JUnit Scenario 1&lt;/b&gt;:&amp;nbsp;The player chooses to stand,&lt;br style=&quot;border-color: var(--border-color); font-size: 14px;&quot;&gt;&lt;span style=&quot;font-size: 14px;&quot;&gt;indicating the end of their turn. The dealer then plays their hand according to the game rules.&lt;br&gt;&amp;nbsp;&lt;/span&gt;&lt;br&gt;&lt;b style=&quot;border-color: var(--border-color);&quot;&gt;JUnit Scenario 2&lt;/b&gt;: the round should be over correctly" style="shape=note;whiteSpace=wrap;html=1;size=14;verticalAlign=top;align=left;spacingTop=-6;rounded=0;shadow=0;comic=0;labelBackgroundColor=none;strokeWidth=1;fontFamily=Verdana;fontSize=12" vertex="1" parent="1">
          <mxGeometry x="238" y="3390" width="373" height="150" as="geometry" />
        </mxCell>
        <mxCell id="qTUykXPKRj7eP_wUkNXM-5" value=":Player&lt;br&gt;&lt;br&gt;&lt;br&gt;&lt;br&gt;&lt;br&gt;&lt;br&gt;" style="shape=umlLifeline;perimeter=lifelinePerimeter;whiteSpace=wrap;html=1;container=1;dropTarget=0;collapsible=0;recursiveResize=0;outlineConnect=0;portConstraint=eastwest;newEdgeStyle={&quot;edgeStyle&quot;:&quot;elbowEdgeStyle&quot;,&quot;elbow&quot;:&quot;vertical&quot;,&quot;curved&quot;:0,&quot;rounded&quot;:0};participant=umlActor;" vertex="1" parent="1">
          <mxGeometry x="120" y="3570" width="20" height="580" as="geometry" />
        </mxCell>
        <mxCell id="FvYf8PEwEiX5Y6GVfXE7-2" value="" style="html=1;points=[];perimeter=orthogonalPerimeter;outlineConnect=0;targetShapes=umlLifeline;portConstraint=eastwest;newEdgeStyle={&quot;edgeStyle&quot;:&quot;elbowEdgeStyle&quot;,&quot;elbow&quot;:&quot;vertical&quot;,&quot;curved&quot;:0,&quot;rounded&quot;:0};" vertex="1" parent="qTUykXPKRj7eP_wUkNXM-5">
          <mxGeometry x="4.980000000000018" y="510.1399999999999" width="11.3" height="29.85" as="geometry" />
        </mxCell>
        <mxCell id="FvYf8PEwEiX5Y6GVfXE7-3" value="setGameState(4)" style="html=1;verticalAlign=bottom;startArrow=none;endArrow=open;startSize=8;edgeStyle=elbowEdgeStyle;elbow=vertical;curved=0;rounded=0;startFill=0;endFill=0;" edge="1" parent="qTUykXPKRj7eP_wUkNXM-5" target="FvYf8PEwEiX5Y6GVfXE7-2">
          <mxGeometry relative="1" as="geometry">
            <mxPoint x="168.34262166405028" y="510.1443209876543" as="sourcePoint" />
          </mxGeometry>
        </mxCell>
        <mxCell id="qTUykXPKRj7eP_wUkNXM-10" value=":Game&lt;span style=&quot;font-size:11.0pt;line-height:107%;font-family:&amp;quot;Calibri&amp;quot;,sans-serif;&lt;br/&gt;mso-ascii-theme-font:minor-latin;mso-fareast-font-family:&amp;quot;Yu Mincho&amp;quot;;&lt;br/&gt;mso-fareast-theme-font:minor-fareast;mso-hansi-theme-font:minor-latin;&lt;br/&gt;mso-bidi-font-family:&amp;quot;Times New Roman&amp;quot;;mso-bidi-theme-font:minor-bidi;&lt;br/&gt;mso-font-kerning:0pt;mso-ligatures:none;mso-ansi-language:EN-US;mso-fareast-language:&lt;br/&gt;JA;mso-bidi-language:AR-SA&quot;&gt;&lt;/span&gt;" style="shape=umlLifeline;perimeter=lifelinePerimeter;whiteSpace=wrap;html=1;container=1;dropTarget=0;collapsible=0;recursiveResize=0;outlineConnect=0;portConstraint=eastwest;newEdgeStyle={&quot;edgeStyle&quot;:&quot;elbowEdgeStyle&quot;,&quot;elbow&quot;:&quot;vertical&quot;,&quot;curved&quot;:0,&quot;rounded&quot;:0};" vertex="1" parent="1">
          <mxGeometry x="237" y="3550" width="100" height="600" as="geometry" />
        </mxCell>
        <mxCell id="qTUykXPKRj7eP_wUkNXM-15" value="" style="html=1;points=[];perimeter=orthogonalPerimeter;outlineConnect=0;targetShapes=umlLifeline;portConstraint=eastwest;newEdgeStyle={&quot;edgeStyle&quot;:&quot;elbowEdgeStyle&quot;,&quot;elbow&quot;:&quot;vertical&quot;,&quot;curved&quot;:0,&quot;rounded&quot;:0};" vertex="1" parent="qTUykXPKRj7eP_wUkNXM-10">
          <mxGeometry x="44.890000000000015" y="70" width="10" height="10" as="geometry" />
        </mxCell>
        <mxCell id="qTUykXPKRj7eP_wUkNXM-25" value="stand()" style="html=1;verticalAlign=bottom;startArrow=none;endArrow=open;startSize=8;edgeStyle=elbowEdgeStyle;elbow=vertical;curved=0;rounded=0;startFill=0;endFill=0;" edge="1" parent="qTUykXPKRj7eP_wUkNXM-10" target="qTUykXPKRj7eP_wUkNXM-15">
          <mxGeometry relative="1" as="geometry">
            <mxPoint x="-106.99999999999997" y="75" as="sourcePoint" />
          </mxGeometry>
        </mxCell>
        <mxCell id="qTUykXPKRj7eP_wUkNXM-11" value=":Dealer" style="shape=umlLifeline;perimeter=lifelinePerimeter;whiteSpace=wrap;html=1;container=1;dropTarget=0;collapsible=0;recursiveResize=0;outlineConnect=0;portConstraint=eastwest;newEdgeStyle={&quot;edgeStyle&quot;:&quot;elbowEdgeStyle&quot;,&quot;elbow&quot;:&quot;vertical&quot;,&quot;curved&quot;:0,&quot;rounded&quot;:0};" vertex="1" parent="1">
          <mxGeometry x="490" y="3550" width="100" height="600" as="geometry" />
        </mxCell>
        <mxCell id="CfMzGHNIVoaYaAyaY-P1-2" value="" style="html=1;points=[];perimeter=orthogonalPerimeter;outlineConnect=0;targetShapes=umlLifeline;portConstraint=eastwest;newEdgeStyle={&quot;edgeStyle&quot;:&quot;elbowEdgeStyle&quot;,&quot;elbow&quot;:&quot;vertical&quot;,&quot;curved&quot;:0,&quot;rounded&quot;:0};" vertex="1" parent="qTUykXPKRj7eP_wUkNXM-11">
          <mxGeometry x="45.840277777777715" y="530.14" width="12.163194444444445" height="29.85" as="geometry" />
        </mxCell>
        <mxCell id="CfMzGHNIVoaYaAyaY-P1-13" value="setGameState(4)" style="html=1;verticalAlign=bottom;startArrow=none;endArrow=open;startSize=8;edgeStyle=elbowEdgeStyle;elbow=vertical;curved=0;rounded=0;startFill=0;endFill=0;" edge="1" parent="qTUykXPKRj7eP_wUkNXM-11" target="CfMzGHNIVoaYaAyaY-P1-2">
          <mxGeometry relative="1" as="geometry">
            <mxPoint x="-216.79861111111111" y="530.14" as="sourcePoint" />
          </mxGeometry>
        </mxCell>
        <mxCell id="FvYf8PEwEiX5Y6GVfXE7-6" value="" style="html=1;points=[];perimeter=orthogonalPerimeter;outlineConnect=0;targetShapes=umlLifeline;portConstraint=eastwest;newEdgeStyle={&quot;edgeStyle&quot;:&quot;elbowEdgeStyle&quot;,&quot;elbow&quot;:&quot;vertical&quot;,&quot;curved&quot;:0,&quot;rounded&quot;:0};" vertex="1" parent="qTUykXPKRj7eP_wUkNXM-11">
          <mxGeometry x="44.34999999999991" y="370.3600000000001" width="11.3" height="22.46" as="geometry" />
        </mxCell>
        <mxCell id="qTUykXPKRj7eP_wUkNXM-12" value=":Deck" style="shape=umlLifeline;perimeter=lifelinePerimeter;whiteSpace=wrap;html=1;container=1;dropTarget=0;collapsible=0;recursiveResize=0;outlineConnect=0;portConstraint=eastwest;newEdgeStyle={&quot;edgeStyle&quot;:&quot;elbowEdgeStyle&quot;,&quot;elbow&quot;:&quot;vertical&quot;,&quot;curved&quot;:0,&quot;rounded&quot;:0};" vertex="1" parent="1">
          <mxGeometry x="615.5" y="3550" width="100" height="600" as="geometry" />
        </mxCell>
        <mxCell id="qTUykXPKRj7eP_wUkNXM-13" value="dealerHand:Hand" style="shape=umlLifeline;perimeter=lifelinePerimeter;whiteSpace=wrap;html=1;container=1;dropTarget=0;collapsible=0;recursiveResize=0;outlineConnect=0;portConstraint=eastwest;newEdgeStyle={&quot;edgeStyle&quot;:&quot;elbowEdgeStyle&quot;,&quot;elbow&quot;:&quot;vertical&quot;,&quot;curved&quot;:0,&quot;rounded&quot;:0};" vertex="1" parent="1">
          <mxGeometry x="374" y="3550" width="100" height="600" as="geometry" />
        </mxCell>
        <mxCell id="qTUykXPKRj7eP_wUkNXM-17" value="" style="html=1;points=[];perimeter=orthogonalPerimeter;outlineConnect=0;targetShapes=umlLifeline;portConstraint=eastwest;newEdgeStyle={&quot;edgeStyle&quot;:&quot;elbowEdgeStyle&quot;,&quot;elbow&quot;:&quot;vertical&quot;,&quot;curved&quot;:0,&quot;rounded&quot;:0};" vertex="1" parent="qTUykXPKRj7eP_wUkNXM-13">
          <mxGeometry x="45" y="257" width="10" height="20" as="geometry" />
        </mxCell>
        <mxCell id="qTUykXPKRj7eP_wUkNXM-16" value="" style="html=1;points=[];perimeter=orthogonalPerimeter;outlineConnect=0;targetShapes=umlLifeline;portConstraint=eastwest;newEdgeStyle={&quot;edgeStyle&quot;:&quot;elbowEdgeStyle&quot;,&quot;elbow&quot;:&quot;vertical&quot;,&quot;curved&quot;:0,&quot;rounded&quot;:0};" vertex="1" parent="1">
          <mxGeometry x="534.3799999999999" y="3636" width="10" height="180" as="geometry" />
        </mxCell>
        <mxCell id="qTUykXPKRj7eP_wUkNXM-18" value="" style="html=1;points=[];perimeter=orthogonalPerimeter;outlineConnect=0;targetShapes=umlLifeline;portConstraint=eastwest;newEdgeStyle={&quot;edgeStyle&quot;:&quot;elbowEdgeStyle&quot;,&quot;elbow&quot;:&quot;vertical&quot;,&quot;curved&quot;:0,&quot;rounded&quot;:0};" vertex="1" parent="1">
          <mxGeometry x="658.88" y="3681" width="10" height="80" as="geometry" />
        </mxCell>
        <mxCell id="qTUykXPKRj7eP_wUkNXM-19" value="drawCard()" style="html=1;verticalAlign=bottom;endArrow=block;edgeStyle=elbowEdgeStyle;elbow=vertical;curved=0;rounded=0;" edge="1" parent="1" target="qTUykXPKRj7eP_wUkNXM-18">
          <mxGeometry relative="1" as="geometry">
            <mxPoint x="539.1903448275862" y="3681" as="sourcePoint" />
            <Array as="points">
              <mxPoint x="609.38" y="3681" />
            </Array>
            <mxPoint as="offset" />
          </mxGeometry>
        </mxCell>
        <mxCell id="qTUykXPKRj7eP_wUkNXM-20" value="card" style="html=1;verticalAlign=bottom;endArrow=open;dashed=1;endSize=8;edgeStyle=elbowEdgeStyle;elbow=vertical;curved=0;rounded=0;" edge="1" parent="1" source="qTUykXPKRj7eP_wUkNXM-18">
          <mxGeometry x="-0.002" relative="1" as="geometry">
            <mxPoint x="539.1903448275862" y="3756" as="targetPoint" />
            <Array as="points">
              <mxPoint x="619.38" y="3756" />
            </Array>
            <mxPoint as="offset" />
          </mxGeometry>
        </mxCell>
        <mxCell id="qTUykXPKRj7eP_wUkNXM-24" value="dealCard()" style="html=1;verticalAlign=bottom;endArrow=open;edgeStyle=elbowEdgeStyle;elbow=vertical;curved=0;rounded=0;endFill=0;" edge="1" parent="1" target="qTUykXPKRj7eP_wUkNXM-16">
          <mxGeometry relative="1" as="geometry">
            <mxPoint x="287" y="3650" as="sourcePoint" />
            <Array as="points">
              <mxPoint x="360" y="3650" />
              <mxPoint x="486.37999999999994" y="3656" />
              <mxPoint x="289.38" y="3636" />
            </Array>
          </mxGeometry>
        </mxCell>
        <mxCell id="qTUykXPKRj7eP_wUkNXM-22" value="addCard(card)" style="html=1;verticalAlign=bottom;startArrow=none;endArrow=open;startSize=8;edgeStyle=elbowEdgeStyle;elbow=vertical;curved=0;rounded=0;startFill=0;endFill=0;" edge="1" parent="1" target="qTUykXPKRj7eP_wUkNXM-17">
          <mxGeometry relative="1" as="geometry">
            <mxPoint x="540.88" y="3817" as="sourcePoint" />
          </mxGeometry>
        </mxCell>
        <mxCell id="jS3MS3vRi0kqO0qIEbMx-1" value="" style="group" vertex="1" connectable="0" parent="1">
          <mxGeometry x="320" y="3660" width="390" height="190" as="geometry" />
        </mxCell>
        <mxCell id="jS3MS3vRi0kqO0qIEbMx-2" value="&lt;b style=&quot;border-color: var(--border-color);&quot;&gt;loop&lt;/b&gt;" style="shape=umlFrame;whiteSpace=wrap;html=1;pointerEvents=0;" vertex="1" parent="jS3MS3vRi0kqO0qIEbMx-1">
          <mxGeometry width="390" height="190" as="geometry" />
        </mxCell>
        <mxCell id="jS3MS3vRi0kqO0qIEbMx-3" value="[dealerHand.getValue() &amp;lt;17]" style="text;html=1;align=center;verticalAlign=middle;resizable=0;points=[];autosize=1;strokeColor=none;fillColor=none;" vertex="1" parent="jS3MS3vRi0kqO0qIEbMx-1">
          <mxGeometry x="0.0039604228788334694" y="30" width="170" height="30" as="geometry" />
        </mxCell>
        <mxCell id="CfMzGHNIVoaYaAyaY-P1-1" value="" style="html=1;points=[];perimeter=orthogonalPerimeter;outlineConnect=0;targetShapes=umlLifeline;portConstraint=eastwest;newEdgeStyle={&quot;edgeStyle&quot;:&quot;elbowEdgeStyle&quot;,&quot;elbow&quot;:&quot;vertical&quot;,&quot;curved&quot;:0,&quot;rounded&quot;:0};" vertex="1" parent="1">
          <mxGeometry x="127.72999999999999" y="4000.16" width="11.3" height="24.01" as="geometry" />
        </mxCell>
        <mxCell id="CfMzGHNIVoaYaAyaY-P1-3" value="" style="html=1;points=[];perimeter=orthogonalPerimeter;outlineConnect=0;targetShapes=umlLifeline;portConstraint=eastwest;newEdgeStyle={&quot;edgeStyle&quot;:&quot;elbowEdgeStyle&quot;,&quot;elbow&quot;:&quot;vertical&quot;,&quot;curved&quot;:0,&quot;rounded&quot;:0};" vertex="1" parent="1">
          <mxGeometry x="127.72999999999999" y="3920.11" width="11.3" height="22.46" as="geometry" />
        </mxCell>
        <mxCell id="CfMzGHNIVoaYaAyaY-P1-4" value="" style="group" vertex="1" connectable="0" parent="1">
          <mxGeometry x="55" y="3870" width="775" height="280" as="geometry" />
        </mxCell>
        <mxCell id="CfMzGHNIVoaYaAyaY-P1-5" value="&lt;b&gt;alt&lt;/b&gt;" style="shape=umlFrame;whiteSpace=wrap;html=1;pointerEvents=0;width=70;height=30;" vertex="1" parent="CfMzGHNIVoaYaAyaY-P1-4">
          <mxGeometry width="775" height="84.16666666666667" as="geometry" />
        </mxCell>
        <mxCell id="CfMzGHNIVoaYaAyaY-P1-6" value="" style="shape=umlFrame;whiteSpace=wrap;html=1;pointerEvents=0;width=10;height=15;" vertex="1" parent="CfMzGHNIVoaYaAyaY-P1-4">
          <mxGeometry y="84.16666666666667" width="775" height="84.16666666666667" as="geometry" />
        </mxCell>
        <mxCell id="CfMzGHNIVoaYaAyaY-P1-7" value="" style="shape=umlFrame;whiteSpace=wrap;html=1;pointerEvents=0;width=10;height=15;" vertex="1" parent="CfMzGHNIVoaYaAyaY-P1-4">
          <mxGeometry y="168.33333333333334" width="775" height="84.16666666666667" as="geometry" />
        </mxCell>
        <mxCell id="CfMzGHNIVoaYaAyaY-P1-8" value="[player wins]" style="text;html=1;align=center;verticalAlign=middle;resizable=0;points=[];autosize=1;strokeColor=none;fillColor=none;" vertex="1" parent="CfMzGHNIVoaYaAyaY-P1-4">
          <mxGeometry x="111.70507837750485" width="90" height="30" as="geometry" />
        </mxCell>
        <mxCell id="CfMzGHNIVoaYaAyaY-P1-9" value="[player busts]" style="text;html=1;align=center;verticalAlign=middle;resizable=0;points=[];autosize=1;strokeColor=none;fillColor=none;" vertex="1" parent="CfMzGHNIVoaYaAyaY-P1-4">
          <mxGeometry x="94.03628313504889" y="84.16666666666667" width="90" height="30" as="geometry" />
        </mxCell>
        <mxCell id="CfMzGHNIVoaYaAyaY-P1-10" value="[player ties]" style="text;html=1;align=center;verticalAlign=middle;resizable=0;points=[];autosize=1;strokeColor=none;fillColor=none;" vertex="1" parent="CfMzGHNIVoaYaAyaY-P1-4">
          <mxGeometry x="91.31198248530181" y="168.33333333333334" width="80" height="30" as="geometry" />
        </mxCell>
        <mxCell id="CfMzGHNIVoaYaAyaY-P1-11" value="setGameState(2)" style="html=1;verticalAlign=bottom;startArrow=none;endArrow=open;startSize=8;edgeStyle=elbowEdgeStyle;elbow=vertical;curved=0;rounded=0;startFill=0;endFill=0;" edge="1" parent="CfMzGHNIVoaYaAyaY-P1-4" target="CfMzGHNIVoaYaAyaY-P1-3">
          <mxGeometry relative="1" as="geometry">
            <mxPoint x="235" y="50" as="sourcePoint" />
          </mxGeometry>
        </mxCell>
        <mxCell id="CfMzGHNIVoaYaAyaY-P1-12" value="setGameState(3)" style="html=1;verticalAlign=bottom;startArrow=none;endArrow=open;startSize=8;edgeStyle=elbowEdgeStyle;elbow=vertical;curved=0;rounded=0;startFill=0;endFill=0;" edge="1" parent="CfMzGHNIVoaYaAyaY-P1-4" target="CfMzGHNIVoaYaAyaY-P1-1">
          <mxGeometry relative="1" as="geometry">
            <mxPoint x="235" y="130" as="sourcePoint" />
          </mxGeometry>
        </mxCell>
        <mxCell id="FvYf8PEwEiX5Y6GVfXE7-8" value="" style="html=1;points=[];perimeter=orthogonalPerimeter;outlineConnect=0;targetShapes=umlLifeline;portConstraint=eastwest;newEdgeStyle={&quot;edgeStyle&quot;:&quot;elbowEdgeStyle&quot;,&quot;elbow&quot;:&quot;vertical&quot;,&quot;curved&quot;:0,&quot;rounded&quot;:0};" vertex="1" parent="CfMzGHNIVoaYaAyaY-P1-4">
          <mxGeometry x="481" y="128.7700000000001" width="11.3" height="22.46" as="geometry" />
        </mxCell>
        <mxCell id="FvYf8PEwEiX5Y6GVfXE7-9" value="setGameState(2)" style="html=1;verticalAlign=bottom;startArrow=none;endArrow=open;startSize=8;edgeStyle=elbowEdgeStyle;elbow=vertical;curved=0;rounded=0;startFill=0;endFill=0;" edge="1" parent="CfMzGHNIVoaYaAyaY-P1-4" target="FvYf8PEwEiX5Y6GVfXE7-8">
          <mxGeometry relative="1" as="geometry">
            <mxPoint x="237.26999999999998" y="128.78999999999996" as="sourcePoint" />
          </mxGeometry>
        </mxCell>
        <mxCell id="FvYf8PEwEiX5Y6GVfXE7-4" value=":Bet" style="shape=umlLifeline;perimeter=lifelinePerimeter;whiteSpace=wrap;html=1;container=1;dropTarget=0;collapsible=0;recursiveResize=0;outlineConnect=0;portConstraint=eastwest;newEdgeStyle={&quot;edgeStyle&quot;:&quot;elbowEdgeStyle&quot;,&quot;elbow&quot;:&quot;vertical&quot;,&quot;curved&quot;:0,&quot;rounded&quot;:0};" vertex="1" parent="1">
          <mxGeometry x="730" y="3550" width="100" height="600" as="geometry" />
        </mxCell>
        <mxCell id="FvYf8PEwEiX5Y6GVfXE7-7" value="setGameState(3)" style="html=1;verticalAlign=bottom;startArrow=none;endArrow=open;startSize=8;edgeStyle=elbowEdgeStyle;elbow=vertical;curved=0;rounded=0;startFill=0;endFill=0;" edge="1" parent="1" target="FvYf8PEwEiX5Y6GVfXE7-6">
          <mxGeometry relative="1" as="geometry">
            <mxPoint x="288.35" y="3920.25" as="sourcePoint" />
          </mxGeometry>
        </mxCell>
        <mxCell id="0CEAvyoJreBTmwqNnFpm-8" value="" style="group" vertex="1" connectable="0" parent="1">
          <mxGeometry x="85" y="4880" width="680" height="60" as="geometry" />
        </mxCell>
        <mxCell id="0CEAvyoJreBTmwqNnFpm-9" value="Stand" style="rounded=0;whiteSpace=wrap;html=1;" vertex="1" parent="0CEAvyoJreBTmwqNnFpm-8">
          <mxGeometry width="680" height="60" as="geometry" />
        </mxCell>
        <mxCell id="0CEAvyoJreBTmwqNnFpm-10" value="&lt;b&gt;ref&lt;/b&gt;" style="shape=umlFrame;whiteSpace=wrap;html=1;pointerEvents=0;" vertex="1" parent="0CEAvyoJreBTmwqNnFpm-8">
          <mxGeometry width="680" height="60" as="geometry" />
        </mxCell>
      </root>
    </mxGraphModel>
  </diagram>
  <diagram id="yX5w2ixnc2X-cYj9rU7q" name="design_class_diagram">
    <mxGraphModel dx="1186" dy="812" grid="1" gridSize="10" guides="1" tooltips="1" connect="1" arrows="1" fold="1" page="1" pageScale="1" pageWidth="1100" pageHeight="850" math="0" shadow="0">
      <root>
        <mxCell id="0" />
        <mxCell id="1" parent="0" />
        <mxCell id="tCflyKW4NJ5SablTunIA-1" value="Game" style="swimlane;fontStyle=1;align=center;verticalAlign=top;childLayout=stackLayout;horizontal=1;startSize=26;horizontalStack=0;resizeParent=1;resizeParentMax=0;resizeLast=0;collapsible=1;marginBottom=0;whiteSpace=wrap;html=1;" parent="1" vertex="1">
          <mxGeometry x="10" y="162" width="200" height="190" as="geometry" />
        </mxCell>
        <mxCell id="tCflyKW4NJ5SablTunIA-2" value="" style="line;strokeWidth=1;fillColor=none;align=left;verticalAlign=middle;spacingTop=-1;spacingLeft=3;spacingRight=3;rotatable=0;labelPosition=right;points=[];portConstraint=eastwest;strokeColor=inherit;" parent="tCflyKW4NJ5SablTunIA-1" vertex="1">
          <mxGeometry y="26" width="200" height="8" as="geometry" />
        </mxCell>
        <mxCell id="ZhgqVp4TBcyF4fLMBlXh-3" value="+ startGame(): void" style="text;strokeColor=none;fillColor=none;align=left;verticalAlign=top;spacingLeft=4;spacingRight=4;overflow=hidden;rotatable=0;points=[[0,0.5],[1,0.5]];portConstraint=eastwest;whiteSpace=wrap;html=1;" parent="tCflyKW4NJ5SablTunIA-1" vertex="1">
          <mxGeometry y="34" width="200" height="26" as="geometry" />
        </mxCell>
        <mxCell id="tCflyKW4NJ5SablTunIA-4" value="+ placeBet(chips: List&amp;lt;Chip&amp;gt;): void" style="text;strokeColor=none;fillColor=none;align=left;verticalAlign=top;spacingLeft=4;spacingRight=4;overflow=hidden;rotatable=0;points=[[0,0.5],[1,0.5]];portConstraint=eastwest;whiteSpace=wrap;html=1;" parent="tCflyKW4NJ5SablTunIA-1" vertex="1">
          <mxGeometry y="60" width="200" height="26" as="geometry" />
        </mxCell>
        <mxCell id="tCflyKW4NJ5SablTunIA-5" value="+ startRound(round: int): void" style="text;strokeColor=none;fillColor=none;align=left;verticalAlign=top;spacingLeft=4;spacingRight=4;overflow=hidden;rotatable=0;points=[[0,0.5],[1,0.5]];portConstraint=eastwest;whiteSpace=wrap;html=1;" parent="tCflyKW4NJ5SablTunIA-1" vertex="1">
          <mxGeometry y="86" width="200" height="26" as="geometry" />
        </mxCell>
        <mxCell id="YG77cCl7Us8EuB3u1FXq-1" value="+ hit(): void" style="text;strokeColor=none;fillColor=none;align=left;verticalAlign=top;spacingLeft=4;spacingRight=4;overflow=hidden;rotatable=0;points=[[0,0.5],[1,0.5]];portConstraint=eastwest;whiteSpace=wrap;html=1;" vertex="1" parent="tCflyKW4NJ5SablTunIA-1">
          <mxGeometry y="112" width="200" height="26" as="geometry" />
        </mxCell>
        <mxCell id="YG77cCl7Us8EuB3u1FXq-2" value="+ stand(): void" style="text;strokeColor=none;fillColor=none;align=left;verticalAlign=top;spacingLeft=4;spacingRight=4;overflow=hidden;rotatable=0;points=[[0,0.5],[1,0.5]];portConstraint=eastwest;whiteSpace=wrap;html=1;" vertex="1" parent="tCflyKW4NJ5SablTunIA-1">
          <mxGeometry y="138" width="200" height="26" as="geometry" />
        </mxCell>
        <mxCell id="tCflyKW4NJ5SablTunIA-6" value="+ getReport(): String" style="text;strokeColor=none;fillColor=none;align=left;verticalAlign=top;spacingLeft=4;spacingRight=4;overflow=hidden;rotatable=0;points=[[0,0.5],[1,0.5]];portConstraint=eastwest;whiteSpace=wrap;html=1;" parent="tCflyKW4NJ5SablTunIA-1" vertex="1">
          <mxGeometry y="164" width="200" height="26" as="geometry" />
        </mxCell>
        <mxCell id="tCflyKW4NJ5SablTunIA-7" value="Player" style="swimlane;fontStyle=1;align=center;verticalAlign=top;childLayout=stackLayout;horizontal=1;startSize=26;horizontalStack=0;resizeParent=1;resizeParentMax=0;resizeLast=0;collapsible=1;marginBottom=0;whiteSpace=wrap;html=1;" parent="1" vertex="1">
          <mxGeometry x="280" y="392" width="160" height="138" as="geometry" />
        </mxCell>
        <mxCell id="tCflyKW4NJ5SablTunIA-8" value="- name: String" style="text;strokeColor=none;fillColor=none;align=left;verticalAlign=top;spacingLeft=4;spacingRight=4;overflow=hidden;rotatable=0;points=[[0,0.5],[1,0.5]];portConstraint=eastwest;whiteSpace=wrap;html=1;" parent="tCflyKW4NJ5SablTunIA-7" vertex="1">
          <mxGeometry y="26" width="160" height="26" as="geometry" />
        </mxCell>
        <mxCell id="tCflyKW4NJ5SablTunIA-9" value="" style="line;strokeWidth=1;fillColor=none;align=left;verticalAlign=middle;spacingTop=-1;spacingLeft=3;spacingRight=3;rotatable=0;labelPosition=right;points=[];portConstraint=eastwest;strokeColor=inherit;" parent="tCflyKW4NJ5SablTunIA-7" vertex="1">
          <mxGeometry y="52" width="160" height="8" as="geometry" />
        </mxCell>
        <mxCell id="jZJ8QRMHF9Mhpr9oY-7W-1" value="+ split(): void" style="text;strokeColor=none;fillColor=none;align=left;verticalAlign=top;spacingLeft=4;spacingRight=4;overflow=hidden;rotatable=0;points=[[0,0.5],[1,0.5]];portConstraint=eastwest;whiteSpace=wrap;html=1;" vertex="1" parent="tCflyKW4NJ5SablTunIA-7">
          <mxGeometry y="60" width="160" height="26" as="geometry" />
        </mxCell>
        <mxCell id="jZJ8QRMHF9Mhpr9oY-7W-2" value="+ doubleDown(): void" style="text;strokeColor=none;fillColor=none;align=left;verticalAlign=top;spacingLeft=4;spacingRight=4;overflow=hidden;rotatable=0;points=[[0,0.5],[1,0.5]];portConstraint=eastwest;whiteSpace=wrap;html=1;" vertex="1" parent="tCflyKW4NJ5SablTunIA-7">
          <mxGeometry y="86" width="160" height="26" as="geometry" />
        </mxCell>
        <mxCell id="jZJ8QRMHF9Mhpr9oY-7W-3" value="+ surrender(): void" style="text;strokeColor=none;fillColor=none;align=left;verticalAlign=top;spacingLeft=4;spacingRight=4;overflow=hidden;rotatable=0;points=[[0,0.5],[1,0.5]];portConstraint=eastwest;whiteSpace=wrap;html=1;" vertex="1" parent="tCflyKW4NJ5SablTunIA-7">
          <mxGeometry y="112" width="160" height="26" as="geometry" />
        </mxCell>
        <mxCell id="tCflyKW4NJ5SablTunIA-10" value="Dealer" style="swimlane;fontStyle=1;align=center;verticalAlign=top;childLayout=stackLayout;horizontal=1;startSize=26;horizontalStack=0;resizeParent=1;resizeParentMax=0;resizeLast=0;collapsible=1;marginBottom=0;whiteSpace=wrap;html=1;" parent="1" vertex="1">
          <mxGeometry x="300" y="89" width="160" height="60" as="geometry" />
        </mxCell>
        <mxCell id="tCflyKW4NJ5SablTunIA-11" value="" style="line;strokeWidth=1;fillColor=none;align=left;verticalAlign=middle;spacingTop=-1;spacingLeft=3;spacingRight=3;rotatable=0;labelPosition=right;points=[];portConstraint=eastwest;strokeColor=inherit;" parent="tCflyKW4NJ5SablTunIA-10" vertex="1">
          <mxGeometry y="26" width="160" height="8" as="geometry" />
        </mxCell>
        <mxCell id="YwgAW-r078sCTE4GwzJS-1" value="+ dealCard(): Card" style="text;strokeColor=none;fillColor=none;align=left;verticalAlign=top;spacingLeft=4;spacingRight=4;overflow=hidden;rotatable=0;points=[[0,0.5],[1,0.5]];portConstraint=eastwest;whiteSpace=wrap;html=1;" vertex="1" parent="tCflyKW4NJ5SablTunIA-10">
          <mxGeometry y="34" width="160" height="26" as="geometry" />
        </mxCell>
        <mxCell id="tCflyKW4NJ5SablTunIA-12" value="Bet" style="swimlane;fontStyle=1;align=center;verticalAlign=top;childLayout=stackLayout;horizontal=1;startSize=26;horizontalStack=0;resizeParent=1;resizeParentMax=0;resizeLast=0;collapsible=1;marginBottom=0;whiteSpace=wrap;html=1;" parent="1" vertex="1">
          <mxGeometry x="290" y="188" width="160" height="138" as="geometry" />
        </mxCell>
        <mxCell id="tCflyKW4NJ5SablTunIA-13" value="- amount: int" style="text;strokeColor=none;fillColor=none;align=left;verticalAlign=top;spacingLeft=4;spacingRight=4;overflow=hidden;rotatable=0;points=[[0,0.5],[1,0.5]];portConstraint=eastwest;whiteSpace=wrap;html=1;" parent="tCflyKW4NJ5SablTunIA-12" vertex="1">
          <mxGeometry y="26" width="160" height="26" as="geometry" />
        </mxCell>
        <mxCell id="tCflyKW4NJ5SablTunIA-14" value="" style="line;strokeWidth=1;fillColor=none;align=left;verticalAlign=middle;spacingTop=-1;spacingLeft=3;spacingRight=3;rotatable=0;labelPosition=right;points=[];portConstraint=eastwest;strokeColor=inherit;" parent="tCflyKW4NJ5SablTunIA-12" vertex="1">
          <mxGeometry y="52" width="160" height="8" as="geometry" />
        </mxCell>
        <mxCell id="tCflyKW4NJ5SablTunIA-15" value="+ getDouble(): int" style="text;strokeColor=none;fillColor=none;align=left;verticalAlign=top;spacingLeft=4;spacingRight=4;overflow=hidden;rotatable=0;points=[[0,0.5],[1,0.5]];portConstraint=eastwest;whiteSpace=wrap;html=1;" parent="tCflyKW4NJ5SablTunIA-12" vertex="1">
          <mxGeometry y="60" width="160" height="26" as="geometry" />
        </mxCell>
        <mxCell id="tCflyKW4NJ5SablTunIA-16" value="+ getInitialBet(): int" style="text;strokeColor=none;fillColor=none;align=left;verticalAlign=top;spacingLeft=4;spacingRight=4;overflow=hidden;rotatable=0;points=[[0,0.5],[1,0.5]];portConstraint=eastwest;whiteSpace=wrap;html=1;" parent="tCflyKW4NJ5SablTunIA-12" vertex="1">
          <mxGeometry y="86" width="160" height="26" as="geometry" />
        </mxCell>
        <mxCell id="tCflyKW4NJ5SablTunIA-17" value="+ getHalf(): int" style="text;strokeColor=none;fillColor=none;align=left;verticalAlign=top;spacingLeft=4;spacingRight=4;overflow=hidden;rotatable=0;points=[[0,0.5],[1,0.5]];portConstraint=eastwest;whiteSpace=wrap;html=1;" parent="tCflyKW4NJ5SablTunIA-12" vertex="1">
          <mxGeometry y="112" width="160" height="26" as="geometry" />
        </mxCell>
        <mxCell id="tCflyKW4NJ5SablTunIA-18" value="Safe" style="swimlane;fontStyle=1;align=center;verticalAlign=top;childLayout=stackLayout;horizontal=1;startSize=26;horizontalStack=0;resizeParent=1;resizeParentMax=0;resizeLast=0;collapsible=1;marginBottom=0;whiteSpace=wrap;html=1;" parent="1" vertex="1">
          <mxGeometry x="490" y="510" width="160" height="138" as="geometry" />
        </mxCell>
        <mxCell id="tCflyKW4NJ5SablTunIA-19" value="- balance: int" style="text;strokeColor=none;fillColor=none;align=left;verticalAlign=top;spacingLeft=4;spacingRight=4;overflow=hidden;rotatable=0;points=[[0,0.5],[1,0.5]];portConstraint=eastwest;whiteSpace=wrap;html=1;" parent="tCflyKW4NJ5SablTunIA-18" vertex="1">
          <mxGeometry y="26" width="160" height="26" as="geometry" />
        </mxCell>
        <mxCell id="tCflyKW4NJ5SablTunIA-20" value="" style="line;strokeWidth=1;fillColor=none;align=left;verticalAlign=middle;spacingTop=-1;spacingLeft=3;spacingRight=3;rotatable=0;labelPosition=right;points=[];portConstraint=eastwest;strokeColor=inherit;" parent="tCflyKW4NJ5SablTunIA-18" vertex="1">
          <mxGeometry y="52" width="160" height="8" as="geometry" />
        </mxCell>
        <mxCell id="tCflyKW4NJ5SablTunIA-21" value="+ Safe()" style="text;strokeColor=none;fillColor=none;align=left;verticalAlign=top;spacingLeft=4;spacingRight=4;overflow=hidden;rotatable=0;points=[[0,0.5],[1,0.5]];portConstraint=eastwest;whiteSpace=wrap;html=1;" parent="tCflyKW4NJ5SablTunIA-18" vertex="1">
          <mxGeometry y="60" width="160" height="26" as="geometry" />
        </mxCell>
        <mxCell id="tCflyKW4NJ5SablTunIA-22" value="+ setChip(value: int)" style="text;strokeColor=none;fillColor=none;align=left;verticalAlign=top;spacingLeft=4;spacingRight=4;overflow=hidden;rotatable=0;points=[[0,0.5],[1,0.5]];portConstraint=eastwest;whiteSpace=wrap;html=1;" parent="tCflyKW4NJ5SablTunIA-18" vertex="1">
          <mxGeometry y="86" width="160" height="26" as="geometry" />
        </mxCell>
        <mxCell id="ywezovwVp0_dba5MfZRh-1" value="+ getChip(value: int)" style="text;strokeColor=none;fillColor=none;align=left;verticalAlign=top;spacingLeft=4;spacingRight=4;overflow=hidden;rotatable=0;points=[[0,0.5],[1,0.5]];portConstraint=eastwest;whiteSpace=wrap;html=1;" vertex="1" parent="tCflyKW4NJ5SablTunIA-18">
          <mxGeometry y="112" width="160" height="26" as="geometry" />
        </mxCell>
        <mxCell id="tCflyKW4NJ5SablTunIA-23" value="Deck" style="swimlane;fontStyle=1;align=center;verticalAlign=top;childLayout=stackLayout;horizontal=1;startSize=26;horizontalStack=0;resizeParent=1;resizeParentMax=0;resizeLast=0;collapsible=1;marginBottom=0;whiteSpace=wrap;html=1;" parent="1" vertex="1">
          <mxGeometry x="740" y="188" width="145" height="138" as="geometry" />
        </mxCell>
        <mxCell id="-mJrdyQ3aU1VYNOPDsgk-3" value="- numOfCards: int" style="text;strokeColor=none;fillColor=none;align=left;verticalAlign=top;spacingLeft=4;spacingRight=4;overflow=hidden;rotatable=0;points=[[0,0.5],[1,0.5]];portConstraint=eastwest;whiteSpace=wrap;html=1;" parent="tCflyKW4NJ5SablTunIA-23" vertex="1">
          <mxGeometry y="26" width="145" height="26" as="geometry" />
        </mxCell>
        <mxCell id="tCflyKW4NJ5SablTunIA-24" value="" style="line;strokeWidth=1;fillColor=none;align=left;verticalAlign=middle;spacingTop=-1;spacingLeft=3;spacingRight=3;rotatable=0;labelPosition=right;points=[];portConstraint=eastwest;strokeColor=inherit;" parent="tCflyKW4NJ5SablTunIA-23" vertex="1">
          <mxGeometry y="52" width="145" height="8" as="geometry" />
        </mxCell>
        <mxCell id="tCflyKW4NJ5SablTunIA-25" value="+ shuffle()" style="text;strokeColor=none;fillColor=none;align=left;verticalAlign=top;spacingLeft=4;spacingRight=4;overflow=hidden;rotatable=0;points=[[0,0.5],[1,0.5]];portConstraint=eastwest;whiteSpace=wrap;html=1;" parent="tCflyKW4NJ5SablTunIA-23" vertex="1">
          <mxGeometry y="60" width="145" height="26" as="geometry" />
        </mxCell>
        <mxCell id="tCflyKW4NJ5SablTunIA-26" value="+ drawCard(): Card" style="text;strokeColor=none;fillColor=none;align=left;verticalAlign=top;spacingLeft=4;spacingRight=4;overflow=hidden;rotatable=0;points=[[0,0.5],[1,0.5]];portConstraint=eastwest;whiteSpace=wrap;html=1;" parent="tCflyKW4NJ5SablTunIA-23" vertex="1">
          <mxGeometry y="86" width="145" height="26" as="geometry" />
        </mxCell>
        <mxCell id="tCflyKW4NJ5SablTunIA-27" value="&lt;div&gt;+ getCards(): List&amp;lt;Card&amp;gt;&lt;/div&gt;&lt;div&gt;&lt;br&gt;&lt;/div&gt;" style="text;strokeColor=none;fillColor=none;align=left;verticalAlign=top;spacingLeft=4;spacingRight=4;overflow=hidden;rotatable=0;points=[[0,0.5],[1,0.5]];portConstraint=eastwest;whiteSpace=wrap;html=1;" parent="tCflyKW4NJ5SablTunIA-23" vertex="1">
          <mxGeometry y="112" width="145" height="26" as="geometry" />
        </mxCell>
        <mxCell id="tCflyKW4NJ5SablTunIA-28" value="Chip" style="swimlane;fontStyle=1;align=center;verticalAlign=top;childLayout=stackLayout;horizontal=1;startSize=26;horizontalStack=0;resizeParent=1;resizeParentMax=0;resizeLast=0;collapsible=1;marginBottom=0;whiteSpace=wrap;html=1;" parent="1" vertex="1">
          <mxGeometry x="710" y="523" width="160" height="86" as="geometry" />
        </mxCell>
        <mxCell id="tCflyKW4NJ5SablTunIA-29" value="- value: int" style="text;strokeColor=none;fillColor=none;align=left;verticalAlign=top;spacingLeft=4;spacingRight=4;overflow=hidden;rotatable=0;points=[[0,0.5],[1,0.5]];portConstraint=eastwest;whiteSpace=wrap;html=1;" parent="tCflyKW4NJ5SablTunIA-28" vertex="1">
          <mxGeometry y="26" width="160" height="26" as="geometry" />
        </mxCell>
        <mxCell id="tCflyKW4NJ5SablTunIA-30" value="" style="line;strokeWidth=1;fillColor=none;align=left;verticalAlign=middle;spacingTop=-1;spacingLeft=3;spacingRight=3;rotatable=0;labelPosition=right;points=[];portConstraint=eastwest;strokeColor=inherit;" parent="tCflyKW4NJ5SablTunIA-28" vertex="1">
          <mxGeometry y="52" width="160" height="8" as="geometry" />
        </mxCell>
        <mxCell id="tCflyKW4NJ5SablTunIA-31" value="+ Chip(value: int)" style="text;strokeColor=none;fillColor=none;align=left;verticalAlign=top;spacingLeft=4;spacingRight=4;overflow=hidden;rotatable=0;points=[[0,0.5],[1,0.5]];portConstraint=eastwest;whiteSpace=wrap;html=1;" parent="tCflyKW4NJ5SablTunIA-28" vertex="1">
          <mxGeometry y="60" width="160" height="26" as="geometry" />
        </mxCell>
        <mxCell id="tCflyKW4NJ5SablTunIA-32" value="Card" style="swimlane;fontStyle=1;align=center;verticalAlign=top;childLayout=stackLayout;horizontal=1;startSize=26;horizontalStack=0;resizeParent=1;resizeParentMax=0;resizeLast=0;collapsible=1;marginBottom=0;whiteSpace=wrap;html=1;" parent="1" vertex="1">
          <mxGeometry x="927.5" y="340" width="120" height="138" as="geometry" />
        </mxCell>
        <mxCell id="tCflyKW4NJ5SablTunIA-33" value="- suit: int" style="text;strokeColor=none;fillColor=none;align=left;verticalAlign=top;spacingLeft=4;spacingRight=4;overflow=hidden;rotatable=0;points=[[0,0.5],[1,0.5]];portConstraint=eastwest;whiteSpace=wrap;html=1;" parent="tCflyKW4NJ5SablTunIA-32" vertex="1">
          <mxGeometry y="26" width="120" height="26" as="geometry" />
        </mxCell>
        <mxCell id="tCflyKW4NJ5SablTunIA-34" value="- rank: int" style="text;strokeColor=none;fillColor=none;align=left;verticalAlign=top;spacingLeft=4;spacingRight=4;overflow=hidden;rotatable=0;points=[[0,0.5],[1,0.5]];portConstraint=eastwest;whiteSpace=wrap;html=1;" parent="tCflyKW4NJ5SablTunIA-32" vertex="1">
          <mxGeometry y="52" width="120" height="26" as="geometry" />
        </mxCell>
        <mxCell id="tCflyKW4NJ5SablTunIA-35" value="/ value: int" style="text;strokeColor=none;fillColor=none;align=left;verticalAlign=top;spacingLeft=4;spacingRight=4;overflow=hidden;rotatable=0;points=[[0,0.5],[1,0.5]];portConstraint=eastwest;whiteSpace=wrap;html=1;" parent="tCflyKW4NJ5SablTunIA-32" vertex="1">
          <mxGeometry y="78" width="120" height="26" as="geometry" />
        </mxCell>
        <mxCell id="NbZMfGdfdiLOW3p82viK-1" value="- isFaceUp:&amp;nbsp;boolean" style="text;strokeColor=none;fillColor=none;align=left;verticalAlign=top;spacingLeft=4;spacingRight=4;overflow=hidden;rotatable=0;points=[[0,0.5],[1,0.5]];portConstraint=eastwest;whiteSpace=wrap;html=1;" vertex="1" parent="tCflyKW4NJ5SablTunIA-32">
          <mxGeometry y="104" width="120" height="26" as="geometry" />
        </mxCell>
        <mxCell id="tCflyKW4NJ5SablTunIA-36" value="" style="line;strokeWidth=1;fillColor=none;align=left;verticalAlign=middle;spacingTop=-1;spacingLeft=3;spacingRight=3;rotatable=0;labelPosition=right;points=[];portConstraint=eastwest;strokeColor=inherit;" parent="tCflyKW4NJ5SablTunIA-32" vertex="1">
          <mxGeometry y="130" width="120" height="8" as="geometry" />
        </mxCell>
        <mxCell id="tCflyKW4NJ5SablTunIA-37" value="Hand" style="swimlane;fontStyle=1;align=center;verticalAlign=top;childLayout=stackLayout;horizontal=1;startSize=26;horizontalStack=0;resizeParent=1;resizeParentMax=0;resizeLast=0;collapsible=1;marginBottom=0;whiteSpace=wrap;html=1;" parent="1" vertex="1">
          <mxGeometry x="540" y="296" width="190" height="138" as="geometry" />
        </mxCell>
        <mxCell id="tCflyKW4NJ5SablTunIA-38" value="" style="line;strokeWidth=1;fillColor=none;align=left;verticalAlign=middle;spacingTop=-1;spacingLeft=3;spacingRight=3;rotatable=0;labelPosition=right;points=[];portConstraint=eastwest;strokeColor=inherit;" parent="tCflyKW4NJ5SablTunIA-37" vertex="1">
          <mxGeometry y="26" width="190" height="8" as="geometry" />
        </mxCell>
        <mxCell id="tCflyKW4NJ5SablTunIA-39" value="+ Hand(card1: Card, card2: Card)" style="text;strokeColor=none;fillColor=none;align=left;verticalAlign=top;spacingLeft=4;spacingRight=4;overflow=hidden;rotatable=0;points=[[0,0.5],[1,0.5]];portConstraint=eastwest;whiteSpace=wrap;html=1;" parent="tCflyKW4NJ5SablTunIA-37" vertex="1">
          <mxGeometry y="34" width="190" height="26" as="geometry" />
        </mxCell>
        <mxCell id="tCflyKW4NJ5SablTunIA-40" value="+ addCard(card: Card)" style="text;strokeColor=none;fillColor=none;align=left;verticalAlign=top;spacingLeft=4;spacingRight=4;overflow=hidden;rotatable=0;points=[[0,0.5],[1,0.5]];portConstraint=eastwest;whiteSpace=wrap;html=1;" parent="tCflyKW4NJ5SablTunIA-37" vertex="1">
          <mxGeometry y="60" width="190" height="26" as="geometry" />
        </mxCell>
        <mxCell id="tCflyKW4NJ5SablTunIA-41" value="+ removeCard(card: Card)" style="text;strokeColor=none;fillColor=none;align=left;verticalAlign=top;spacingLeft=4;spacingRight=4;overflow=hidden;rotatable=0;points=[[0,0.5],[1,0.5]];portConstraint=eastwest;whiteSpace=wrap;html=1;" parent="tCflyKW4NJ5SablTunIA-37" vertex="1">
          <mxGeometry y="86" width="190" height="26" as="geometry" />
        </mxCell>
        <mxCell id="tCflyKW4NJ5SablTunIA-42" value="+ getCards(): List&amp;lt;Card&amp;gt;" style="text;strokeColor=none;fillColor=none;align=left;verticalAlign=top;spacingLeft=4;spacingRight=4;overflow=hidden;rotatable=0;points=[[0,0.5],[1,0.5]];portConstraint=eastwest;whiteSpace=wrap;html=1;" parent="tCflyKW4NJ5SablTunIA-37" vertex="1">
          <mxGeometry y="112" width="190" height="26" as="geometry" />
        </mxCell>
        <mxCell id="tCflyKW4NJ5SablTunIA-44" value="&lt;div&gt;&lt;span style=&quot;background-color: initial;&quot;&gt;* Player must have their safe since they cannot play the game without it.&lt;/span&gt;&lt;/div&gt;&lt;div&gt;&lt;span style=&quot;background-color: initial;&quot;&gt;** Player&#39;s hand is not mandatory before game starts&lt;/span&gt;&lt;/div&gt;" style="shape=note;size=20;whiteSpace=wrap;html=1;labelBackgroundColor=none;fillColor=#182E3E;strokeColor=#FFFFFF;fontColor=#FFFFFF;" parent="1" vertex="1">
          <mxGeometry x="230" y="540" width="200" height="100" as="geometry" />
        </mxCell>
        <mxCell id="tCflyKW4NJ5SablTunIA-45" value="" style="endArrow=open;html=1;rounded=0;endFill=0;startArrow=diamond;startFill=0;" parent="1" source="tCflyKW4NJ5SablTunIA-1" target="tCflyKW4NJ5SablTunIA-10" edge="1">
          <mxGeometry relative="1" as="geometry">
            <mxPoint x="120" y="110" as="sourcePoint" />
            <mxPoint x="260" y="110" as="targetPoint" />
          </mxGeometry>
        </mxCell>
        <mxCell id="tCflyKW4NJ5SablTunIA-46" value="dealer" style="edgeLabel;resizable=0;html=1;align=center;verticalAlign=middle;" parent="tCflyKW4NJ5SablTunIA-45" connectable="0" vertex="1">
          <mxGeometry relative="1" as="geometry">
            <mxPoint x="2" y="-9" as="offset" />
          </mxGeometry>
        </mxCell>
        <mxCell id="tCflyKW4NJ5SablTunIA-47" value="1" style="edgeLabel;resizable=0;html=1;align=right;verticalAlign=bottom;" parent="tCflyKW4NJ5SablTunIA-45" connectable="0" vertex="1">
          <mxGeometry x="1" relative="1" as="geometry">
            <mxPoint x="-11" y="18" as="offset" />
          </mxGeometry>
        </mxCell>
        <mxCell id="tCflyKW4NJ5SablTunIA-48" value="" style="endArrow=open;html=1;rounded=0;endFill=0;startArrow=diamond;startFill=0;" parent="1" source="tCflyKW4NJ5SablTunIA-1" target="tCflyKW4NJ5SablTunIA-12" edge="1">
          <mxGeometry relative="1" as="geometry">
            <mxPoint x="90" y="310" as="sourcePoint" />
            <mxPoint x="230" y="310" as="targetPoint" />
          </mxGeometry>
        </mxCell>
        <mxCell id="tCflyKW4NJ5SablTunIA-49" value="bet" style="edgeLabel;resizable=0;html=1;align=center;verticalAlign=middle;" parent="tCflyKW4NJ5SablTunIA-48" connectable="0" vertex="1">
          <mxGeometry relative="1" as="geometry">
            <mxPoint x="9" y="-9" as="offset" />
          </mxGeometry>
        </mxCell>
        <mxCell id="tCflyKW4NJ5SablTunIA-50" value="1" style="edgeLabel;resizable=0;html=1;align=right;verticalAlign=bottom;" parent="tCflyKW4NJ5SablTunIA-48" connectable="0" vertex="1">
          <mxGeometry x="1" relative="1" as="geometry">
            <mxPoint x="-10" y="-14" as="offset" />
          </mxGeometry>
        </mxCell>
        <mxCell id="tCflyKW4NJ5SablTunIA-51" value="" style="endArrow=open;html=1;rounded=0;endFill=0;startArrow=diamond;startFill=1;" parent="1" source="tCflyKW4NJ5SablTunIA-1" target="tCflyKW4NJ5SablTunIA-7" edge="1">
          <mxGeometry relative="1" as="geometry">
            <mxPoint x="50" y="390" as="sourcePoint" />
            <mxPoint x="190" y="390" as="targetPoint" />
          </mxGeometry>
        </mxCell>
        <mxCell id="tCflyKW4NJ5SablTunIA-52" value="player" style="edgeLabel;resizable=0;html=1;align=center;verticalAlign=middle;" parent="tCflyKW4NJ5SablTunIA-51" connectable="0" vertex="1">
          <mxGeometry relative="1" as="geometry">
            <mxPoint x="-15" y="13" as="offset" />
          </mxGeometry>
        </mxCell>
        <mxCell id="tCflyKW4NJ5SablTunIA-53" value="1" style="edgeLabel;resizable=0;html=1;align=right;verticalAlign=bottom;" parent="tCflyKW4NJ5SablTunIA-51" connectable="0" vertex="1">
          <mxGeometry x="1" relative="1" as="geometry">
            <mxPoint x="12" y="-3" as="offset" />
          </mxGeometry>
        </mxCell>
        <mxCell id="tCflyKW4NJ5SablTunIA-54" value="&lt;i&gt;GameObject&lt;/i&gt;" style="swimlane;html=1;fontStyle=1;align=center;verticalAlign=top;childLayout=stackLayout;horizontal=1;startSize=26;horizontalStack=0;resizeParent=1;resizeLast=0;collapsible=1;marginBottom=0;swimlaneFillColor=#ffffff;rounded=0;shadow=0;comic=0;labelBackgroundColor=none;strokeWidth=1;fillColor=none;fontFamily=Verdana;fontSize=12" parent="1" vertex="1">
          <mxGeometry x="605" y="63" width="160" height="86" as="geometry" />
        </mxCell>
        <mxCell id="iIXmJbExbQStG3d0n2Wg-1" value="- gameState: int" style="text;html=1;strokeColor=none;fillColor=none;align=left;verticalAlign=top;spacingLeft=4;spacingRight=4;whiteSpace=wrap;overflow=hidden;rotatable=0;points=[[0,0.5],[1,0.5]];portConstraint=eastwest;" vertex="1" parent="tCflyKW4NJ5SablTunIA-54">
          <mxGeometry y="26" width="160" height="26" as="geometry" />
        </mxCell>
        <mxCell id="tCflyKW4NJ5SablTunIA-55" value="- additionalState: int" style="text;html=1;strokeColor=none;fillColor=none;align=left;verticalAlign=top;spacingLeft=4;spacingRight=4;whiteSpace=wrap;overflow=hidden;rotatable=0;points=[[0,0.5],[1,0.5]];portConstraint=eastwest;" parent="tCflyKW4NJ5SablTunIA-54" vertex="1">
          <mxGeometry y="52" width="160" height="26" as="geometry" />
        </mxCell>
        <mxCell id="tCflyKW4NJ5SablTunIA-56" value="" style="line;html=1;strokeWidth=1;fillColor=none;align=left;verticalAlign=middle;spacingTop=-1;spacingLeft=3;spacingRight=3;rotatable=0;labelPosition=right;points=[];portConstraint=eastwest;" parent="tCflyKW4NJ5SablTunIA-54" vertex="1">
          <mxGeometry y="78" width="160" height="8" as="geometry" />
        </mxCell>
        <mxCell id="tCflyKW4NJ5SablTunIA-59" value="&lt;div&gt;&lt;span style=&quot;font-weight: normal;&quot;&gt;&amp;lt;&amp;lt;interface&amp;gt;&amp;gt;&lt;/span&gt;&lt;/div&gt;&lt;div&gt;&lt;i&gt;Valueable&lt;/i&gt;&lt;/div&gt;" style="swimlane;html=1;fontStyle=1;align=center;verticalAlign=top;childLayout=stackLayout;horizontal=1;startSize=40;horizontalStack=0;resizeParent=1;resizeLast=0;collapsible=1;marginBottom=0;swimlaneFillColor=#ffffff;rounded=0;shadow=0;comic=0;labelBackgroundColor=none;strokeWidth=1;fillColor=none;fontFamily=Verdana;fontSize=12" parent="1" vertex="1">
          <mxGeometry x="927.5" y="510" width="160" height="80" as="geometry" />
        </mxCell>
        <mxCell id="tCflyKW4NJ5SablTunIA-60" value="" style="line;html=1;strokeWidth=1;fillColor=none;align=left;verticalAlign=middle;spacingTop=-1;spacingLeft=3;spacingRight=3;rotatable=0;labelPosition=right;points=[];portConstraint=eastwest;" parent="tCflyKW4NJ5SablTunIA-59" vertex="1">
          <mxGeometry y="40" width="160" height="8" as="geometry" />
        </mxCell>
        <mxCell id="tCflyKW4NJ5SablTunIA-61" value="&lt;i&gt;+ getValue(): int&amp;nbsp;&lt;/i&gt;" style="text;html=1;strokeColor=none;fillColor=none;align=left;verticalAlign=top;spacingLeft=4;spacingRight=4;whiteSpace=wrap;overflow=hidden;rotatable=0;points=[[0,0.5],[1,0.5]];portConstraint=eastwest;" parent="tCflyKW4NJ5SablTunIA-59" vertex="1">
          <mxGeometry y="48" width="160" height="26" as="geometry" />
        </mxCell>
        <mxCell id="tCflyKW4NJ5SablTunIA-62" value="Abstract class to represent either player or dealer are playable (able to report their game state and additional state)" style="shape=note;size=20;whiteSpace=wrap;html=1;labelBackgroundColor=none;fillColor=#182E3E;strokeColor=#FFFFFF;fontColor=#FFFFFF;" parent="1" vertex="1">
          <mxGeometry x="770" y="50" width="230" height="90" as="geometry" />
        </mxCell>
        <mxCell id="tCflyKW4NJ5SablTunIA-63" value="Interface to represent any obects having its value within the game" style="shape=note;size=20;whiteSpace=wrap;html=1;labelBackgroundColor=none;fillColor=#182E3E;strokeColor=#FFFFFF;fontColor=#FFFFFF;" parent="1" vertex="1">
          <mxGeometry x="897.5" y="600" width="190" height="80" as="geometry" />
        </mxCell>
        <mxCell id="tCflyKW4NJ5SablTunIA-64" value="" style="endArrow=block;html=1;rounded=0;endFill=0;" parent="1" source="tCflyKW4NJ5SablTunIA-10" target="tCflyKW4NJ5SablTunIA-54" edge="1">
          <mxGeometry relative="1" as="geometry">
            <mxPoint x="450" y="105.41" as="sourcePoint" />
            <mxPoint x="585" y="105.69999999999996" as="targetPoint" />
          </mxGeometry>
        </mxCell>
        <mxCell id="tCflyKW4NJ5SablTunIA-65" value="" style="endArrow=block;html=1;rounded=0;dashed=1;endFill=0;" parent="1" source="tCflyKW4NJ5SablTunIA-32" target="tCflyKW4NJ5SablTunIA-59" edge="1">
          <mxGeometry relative="1" as="geometry">
            <mxPoint x="1040" y="480" as="sourcePoint" />
            <mxPoint x="1110" y="550" as="targetPoint" />
          </mxGeometry>
        </mxCell>
        <mxCell id="tCflyKW4NJ5SablTunIA-66" value="" style="endArrow=block;html=1;rounded=0;dashed=1;endFill=0;" parent="1" source="tCflyKW4NJ5SablTunIA-28" target="tCflyKW4NJ5SablTunIA-59" edge="1">
          <mxGeometry relative="1" as="geometry">
            <mxPoint x="1013" y="650" as="sourcePoint" />
            <mxPoint x="1145" y="650.29" as="targetPoint" />
          </mxGeometry>
        </mxCell>
        <mxCell id="tCflyKW4NJ5SablTunIA-67" value="" style="endArrow=open;html=1;rounded=0;endFill=0;startArrow=diamond;startFill=1;" parent="1" source="tCflyKW4NJ5SablTunIA-10" target="tCflyKW4NJ5SablTunIA-37" edge="1">
          <mxGeometry relative="1" as="geometry">
            <mxPoint x="435" y="118.41" as="sourcePoint" />
            <mxPoint x="575" y="118.41" as="targetPoint" />
          </mxGeometry>
        </mxCell>
        <mxCell id="tCflyKW4NJ5SablTunIA-68" value="hands" style="edgeLabel;resizable=0;html=1;align=center;verticalAlign=middle;" parent="tCflyKW4NJ5SablTunIA-67" connectable="0" vertex="1">
          <mxGeometry relative="1" as="geometry">
            <mxPoint x="7" y="-14" as="offset" />
          </mxGeometry>
        </mxCell>
        <mxCell id="tCflyKW4NJ5SablTunIA-69" value="1" style="edgeLabel;resizable=0;html=1;align=right;verticalAlign=bottom;" parent="tCflyKW4NJ5SablTunIA-67" connectable="0" vertex="1">
          <mxGeometry x="1" relative="1" as="geometry">
            <mxPoint x="-17" y="2" as="offset" />
          </mxGeometry>
        </mxCell>
        <mxCell id="tCflyKW4NJ5SablTunIA-70" value="" style="endArrow=open;html=1;rounded=0;endFill=0;startArrow=diamond;startFill=0;" parent="1" source="tCflyKW4NJ5SablTunIA-7" target="tCflyKW4NJ5SablTunIA-37" edge="1">
          <mxGeometry relative="1" as="geometry">
            <mxPoint x="430" y="440" as="sourcePoint" />
            <mxPoint x="570" y="440" as="targetPoint" />
          </mxGeometry>
        </mxCell>
        <mxCell id="tCflyKW4NJ5SablTunIA-71" value="hands" style="edgeLabel;resizable=0;html=1;align=center;verticalAlign=middle;" parent="tCflyKW4NJ5SablTunIA-70" connectable="0" vertex="1">
          <mxGeometry relative="1" as="geometry">
            <mxPoint x="2" y="11" as="offset" />
          </mxGeometry>
        </mxCell>
        <mxCell id="tCflyKW4NJ5SablTunIA-72" value="0...2" style="edgeLabel;resizable=0;html=1;align=right;verticalAlign=bottom;" parent="tCflyKW4NJ5SablTunIA-70" connectable="0" vertex="1">
          <mxGeometry x="1" relative="1" as="geometry">
            <mxPoint x="-7" y="2" as="offset" />
          </mxGeometry>
        </mxCell>
        <mxCell id="tCflyKW4NJ5SablTunIA-73" value="" style="endArrow=block;html=1;rounded=0;endFill=0;" parent="1" source="tCflyKW4NJ5SablTunIA-7" target="tCflyKW4NJ5SablTunIA-54" edge="1">
          <mxGeometry relative="1" as="geometry">
            <mxPoint x="460" y="115.41" as="sourcePoint" />
            <mxPoint x="595" y="115.69999999999996" as="targetPoint" />
          </mxGeometry>
        </mxCell>
        <mxCell id="tCflyKW4NJ5SablTunIA-74" value="" style="endArrow=open;html=1;rounded=0;endFill=0;startArrow=diamond;startFill=0;" parent="1" source="tCflyKW4NJ5SablTunIA-23" target="tCflyKW4NJ5SablTunIA-32" edge="1">
          <mxGeometry relative="1" as="geometry">
            <mxPoint x="780" y="407" as="sourcePoint" />
            <mxPoint x="831" y="455" as="targetPoint" />
          </mxGeometry>
        </mxCell>
        <mxCell id="tCflyKW4NJ5SablTunIA-75" value="cards" style="edgeLabel;resizable=0;html=1;align=center;verticalAlign=middle;" parent="tCflyKW4NJ5SablTunIA-74" connectable="0" vertex="1">
          <mxGeometry relative="1" as="geometry">
            <mxPoint y="-17" as="offset" />
          </mxGeometry>
        </mxCell>
        <mxCell id="tCflyKW4NJ5SablTunIA-76" value="0...52" style="edgeLabel;resizable=0;html=1;align=right;verticalAlign=bottom;" parent="tCflyKW4NJ5SablTunIA-74" connectable="0" vertex="1">
          <mxGeometry x="1" relative="1" as="geometry">
            <mxPoint x="-11" y="8" as="offset" />
          </mxGeometry>
        </mxCell>
        <mxCell id="tCflyKW4NJ5SablTunIA-77" value="" style="endArrow=open;html=1;rounded=0;endFill=0;startArrow=diamond;startFill=1;" parent="1" source="tCflyKW4NJ5SablTunIA-7" target="tCflyKW4NJ5SablTunIA-18" edge="1">
          <mxGeometry relative="1" as="geometry">
            <mxPoint x="450" y="519" as="sourcePoint" />
            <mxPoint x="620" y="466" as="targetPoint" />
          </mxGeometry>
        </mxCell>
        <mxCell id="tCflyKW4NJ5SablTunIA-78" value="safe" style="edgeLabel;resizable=0;html=1;align=center;verticalAlign=middle;" parent="tCflyKW4NJ5SablTunIA-77" connectable="0" vertex="1">
          <mxGeometry relative="1" as="geometry">
            <mxPoint x="2" y="11" as="offset" />
          </mxGeometry>
        </mxCell>
        <mxCell id="tCflyKW4NJ5SablTunIA-79" value="1" style="edgeLabel;resizable=0;html=1;align=right;verticalAlign=bottom;" parent="tCflyKW4NJ5SablTunIA-77" connectable="0" vertex="1">
          <mxGeometry x="1" relative="1" as="geometry">
            <mxPoint x="-11" y="25" as="offset" />
          </mxGeometry>
        </mxCell>
        <mxCell id="tCflyKW4NJ5SablTunIA-80" value="&lt;div&gt;&lt;b&gt;Requirements&lt;/b&gt;&lt;/div&gt;&lt;div&gt;1. Displaying the game screen&lt;/div&gt;&lt;div&gt;&lt;span style=&quot;&quot;&gt;2.&amp;nbsp;&lt;/span&gt;Displaying and moving the player sprite&amp;nbsp;&lt;/div&gt;&lt;div&gt;&lt;span style=&quot;&quot;&gt;3.&amp;nbsp;&lt;/span&gt;Displaying other attributes within the game&amp;nbsp;&amp;nbsp;&lt;/div&gt;&lt;div&gt;&lt;span style=&quot;&quot;&gt;4.&amp;nbsp;&lt;/span&gt;Displaying the player&#39;s score or other state variables within the game&lt;/div&gt;" style="shape=note;size=20;whiteSpace=wrap;html=1;labelBackgroundColor=none;align=center;" parent="1" vertex="1">
          <mxGeometry x="30" y="650" width="400" height="100" as="geometry" />
        </mxCell>
        <mxCell id="tCflyKW4NJ5SablTunIA-81" value="" style="endArrow=open;html=1;rounded=0;endFill=0;startArrow=diamond;startFill=0;" parent="1" source="tCflyKW4NJ5SablTunIA-18" target="tCflyKW4NJ5SablTunIA-28" edge="1">
          <mxGeometry relative="1" as="geometry">
            <mxPoint x="790" y="459.5" as="sourcePoint" />
            <mxPoint x="850" y="459.5" as="targetPoint" />
          </mxGeometry>
        </mxCell>
        <mxCell id="tCflyKW4NJ5SablTunIA-82" value="chips" style="edgeLabel;resizable=0;html=1;align=center;verticalAlign=middle;" parent="tCflyKW4NJ5SablTunIA-81" connectable="0" vertex="1">
          <mxGeometry relative="1" as="geometry">
            <mxPoint x="2" y="-10" as="offset" />
          </mxGeometry>
        </mxCell>
        <mxCell id="tCflyKW4NJ5SablTunIA-83" value="*" style="edgeLabel;resizable=0;html=1;align=right;verticalAlign=bottom;" parent="tCflyKW4NJ5SablTunIA-81" connectable="0" vertex="1">
          <mxGeometry x="1" relative="1" as="geometry">
            <mxPoint x="-4" y="20" as="offset" />
          </mxGeometry>
        </mxCell>
        <mxCell id="tCflyKW4NJ5SablTunIA-84" value="" style="endArrow=open;html=1;rounded=0;endFill=0;dashed=1;" parent="1" source="tCflyKW4NJ5SablTunIA-1" target="tCflyKW4NJ5SablTunIA-28" edge="1">
          <mxGeometry relative="1" as="geometry">
            <mxPoint x="670" y="730" as="sourcePoint" />
            <mxPoint x="760" y="720" as="targetPoint" />
          </mxGeometry>
        </mxCell>
        <mxCell id="tCflyKW4NJ5SablTunIA-85" value="" style="endArrow=open;html=1;rounded=0;endFill=0;startArrow=diamond;startFill=0;" parent="1" source="tCflyKW4NJ5SablTunIA-37" target="tCflyKW4NJ5SablTunIA-32" edge="1">
          <mxGeometry relative="1" as="geometry">
            <mxPoint x="870" y="437" as="sourcePoint" />
            <mxPoint x="915" y="409" as="targetPoint" />
          </mxGeometry>
        </mxCell>
        <mxCell id="tCflyKW4NJ5SablTunIA-86" value="cards" style="edgeLabel;resizable=0;html=1;align=center;verticalAlign=middle;" parent="tCflyKW4NJ5SablTunIA-85" connectable="0" vertex="1">
          <mxGeometry relative="1" as="geometry">
            <mxPoint x="2" y="-10" as="offset" />
          </mxGeometry>
        </mxCell>
        <mxCell id="tCflyKW4NJ5SablTunIA-87" value="2...*" style="edgeLabel;html=1;align=center;verticalAlign=middle;resizable=0;points=[];" parent="tCflyKW4NJ5SablTunIA-85" vertex="1" connectable="0">
          <mxGeometry x="0.9464" y="-12" relative="1" as="geometry">
            <mxPoint x="-14" as="offset" />
          </mxGeometry>
        </mxCell>
        <mxCell id="tCflyKW4NJ5SablTunIA-88" value="&lt;div&gt;&lt;span style=&quot;background-color: initial;&quot;&gt;* Dealer must have a deck since they cannot play the game without it.&lt;/span&gt;&lt;/div&gt;" style="shape=note;size=20;whiteSpace=wrap;html=1;labelBackgroundColor=none;fillColor=#182E3E;strokeColor=#FFFFFF;fontColor=#FFFFFF;" parent="1" vertex="1">
          <mxGeometry x="280" width="150" height="80" as="geometry" />
        </mxCell>
        <mxCell id="tCflyKW4NJ5SablTunIA-89" value="" style="endArrow=open;html=1;rounded=0;endFill=0;startArrow=diamond;startFill=1;" parent="1" source="tCflyKW4NJ5SablTunIA-10" target="tCflyKW4NJ5SablTunIA-23" edge="1">
          <mxGeometry relative="1" as="geometry">
            <mxPoint x="450" y="127" as="sourcePoint" />
            <mxPoint x="696" y="342" as="targetPoint" />
          </mxGeometry>
        </mxCell>
        <mxCell id="tCflyKW4NJ5SablTunIA-90" value="deck" style="edgeLabel;resizable=0;html=1;align=center;verticalAlign=middle;" parent="tCflyKW4NJ5SablTunIA-89" connectable="0" vertex="1">
          <mxGeometry relative="1" as="geometry">
            <mxPoint x="31" y="23" as="offset" />
          </mxGeometry>
        </mxCell>
        <mxCell id="tCflyKW4NJ5SablTunIA-91" value="1" style="edgeLabel;resizable=0;html=1;align=right;verticalAlign=bottom;" parent="tCflyKW4NJ5SablTunIA-89" connectable="0" vertex="1">
          <mxGeometry x="1" relative="1" as="geometry">
            <mxPoint x="-11" y="18" as="offset" />
          </mxGeometry>
        </mxCell>
        <mxCell id="-mJrdyQ3aU1VYNOPDsgk-1" value="&lt;div&gt;&lt;b&gt;Contributers&lt;/b&gt;:&amp;nbsp;&lt;/div&gt;Jaehoon" style="whiteSpace=wrap;html=1;shape=mxgraph.basic.document" parent="1" vertex="1">
          <mxGeometry x="9" y="8" width="141" height="62" as="geometry" />
        </mxCell>
        <mxCell id="dcW-MptEMCXipTYOBX5L-1" value="" style="endArrow=block;html=1;rounded=0;dashed=1;endFill=0;" edge="1" parent="1" source="tCflyKW4NJ5SablTunIA-37" target="tCflyKW4NJ5SablTunIA-59">
          <mxGeometry relative="1" as="geometry">
            <mxPoint x="800" y="438" as="sourcePoint" />
            <mxPoint x="870" y="434" as="targetPoint" />
          </mxGeometry>
        </mxCell>
      </root>
    </mxGraphModel>
  </diagram>
  <diagram id="mYErN2Z5qQ37pyCDm6hz" name="extra">
    <mxGraphModel dx="1440" dy="1836" grid="1" gridSize="10" guides="1" tooltips="1" connect="1" arrows="1" fold="1" page="1" pageScale="1" pageWidth="1100" pageHeight="850" math="0" shadow="0">
      <root>
        <mxCell id="0" />
        <mxCell id="1" parent="0" />
        <mxCell id="svMpcK4GvkI9CP6E3xNQ-1" value="&lt;b&gt;Use Case (Base)&lt;/b&gt;:&amp;nbsp;PlaceBet" style="rounded=1;whiteSpace=wrap;html=1;fontSize=20;" vertex="1" parent="1">
          <mxGeometry x="291.5" y="-830" width="288" height="60" as="geometry" />
        </mxCell>
        <mxCell id="svMpcK4GvkI9CP6E3xNQ-2" value="&lt;b&gt;Use Case (Base)&lt;/b&gt;:&amp;nbsp;StartRound" style="rounded=1;whiteSpace=wrap;html=1;fontSize=20;" vertex="1" parent="1">
          <mxGeometry x="292" y="-520" width="288" height="60" as="geometry" />
        </mxCell>
        <mxCell id="svMpcK4GvkI9CP6E3xNQ-3" value="&lt;b&gt;Use Case (Base)&lt;/b&gt;:&amp;nbsp;EndRound" style="rounded=1;whiteSpace=wrap;html=1;fontSize=20;" vertex="1" parent="1">
          <mxGeometry x="291.5" y="-190" width="288" height="60" as="geometry" />
        </mxCell>
        <mxCell id="svMpcK4GvkI9CP6E3xNQ-4" value="&lt;span style=&quot;font-size:10.5pt;line-height:107%;font-family:&amp;quot;Segoe UI&amp;quot;,sans-serif;&lt;br/&gt;mso-fareast-font-family:&amp;quot;Yu Mincho&amp;quot;;mso-fareast-theme-font:minor-fareast;&lt;br/&gt;mso-font-kerning:0pt;mso-ligatures:none;mso-ansi-language:EN-US;mso-fareast-language:&lt;br/&gt;JA;mso-bidi-language:AR-SA&quot;&gt;&lt;b style=&quot;border-color: var(--border-color); font-family: Verdana; font-size: 12px;&quot;&gt;Success Scenario&lt;/b&gt;: The round concludes, and the system determines the outcome based on the player&#39;s and dealer&#39;s hands. The player&#39;s winnings are calculated and added to their balance.&lt;br&gt;&lt;b&gt;Alternate Scenario&lt;/b&gt;: If the player and dealer have the same hand value, it results in a push, and the player&#39;s bet is returned.&lt;/span&gt;" style="shape=note;whiteSpace=wrap;html=1;size=14;verticalAlign=top;align=left;spacingTop=-6;rounded=0;shadow=0;comic=0;labelBackgroundColor=none;strokeWidth=1;fontFamily=Verdana;fontSize=12" vertex="1" parent="1">
          <mxGeometry x="451" y="-120" width="373" height="120" as="geometry" />
        </mxCell>
        <mxCell id="svMpcK4GvkI9CP6E3xNQ-5" value="" style="shape=image;verticalLabelPosition=bottom;labelBackgroundColor=default;verticalAlign=top;aspect=fixed;imageAspect=0;image=data:image/png,iVBORw0KGgoAAAANSUhEUgAAAXYAAADxCAMAAADoQmyDAAAAAXNSR0IArs4c6QAAAARnQU1BAACxjwv8YQUAAAL0UExURQAAACIiIj09PUBAQB0dHQQEBCwsLDk5ORkZGRMTEzs7Ow8PD1JSUtPT0////8rKykZGRrm5ucLCwj4+PlRUVPf390FBQUlJSevr67q6unp6eri4uODg4DY2NhISErOzs62trWpqaoGBgdTU1C0tLR8fH2VlZXh4eOfn5/Ly8hwcHL+/v5iYmBUVFRYWFq6urpGRkQkJCQEBAQgICAUFBQMDAwcHB2ZmZjExMcvLy3BwcAYGBtLS0vPz8woKClNTU/b29t3d3UNDQ5KSkgICAh4eHpeXl+Xl5fX19e7u7sHBwUxMTFlZWd7e3o6OjjIyMg4ODn19ffHx8cPDw0pKSnFxcaCgoHl5eRgYGNXV1V5eXsnJyYqKiiEhIdra2hoaGsDAwMfHx9vb23Z2dqioqO/v7+Tk5K+vr9bW1vT09HNzc6ampiMjI8XFxebm5r6+vvz8/OHh4fv7+9HR0f39/To6Os/Pz21tbcjIyPr6+pCQkGhoaM7OzsbGxvDw8HR0dIKCgr29vX5+fnd3d1xcXDAwMLy8vLCwsCgoKMzMzP7+/mJiYrKysisrK7W1tbGxsVBQUPn5+bS0tCYmJmxsbLe3tw0NDenp6S8vL2lpad/f3ykpKaenpzQ0NNjY2CUlJUhISJWVlVpaWmRkZH9/f6KiojMzM+zs7KysrBEREaOjo9zc3IuLi6urq0RERGNjY/j4+KSkpOjo6FZWVqmpqTU1NVhYWGdnZ1FRUTg4OO3t7RcXF+rq6o+PjxQUFCAgIISEhIiIiFdXV2FhYXt7e3x8fJSUlOLi4hAQEKGhocTExJaWlkVFRS4uLuPj4wsLC3V1ddfX156enpqamhsbG01NTZOTk7a2tnJycoCAgIWFhdnZ2U5OToyMjM3NzYaGhlVVVZycnJ2dnYeHhwwMDCoqKiQkJCcnJ2tra09PT1tbW6qqqjw8PEJCQl1dXUtLS42NjW5uboODgzc3Nz8/P29vb4mJiUdHR19fX2BgYKWlpQAAAEJPn7AAAAD8dFJOU///////////////////////////////////////////////////////////////////////////////////////////////////////////////////////////////////////////////////////////////////////////////////////////////////////////////////////////////////////////////////////////////////////////////////////////////////////////////////////////////////////////////ANR6x34AAAAJcEhZcwAAFxEAABcRAcom8z8AAA8qSURBVHhe7Z1NlqsqFIXDBOxnDvZtp+m4bGUirEWHOTgT+pnE23sf/ElV6r6kypS5N+d775YEAfGwPZCIeHAcx3Ecx3Ecx3Ecx3Ecx3Ecx3Ecx3Ecx3GcNyTkmFMNvz0xZpgjwh5JoRq9PeXUNM35eeX/VaQjjEF7xENR4Fl2yX1zHI5NH+vnN+fYXLpuODWnmLDtmyeZJZ2bMR3SpRlrxHsDtXfYhLM2h/Oz1JjRrtjEFldTantcXoV+59yf2iMvtUNC07+PD4L+Bm5tk07VyZRz0/QtmuPYMyKdT9hkRjLZBdsjzXS/dIfmUkNs4v6IyyscuqZBIf2pwZHapj9jx5v4oKr2aGpPJzvvAcKD04eJW5oE9jknGul87Bk5HtEAzel41BVyFwOaKHXDMJQUj5dAp1NQ4iVcmi73R1wN58DjzI3zbwO1H4ehlfioalP7eIZBh+aI9ujpHNg26XSCX4jWMOggLw8Jc0TzRXbZOE4KecQRafYBV06O/SW1zflyuRytGv8+00jmqNOd1I7BZDfC5yISajQpdk0Pw1x6mAtOqDkr3d1IxyGWniXxWmmq2dum0OzwW6Snm38DOLaIwL7HTGqPsC6g2UtzTCOdOEY5MkxPz/Kw2YvpGPkS22/Ix2u1X/ARdQhv8n2q+vZKVTs6vfOI0SQcOlqi7850NB29PMaAuizQGNzcD45zSSoY/gSNiFBBKVXtRxaIY+Sj+vd/n2kkUzlr3J77HsYd2I/S3BppHMKJOg8trMfx4INmR47m3MK7nNPQnFq49uaYJ7XDAaFZENvrSG/ASu1hHHneI5zOqTnCtTengdf9qdEgksObywi5hkMZL00/jtx7Pxp+tqdzgNxRNA41dtA9vAvVjvakB8NXqvfgOKvdfhwA4yHz95NLHUaP8O7cnzp6d/oC6xKbB7/RphDCAf/DxAE+HP8SNvxnHh2xcmBvAS1Q4XkTRMhE+IPY1fWg2LolinSeQIpjc3qXK/91oOfhQN35VUI3qD91HMdxHMdxHMdxHMdx/hlieew3+/cmdRtZq3345uA7wwkANfgzOH3GuZeHJw58xfgu08A2YUOzu9rvx9W+CzC7+/bfx9W+C+7bd8HVvgvu23fB1b4L7tt3wdW+C5v59tbN/gAPP0PzFXnwCZb3E0a3luM4juM4juM4juM4juM4L0+5rBYR2pNcdAMh5VdeDzdtNT96y9scsYuH0Im7n9cPdepyHmvzl1f+STu0G4l0y3upecyHOI4DGLs7NZvNymGYliRK3fhSM+6vzmOz2xxb3kvNMFhUxUKHFriLaAmr9UkcXsTtGWWoq+eRMF2TP+Ubaof7zRJkyCHmaGsJaTHu2ex1w0jWOUWmR/Kah4G628yehmFekmgdfgEyrty5u9lR7WEYATvAbhzGdpSRCuO4BEs1O9WbEGm7w8h1uaTogjzwQ2yGzMCge7lQ0SKp8lpeJqwMv5/aIcacgkwDE0a4E9gtI0QrS+0pJdQ0YncXkBBOO8i2dP1KiUjUPjIE01PttbGMcq+D+i1ShDp0BW6vdi7XVi9uhqx1V5ET0GxIKVKesn0YEOok30K1Q8wD/suTs6ARkQYh2Va2Vwdq1rW/8ziGXH0wbtaIcTVy3n0z8lt5lkgw9VXbq71rQS0bIQ0s0oDQeG13uhNEMkEnBwITwsJMzmaAhgucD1phdjeT2WVx9FAsF3mUG6nM7DZqF6vutRJ5QDth1YhtfCissFJahVXNPEfG+Sx0alNlEFRBCf6vnhpKr5EqyJZkXApCAlyyVr+rq/InzGoP84q36ADBh8gZjKu1H6ooZvZuMmGuvh0faXZeBtyUWe2wMLtdJgjWaNrN8zWjis9O5maNFCm7HRiy3UvkXXm+jlQeRcYOPZntrieyAQ/7dtkNlUHlZrWjc2Uk/0oPkHySpHFO1ckgKHNK7cjDJUSZx2y8DNuBeaxXAVd3HXiB7dV+L2mAQ0CniOMXXqSyWB7Upc4jGblndJyKZAuMmd0sdi1qR9tMkdZilasm2J2UJ6WTHcft7DQxWERlOplddrUBJJQbW3pBfNXMcD2MlCvJQ8ueVk01qR0twN3mUVb+XF3Ai7LlSOZRbUEA9nuV3uJUf7uKBV+ccDWG6ZsUbYfvQ+tvRvXr0pIHkTX9IndrkhdlM7XbOyj2Z3Itr/aTzDWb+fZQ+/Ddmb80yPqvyjTUdxzHcRzHcRzHcRzHcRzHeV2G/oXfBP9yPwLbhJ8NeHxW2JNZzcvJw4fJInfw3PcMbnhTb313Ka6mq+zD+u4Sb9rX4L08+f73hrewF7XHtuHbcfdF98UFTGhTbR7g6WbfXO18/fZpo8YUpeQyPWCQu67jlRTsc9SGkbqXXaZdnGwIW3d61iCORTNxUldKF7PyI6cVhMyWJ/EPSmJk7mp2JngGm8+TiZemOW9aXc7XGIaRFUUQ5uC0yapGeZKi3TymIjmtMsJueiwBu1MZok4zcE4l/0cY7p4FoTFsbhRni+hJBs1BzjU39z+FrefJlL65POpH/wfYGiaFfiOCtLgMtUxXhZkDE8GY1exUUp3XxxBiNfkN58q5ZRxFcJZwzWNmt4IQibZhe9bZmM9i6xm/uennrixxeot9YEhugBNfVnNebkfa7MEZ89KabZQSCtWsWT2rYZNQ1V/KcJ3Mbo58noqnKZM0Lu2dx5CQ06YuwbZ1CqXyWHvZ3L6bvn2pJh9p+FRhPiZh56sz5xHWeVbm2FztqRybvuo9cDKsap+6dhyti+MUrjoDdonU7F9lCgxNOjWgW5Yho8QCL6B5wDSXJFllrbAMjoT4i+h6imWET+eksTBmqB25CjbayazKXtWOKtRdivhIYYVVzchTk+XSwJNUheGkcGrMFjR5TZGZeXS+2l2t/YT57eXcNEeVCm1O872vQ3dFTsAXMIJmj3weIpph8Nlm+dpHMzsbyJ5ZQi5rPATk0TlfuHByMdT+2ezmx5bibqp9qdsSuh38EPqUaWu1Cyj+ZOe8BbAbVcjeU/6k6hjWM53bk5Ca/Kj5d/jMk5vUXsUPM8rsUnuNzDS20im0Vrv8z/PYXu2i2Jz6beC88Kh+FdaJmibO0uGuVHc0SEfnA2txbjBC8g98yiaWgK3cQh4jnUz17cqjJ3SUDiGZneVOFwIPpeM8g6eofVug7g6+koM5SLFthzKoH4AfkIEwtOETZQyHrkXCuTX4vMYk2+qTpHaY2PKwGKZDnlnt9dstE3zoZDbkSWrfEvaZQMJLCtiHpdez2BpK+GfhKbF9Qhif+M/SznlYnPLY40b2Vxme97sMBr019EOe+Avkrd5NcpT3+CsJutBemnTz90MM5p7meR2ipw4+EsqtWMdxHMdxHMdxHMdxHMd5Oi+z5sBfQdrKWs+7zfEvstk79dzsj+DvS90Ff1/qLmz2vlRX+yO42nfB1b4LZSuRutofwdW+C+7bd8HVvgvu23fB1b4Lm/n2dquC3oLSnLdRe5key3HuIL7KO9kcx3Ecx3Ecx3Ecx3Ecx3G+Jmvpobck1RXApu1jhB89xN8+flMvlFJY0YQtwOGjhcBdJ5DnhCzqi5UfYsd94FkTwdO01McceIiu/U5jTTx+L9Ve3AljcVk2hju+9ZTg7x31T3rJp64xFXVz+ZPDoahs8JOz+xNxXpLnOytdTcuWfZOH76WGYYyJf7imGiwWumktqjslE7T+o2ytFY+m5c8+c3OZu62Axmdb31f3OKxXXJxX8PsWD6vdlm+MWjpNVtHqdFfi+fj6bJCCvVka+/ge/hgC3zY9DHzjNPcHfNKW76JmYpVcVZjQzlOZTKjIoPQMo7QYkILLJ03H4XMXOJaCKrWurcTsNbRaCOnmenqf4Oqry5mZHb7Lo2qfLkhopdq7Wn9RTKmvZl+hJb5G9gJc6ovvVy9haLnUot60rrXEWBrfxz523MODTGrP4zDUVcWicmmxWSbRS7cZ1XG1sViPQ3vGke8mVh56NWRniVlpdQJrsy2LT/6RwKVua0/6YyfzmNonYeCoZpUA9TJiMTuspBNbwAVdoG2kSIGv0dZ6XxCmrSbGwjrFIyU2uAZsPbDpWJFL7CENupNhyIGL//IiR0ZVIZk5uHQYjhNwHOxGx8M8LAB/I4tFo7PobKVe9aP32jDFzhaIuz/LbRa1o/46SQYR/hiqcFlAUqB2LXNs2lub/bO3tpXN6Jj0Ya5vVTOMR29vy0NyhWVGAsUDrRWpy4xmrzUys08OruYJcAJJNdEqhVJxbbxcgonadHot8BseA7lrPZYQQOkywFZqX1Zk5QjFxhdQD9CpT0wK5PqMWrN7GgBqWcAvqGdlndiSEKduZdUxi05k1XzTsdRQZqe6aC2iF7XLxkyHRCF3SIFPdhTaZul0oBO6GxtGrZbnv2V2vR9dGc0cinyC2iNfLC4L8xXjxfqOPL1tfGbt26vwjZW5PlGraAJbEmplRwCx8pB2+Cuz235FwezcHXKBYfH5Wu3VsvDiXFR1MrskuTQzrxWBnFDUldk/2hDfKOqr9s0cFlo61V/27VUYvKwnqxh/Mru9Tr+2WJ4X9YMltbVFeuulvCpnauJF7fpqmOStZPa6Cva0KiZqhU5BJSwL/9ZqImttZnv7x+oV/2wDxf2ZjyOZn5n9m+N2rjR92+yxM5e8QJklDvD5YUk4ORFcOvBUMCbDK7N/VjtXmK3ulUsCo0ilmNQuH48uFZ9M7Wwq9bNcUZ/ZUTN25Eh7NYC8OpOvuBq3/7baeVrm9moXWcm2oji4MYBEHuTCOQd999TSvFqxGv+QFuYjGOgogN00ayVOZkcIJ0vorFgkCqDuFcUimV3RWoQZx9VwhaUjJcugE0LdWW2VV7nRo/4vv6x2nHCxn1RCWVc2zL/HYP+nS5Y/vtBBhMKfWtQPZ/3o0imtft5hgFvEoWD+cKMw3ETdxb88uHVBkfvmlNa1o5wuo1tlHlbH3DP7AwXop5HJxIKGqaq59pb38UO1t83l4UP+I0waX+v+fr6VaSbOIn07pnUbvrd+w7zCs+M4juM4juM4juM4juM4zovRnetNcecO4vnhm0K3+caM3zfG1wrbBV89aRdc7bvgat8FV/subGh2V/v9uNp3wX37Lrjad8F9+y642nfBffsuuNp3IW82P/rTY3XOH/Bpvo7jOI7jOI7jOI7jOI7jOI7jOI7jOI7jOC/H4fAfsT0+J2yj6RMAAAAASUVORK5CYII=;" vertex="1" parent="1">
          <mxGeometry x="61" y="-120" width="374" height="241" as="geometry" />
        </mxCell>
        <mxCell id="svMpcK4GvkI9CP6E3xNQ-6" value="" style="shape=image;verticalLabelPosition=bottom;labelBackgroundColor=default;verticalAlign=top;aspect=fixed;imageAspect=0;image=data:image/png,iVBORw0KGgoAAAANSUhEUgAAAW8AAADGCAMAAAAqhvG0AAAAAXNSR0IArs4c6QAAAARnQU1BAACxjwv8YQUAAALuUExURQAAAAQEBFxcXKCgoKOjo6enp6amppeXl1hYWAICAiAgII2NjaKiopubm0BAQAEBAVZWVqGhoWZmZgcHBwYGBp6env////j4+IKCgjAwMNjY2G5ubgUFBYCAgP7+/pKSkgkJCZSUlI6OjhMTExEREScnJ4eHh/b29vPz805OTgMDAw4ODiIiIri4uGdnZ/n5+Xp6eiQkJGBgYObm5nV1dYODg6qqqnFxcQ0NDbGxsRgYGE9PT1VVVR4eHllZWVRUVBUVFVdXVxYWFiEhIUdHRwwMDF9fX0hISDs7OxkZGcHBwXt7e2xsbOrq6ggICF5eXjQ0NDo6OkZGRkpKSiYmJklJSYSEhLOzszU1Nb+/v9ra2lBQUGRkZMrKyj4+PsnJyfv7+xAQEI+Pj76+vrW1tS4uLt7e3iUlJQ8PD/T09OLi4vz8/M7OzsjIyCMjIxsbG5+fnywsLImJiR8fH319ffHx8VFRUaioqLq6utPT029vb6+vr2traykpKczMzP39/UVFRWpqauPj46urqy0tLbe3t2lpab29vZaWlra2tpiYmPX19cbGxvr6+lJSUpOTk8DAwFtbW6mpqfLy8oyMjENDQxcXFwoKCkFBQe3t7dfX13BwcK2trbu7u+/v70RERAsLC1paWu7u7t3d3S8vL+jo6CsrKx0dHT8/P9TU1Ozs7EJCQt/f37y8vIuLi9HR0Xd3d3x8fJCQkOTk5DMzMzc3N5GRkevr6zExMZycnOXl5cvLy01NTWJiYn9/f4qKiktLS7m5uTY2Ns3Nzenp6YaGhoiIiNzc3NDQ0ExMTPDw8Nvb23l5edLS0rS0tOfn5xoaGnNzczk5OTIyMsTExDg4OCgoKNnZ2RwcHGhoaODg4OHh4cLCwqysrJWVlRQUFD09PWNjY5qamm1tbV1dXVNTU3h4eCoqKnZ2dp2dncXFxcPDw35+foWFhYGBgRISEjw8PGVlZWFhYXJycnR0dKWlpaSkpNbW1pmZmQAAALGC41EAAAD6dFJOU////////////////////////////////////////////////////////////////////////////////////////////////////////////////////////////////////////////////////////////////////////////////////////////////////////////////////////////////////////////////////////////////////////////////////////////////////////////////////////////////////////////wDeYEUjAAAACXBIWXMAABcRAAAXEQHKJvM/AAALp0lEQVR4Xu2dTZbrKhKEtQYGWgFDxh6xNu/Eh3PkDTBgDVqThh2RIMn119e2ZHW1K773bgkhEBAkKVy2szohhBBCCCGEEEIIIYQQQgghhPidxOkEpth1YWQitfw/CcVwLf0iTn0ld+XK44ub+9WMpsTUzl7D1I++C7nvYeHeX/6y3nHoc+CPdv4SoDcPJxN60dvH6KK3YzvFSUAm3U3BteiTi4XX3gZ/NqXdQEESxsjhlZhcCtEFlsCQqcMmFr3Zlq+yd+XChXUOnb/S7jvXX31XzrbafF12PLmw7NsQ+itV9cV33oY4YOjmbuFoqYWlkdiE6Q1/MtByZ/s+9ZfkbLpzf8I5s8O1n1K8MpXc0A+nmDY2/cuIq/3AvlyCCB7yXMZ+GM8wOyQjMqnHBuozoj0lZvtOrnCOT/Ds1yF0acDMu/5UfECn6Gaur3Vy/xMy9IbBDcMlBJc83DmGPvUpDGef+xiGIQWPRb5tBzf118vlcjI3vfrvNHKzwqmcoGzmGpjqvPToBLYyw3v5bkL79tPlTJcRMj0qrKzqDQVSqsO3jcUGqOdK0xtGf0XDsO8u9ZdyprojVhbIDplvqXfz32G4+gR/eb4M19L0hn2n0p9t/HnbyNvzsgL75uyl/hpDc93dZTiZs8l1Ysxpo0/vp3fbn4z9GduFEa6DXnTqSzH7jjyAsnHgN3p7Hy599h56D8m7a3+htnw22i4Qz8tQJkyC9+k6RJR7MyJe9QUM9wwnnT1Ev6bVvqNtIpDYaGmnRe8yNAc1efPVOOUDO5ztEWnCg3NZHrHV1b8PdRd4hVk7Gx8MLUDvgs3wiMHW/fCwcdSRvzox/DhVXOfzNOXkkAJtz4IJQYERJp9auff7VUvEAEvO2JtgeDFhtHEsfswYMqyaqowvH3SkGxMHwUX0flvt30u6Xm/2L0IIIYQQQgghhBBC/E/w4e3evXkR+wg1vvhTdG/DzYdWttDeKxb/IrU3Gzci+74T6N1Sm5B934ns+1hk38eyk96y7zvR/uRY5L+PRf77WGTfxyL7PhbtT45lp/3JuM9t3p/Un/fw32nc9i2VP0Oon9kWQgghhBBCCCGEEEKIZ4nn3/Clee/2+K1wccfExonx+bgO49Pvp/nMmEN3tByylfzSyZs4Nm58Xqn1Nmhoj7cE/oV3jFXyJM+/f+lTjPkenUIeI4syHtYNaY0wUsbnf5fvb+a8vOrNE38r8Ca9t71/Ge/Tm2qGzza86u3dltBcbtX7VvtdwUSuPUR3n2/lUfv2McGum2/wsQkFW3ctz2KhmiUH5DEFvXmeqLdniFQeo8tjdtE8blhMv7TKaCXGgn/Mb1WYaWdI40eNsloc7oPbtOij8VVReeI4rg+HI+07wBXzv9piaxkeg3nsUGJqZBTWUlOecgbvU0amR79RMMHac8UknN1Aq+zt2QCXP1I+q8ISdZ3YsnC8CzuRUMj+r/15mUOhac2KH2vfcMYeslWH2/xJomz2zjMeWYWqRqqDXvEKZ4Py0RxRmVqzv6s/ma3SO04J/Q4dA25ChQvvCGeUkLnojfaDtfJp9Jjaltofn1ydzU3ub7HvUEoqtip9ATaGNbVQnUMbJIZcrwYfSuJYq3QelSA/KnNiMAcpobPOo1pCZvXkX/XGVgP34WhCjpib4nNEEyxMw72xb2u3deXWZ3/doXw7GKaqZBh1+Tzqm8trCtACWHQX+/ZuGi0mG0bEkGw2k4zT9uljAHXQGLB1ox08RIIFm95zV+AbeEeo3KpgAsxNIM/0/U5vLFq7CqFNb+fa4CBks+9iejPTm9v/MPr1STBTOBhrfx0Mw69NtZaN1VpfRx1Y0ObNCo71jjCdeUu7i//28LFtK8tETa15M028xb6b7BmPUWg0ZwDIycrB/DfvgZr0JJbJAuuzbf4MDByPSxhXtW88X2nfs95cJ2zapskyoT/u+8G+v/HfbO/nYVmeJdfUd1WwPNEXy9vHvu/FHDSdqjVezRl5ONgm2hw0MlIbuk8Uz6aI9l2no1jPZ5WrmKRWmfU2f+JaMfrqqqxNk7X7jX2va2Zfyqq2tTgb1eM8vD/h9iJljAuuFp4Y/thDiFSQV592jklcXlIBj0p4cr424ksfpEwhzBmMmT23RyRzaN4OexHcEfadad+tim2I8LziZerNU+jNWnhEoHXT/IOt70moO9zKwfbtMGRacWAQSrhjOD1oMo3OTRnXIx00rQzGPE4ZHeVVuHImsV/G5WYe5uHNxmdTtxqYmETDLhP05h2tCkfIG2XuVKA8boGrVAGzhQKmQGkL5bVstO+H9fahfrU5NHDCLPPVNduOcH41hUMrVk+ab6w3qOn5tSczqs/HHpz/5vo3lZm2J0Brr163gq8y749ggp9vxj0Y5bEt4p0Ju/x+EB6opV4KXhsfMa0VOOOWEkfADYcQQgghhBBCCCGEEK+i2CdAxD/he4Q78PznNf8YO8WH2Pb5wT+E4vsci+L7HIviDx6L4rMdi/z3sci+j0X2fSzanxyL9ifHIv99LPLfx7KbfUvvu9jJf4dP34cSP1E/0i+EEEIIIYQQQgghxDsxf+lf3M8ScOEJjn1/55+zu8aC+AFcrwWeMJSdbOvQ+CfbmONufMQvv1pOFkjl59F4xkyZeN276b4v8q/xvrpU41NtZb/4Phbf5YXchLe6ZQlnCjUZ4OdzzK+VNLrSYu3caax+DpUIsHhaahs72bfP133eo/sZ6r220FKecauYrrGxulgDpn0taPPl69mni/V0zZyT3mJrfbn6Tcn72RRvZrHvkId+sKX6OqBXzGMNb2qx7+g6cLAoeK7FC+sCg1oFh2zG6PKjYzBRFMTBSuZQw29ybjwTkSE4Q8yMCzxapCUWbVXs3tCcUaDaVxQYgane2zF606NfXNjDf9O2rxtucyeRMWNrpOQIHXHqOwsFGRNEvvE2kLsVhLY5OhYsCUcUhLfHjxaaGXmcwZQgokMxl7NnkgHsrErOrIJkZG1W4eXWCVZAcmn2Lvbw366//uw1dwN2RwX51KyB8yx4YxcWHZYJt6h3VrA6hHYp1jB8ZA4VTJ/Oa1gvATeCGN5T32aFLaiYUVvDvdEc7mgx5JCzBua7jz3sOw3DZQ5MVRywwQSmrI+eqdqtxKQ1uBZcL/s4pzpLfexZtWBGhoRKAFaG8+ZHbuy7Rf4yx24x11pwyDV85/ronWMOugzvEluoPFhztrK34jRh69xZqFlMzjLdC58GU2VZRz3f4Dlm/x2mASZu9ylz3GLaVkuh21iYZikJqaoyU9XKLNyxXbaCtYtYyhazd4U2iANlpGfJHBcqFehPZgkZQs9WG5WghryXdeNGvGVRt1poGNVi51ATzoZBk1n21r7rzLQcBplEHTb/Re//PhjkfhjVQ8C+W3/KiAdmvfnLqNpwXbdYatb2PGDsC3leXGlD4oUqfRO1zpdxY981Ec2+OaUWNxIL4LPerZ06U2bV39r3v0DnWtNPcLv/DuPw2v1g9d+BDyhoAjmK9bzUQLAYiMWRpFO1UMQoCNdtaiz+ZOnfMuimN1TAABIlNDuuQVabOLVW8zz13tV/m3235XUvzRie4+Pry/D8xN0FN2Jw2hxfQgrbAzYInZFGJgS2yyb9nDKjpzXXWPZ8YtCv2rYFe5qagJDVf8O+fWEx7ANt/eM1lHleOmA2g0dpvTeWctN7frl1J3UKn+TD68uXA2HgEs2cPFPNI1b3z0y6STNCbqct5e0ndyP2uLBcjBh1mYS7qAnOAeYLKwPTY41YIHG2wyLeHDCLUma7N5RGHfx89JvDm+xbf3/+YbD2nrfvRzefAprV3+AIIYQQQgghhBBCCCHEQ/yOvz//f0A5P/aHuH5A8SHuJPXnltrEx/cvxY8ovs+xKL7Pseykt+z7ThSf7Vjkv49F/vtYZN/HIvs+Fu1PjkX7k2PZzX9L77vYyZ88+vfn/yzpOulTmkIIIYQQQgghhBBCCCGEeCld9x+dRoK4y/+kSAAAAABJRU5ErkJggg==;" vertex="1" parent="1">
          <mxGeometry x="61" y="-760" width="367" height="198" as="geometry" />
        </mxCell>
        <mxCell id="svMpcK4GvkI9CP6E3xNQ-7" value="" style="shape=image;verticalLabelPosition=bottom;labelBackgroundColor=default;verticalAlign=top;aspect=fixed;imageAspect=0;image=data:image/png,iVBORw0KGgoAAAANSUhEUgAAAXsAAADJCAMAAAD1lWLzAAAAAXNSR0IArs4c6QAAAARnQU1BAACxjwv8YQUAAAL0UExURQAAAFtbW87OztbW1t/f3+Dg4NPT05ubmykpKQ0NDZaWltnZ2dLS0oSEhAoKClBQULu7u93d3bi4uEdHR3Nzc/////n5+ff398vLyyYmJo2Nje3t7ampqWRkZPDw8OPj4+Li4unp6W9vb6qqqgkJCUhISMXFxZGRkXR0dKOjowwMDDExMfr6+hsbGxoaGo+PjyQkJKysrA8PD2lpaXh4eBQUFJWVlV5eXgsLC1hYWEVFRQQEBFVVVZKSklJSUgICApCQkIyMjE9PTxEREXFxcZOTk1paWkFBQYaGhjc3N62trQgICBcXF7OzsyAgIAEBAUJCQpSUlHt7eycnJx8fH4GBgYKCglFRUX9/fwcHB3l5eSUlJX19fXV1dcDAwBwcHNXV1VdXV6GhofLy8s3NzeXl5eTk5GhoaMHBwfv7+11dXRMTE+vr6zo6OvT09GJiYv7+/rm5uTIyMi0tLerq6nJycmFhYfb29tDQ0BkZGf39/SgoKBYWFs/Pz/X19UpKSl9fX76+voWFhbe3t2NjYzQ0NAMDAx4eHmVlZSsrK9zc3BISEiMjIw4ODh0dHXx8fGpqamtra7W1tbS0tO/v78fHx+fn57Kysm5ubvz8/JmZmRAQEOjo6K6urtTU1HBwcEZGRm1tbSwsLDY2NkBAQImJiWZmZjU1NSoqKouLizMzM8nJyRUVFaurq0RERMTExNra2lxcXCEhIfHx8SIiIry8vIqKiuHh4aampu7u7rCwsENDQ2dnZwUFBd7e3llZWVZWVq+vr6ioqL+/v5eXl56ennp6ejk5OWxsbMjIyL29vTg4OLa2tj09PZqamuzs7J2dnXd3d+bm5nZ2dsPDw01NTTAwMLq6uklJSfj4+NfX18rKyrGxsdjY2Nvb22BgYD4+PlNTU05OTjs7Oz8/PxgYGMLCwqSkpJycnKCgoFRUVIiIiExMTAYGBoeHhy4uLjw8PIODg4CAgH5+fo6Oji8vL0tLS6KiotHR0czMzKenpwAAAAo2ypEAAAD8dFJOU///////////////////////////////////////////////////////////////////////////////////////////////////////////////////////////////////////////////////////////////////////////////////////////////////////////////////////////////////////////////////////////////////////////////////////////////////////////////////////////////////////////////ANR6x34AAAAJcEhZcwAAFxEAABcRAcom8z8AAAsPSURBVHhe7Z1Bdqu8EoS9BHvACrwNzbRLFsBAA400YRmsgxV49qq6hSH58+51Ytn4OvXlnCAkEFKraQmbVA5CCCGEEEIIIYQQQgghhBBCCCGEEE8nXE6kL4dDz8Rc838p+Xg6HXPdeTRT150up667lDifLmN3rvm/k6HrxlM3Psn4g1k7Xbq+7kVufynp1M0xzt0JUeAJTO7pPgTYsyE4xKHv54BE6M0HfMNMbOPUz33Icz8nlr0RvVkhHo9wQPSvnzAGcZ7mOQRLW+bQzDuH7shNHQJsWHM5dwSxf+ouyIinLhyiZw6HeMHmNFr6vTiim4AmGNg/ROJD4pY78MpgmRyZJsD2qaR57CbuXe+CS/ZbD3aGp+OgeJhxZBzGUzrEMqNZocRmHvAalBMifSwglks3xXyCd6VxHI7dGSaJTMZ0dFM1ALOL4bGm+v0hp1IGtgQ58P6ze/uUcz5zH2c9KSQ+lcQew614Q6dcinW2jEcYYTpcLvDGMyzgoaAFU3eagd1r3PMxyD2WPh1cHMN+imWEpYvdb4BH1PvjzTC/R0i/wPYFzg5mGOAMo0+H0wXTgdPK7+okW6l+j2B3OvejrbXg8zN9PY6nIRBe2ILQ+3H0GQxd5px27I/V7932se96s0Bu1PePq0r3e4aXyDuQ65jc4ekLiei7aXDbv6Pfo/uYXA957IapO2Ky683vzfYRtrf4i863Wt4tER6UVHrMpynFY9encOlGegF2PBBN3TilacRSoCQcl1OrJrwOcLpLCAi3Aya0jF525wK/rzEnlhMCfoBxGvk9BrjWxNvMGAtG3h7wuMaBj48+G1i4GyeuOA27D96LbMtnxHt6HFJwu4RFeA+/x7x34LAgFrVaZqSpTrO48OQExJthGjJ+8SoIOnV08jBNfLYKfly7h4zXoaCLKSGqRCRCCROW1QFGSocBZrHiJ3YbK913e4T6V8DD7Fsuaf4F+uP5/cK6EEIIIYQQQgghhBDtKK2+H3h/Ymn7OW8e3/BLqQcx13c7WpH4CpS4ieW9mlZk2f5m6tsLzZDf384D/F6T7Y3I7/dD8X4/5Pf7oXi/H/L7/VC83w/5/X4o3u9Hc7/vOvn9jbT+LK30s16AvZF8vr5FL4QQQgghhBBCCCGEEL+CMr/wZ8jZdZti3b4kiaojPyM/QxwnD8Q0wG7BFatw2lxVVALFOl+UYf7x937pnnfA4/RH0ZerYs8wU4VnNpGeGwguhRqnqbpUvKODD+CDo4efN+2u72vj/GfbL6KEJo0Uw5+PXslu+7ycvqnpFYjT9g6+y++//Z5CySknjH3KYaKQJs+PCVv6Q0FGwV4qKJ4HL/b2RRsC5GdrramwRaYLFSo9E5Xm4rbfOvt6C7wCYZ7D1Wj3+f21mtvAlcFQ4tDPVBDuYRbYiYmCBDOnuZ8DUiidqSrskmBmwDzhAIbvMlF0NfVw6GwHTmyHVT5YsizRHqD+b7byoRQ0c9EQfKbfw2YpxozpMEaYp0Tq9YY5FMQU2BFFCOw4Aqm0FMOY8VAGxBycnWOaYEncBSixYALbZ3QHpk48FR3j1Iqz/Yrk1WZb9JJqc6BJvC9xkT1Gov5VF8wbP1WdYL3rgUsY5qkwte2lq8bbGu/p1rxXqg1Z4PN0tT0y7a4wJ8Ko0B2uZ5NN7K9smvaXlm8yv1XsSSY+FwM6kFXQwu8pOt67p01I+T0ekOo/3hcYcYYVW3Fjrq2NKYH2tdPhrzVztf0UwjTTTzz6FAxP9XsuhTy+o8hnhLr/F9uvTdu0fEBqaTly7V4pLOa1MLwstsbxQC+On4rNkpkpu2K6Vm6C9NXQMWHp5g8dLeJ9TMCrYcozC1N2iQ2YGGFJNrwsFmH8CxZzqjmNje2LWw9xm7Ux1n/we14Nfo88Fi+2d3sSxCFv0MratE3L18wvi5n63LHPxevZlvnV2RZWl8e9p8Z7C3PZrLT4PeIF7kZ4M3dWm8Gw3kBrn4WbGnNwpPu4jcjV73Ggpew3K8XGqGHoNYADXS1/r99/79zc48KYN83vOXOWxG1iAMRIcK5d9PItG8UeaQoDZGGz4TacazEyOGexvZkas27CrOuG3qxttmue3YmDBavKM/0+ZqwbscC1KyJta0xusbTEehJhH6X+fyuQjRAJq3n7YFiuMVnuA4eU2d5vBpu7WBGWqNa5TdB5tWXOhqeu7xH36nMU0/XZilmYB5JlMM/K+cTFZ6bkt2jyB6nlMQqpxFOQYLGFWntG833eLrVpnJs99Xrc5fev+zf9tuzk9rWerD5yh9+/tJbFdQn+sl7Ptr1w44QQQgghhBBCCCGEeBP0MdztrK8pNOEH76X9WlpruEgP+XZaaxfJ72+nvd9LN+pW5Pf78QC/l+1vRH6/H4r3+yG/3w/F+/2Q3++H4v1+yO/3o7nfP+Pvyt+E9pq8vWLOjYTj+ldIQgghhBBCCCGEEEII8RsoL6V++M9wFVK5h/zQ/2cYQk1siF9lpkXy8EoIQ1g0QBPSf+ls/rks8Q+IVajuPtLH72vbdsD16D5xFcMpw2qvPH0SJ4oU8a3SLcFVBv/Utq3A1xNAH9rYfvW4Mo9P/GaGinV/pErTUDST6ppf3C4rX43y46iChneyeT8n9V13aReATGHPq4upFFfbW2X3SqKirx2xqvJ5eumWSzLBpVmLT0xLsdUTvVKmixvDip8wCIuq0n1c/T73Y3dpcSctUFmyiutnaqlZBMnIMzVKiveaZO8ckUSmx5zAkxafCm70KptGkSVXW2M9OG4aJkpXxoG6axZzKN3ZUwL10bQJcdXv4zx2x8bTVSzLIgq2Dy66G0t0eUek0jzAdTkO1PM122cYjgcyvfj9BznwKUVTxUfdAyuNEcM1lDQw03QJUf9TbN/AVtXv46lbZ+5IPqUsuaa+LK7JlWWudfO5Lulmrt0o0JksL05gDLkue12QNF+1TtFaqjC7z8Hd7ZQai5hJAchFQHfD2rSvUv8/c039p7iGuDup76XF6dSdlpt1FZ9FYKgatxkpanaDtZjCt4ueIpKrKSuLe7gAZm3vEkO+sv0hZtP29Xw/YavNG9OAQOW2r7e9F1vlFN7EyV7TlXJtmqvqWt2BYc46Fj8VXzvmvfWOMWXFfs1rx+7jGu8LrD+6nU140eqmWL0LJkZkmRojiqmj6MUoXYqZydSWxe+T1fsfv98sG6vt04RAgjnY893vl8MQ7wuKBxSb7etQXm3Pg9AgDM46VsSEIq1pa8r7YOdvM5HwgWO/N8VucDvQW7Zc/D426xyz/rLTBLiHbW/2ewvYVRV58fuq0MijMSvgrq/ZdYRcF9hjjvlBnU8eil3ubj6s7+N0+egz92Gh2cxR/R7tjRRD9qCM0ow5E8lYrWoxnHOtHUgBah6IGTZTeDv4UcFjDrtv1aDAJl6q0+JAlLfsw9csN/R9PO495ITYayT3ahi2ivcCM58r+WKNaVkM83YO1qOUCbesmYa0ME5da4QkgF9YIzkYUwQinoMaYXbyz6wxP/h9U2IO/oPFn30ww/8EVULwXHObhBQiKDf2gxz8TojaMHg9kmcW5vIES6A4lnoKSzEVBQRo1sjTverH0sb2eg/5J7SJ95jxa0J8g2d8cCGEEEIIIYQQQgghhFjQB3K309hWaWz4Ktqb01rD5ZX/n+Gr0Vq76HHf174f7f3+Ud/Xvh8P8HvZ/kbk9/uheL8f8vv9ULzfD/n9fije74f8fj8U7/ejud/rXdibaa3Jm85nxfsbCZf6FzNCCCGEEEIIIYQQQgghhBDimxwO/wNGSkULuP0vKgAAAABJRU5ErkJggg==;" vertex="1" parent="1">
          <mxGeometry x="61" y="-440" width="379" height="201" as="geometry" />
        </mxCell>
        <mxCell id="svMpcK4GvkI9CP6E3xNQ-8" value="&lt;span style=&quot;font-size:10.5pt;line-height:107%;font-family:&amp;quot;Segoe UI&amp;quot;,sans-serif;&lt;br/&gt;mso-fareast-font-family:&amp;quot;Yu Mincho&amp;quot;;mso-fareast-theme-font:minor-fareast;&lt;br/&gt;mso-font-kerning:0pt;mso-ligatures:none;mso-ansi-language:EN-US;mso-fareast-language:&lt;br/&gt;JA;mso-bidi-language:AR-SA&quot;&gt;&lt;b style=&quot;border-color: var(--border-color); font-family: Verdana; font-size: 12px;&quot;&gt;Success Scenario&lt;/b&gt;: The player initiates the start of a round, and&lt;br&gt;the dealer deals two cards to both the player and them.&lt;br&gt;&lt;b&gt;Alternate Scenario&lt;/b&gt;: If the deck of cards is empty, the system shuffles a new deck before dealing.&lt;/span&gt;" style="shape=note;whiteSpace=wrap;html=1;size=14;verticalAlign=top;align=left;spacingTop=-6;rounded=0;shadow=0;comic=0;labelBackgroundColor=none;strokeWidth=1;fontFamily=Verdana;fontSize=12" vertex="1" parent="1">
          <mxGeometry x="451" y="-440" width="373" height="120" as="geometry" />
        </mxCell>
        <mxCell id="svMpcK4GvkI9CP6E3xNQ-9" value="&lt;b&gt;Success Scenario&lt;/b&gt;&lt;span style=&quot;font-size:10.5pt;line-height:107%;font-family:&amp;quot;Segoe UI&amp;quot;,sans-serif;&lt;br/&gt;mso-fareast-font-family:&amp;quot;Yu Mincho&amp;quot;;mso-fareast-theme-font:minor-fareast;&lt;br/&gt;mso-font-kerning:0pt;mso-ligatures:none;mso-ansi-language:EN-US;mso-fareast-language:&lt;br/&gt;JA;mso-bidi-language:AR-SA&quot;&gt;: The player places a bet before starting a round&lt;br&gt;of blackjack.&lt;br&gt;&lt;b&gt;Alternate Scenario&lt;/b&gt;: If the player does not have enough funds, the system notifies the player, and the bet cannot be placed.&lt;/span&gt;" style="shape=note;whiteSpace=wrap;html=1;size=14;verticalAlign=top;align=left;spacingTop=-6;rounded=0;shadow=0;comic=0;labelBackgroundColor=none;strokeWidth=1;fontFamily=Verdana;fontSize=12" vertex="1" parent="1">
          <mxGeometry x="451" y="-760" width="373" height="120" as="geometry" />
        </mxCell>
        <mxCell id="svMpcK4GvkI9CP6E3xNQ-10" value="&lt;div&gt;&lt;b&gt;Contributers&lt;/b&gt;:&amp;nbsp;&lt;/div&gt;Jaehoon" style="whiteSpace=wrap;html=1;shape=mxgraph.basic.document" vertex="1" parent="1">
          <mxGeometry x="10" y="-840" width="141" height="62" as="geometry" />
        </mxCell>
      </root>
    </mxGraphModel>
  </diagram>
</mxfile>
